{
	"asset":{
		"generator":"Khronos glTF Blender I/O v4.1.63",
		"version":"2.0"
	},
	"scene":0,
	"scenes":[
		{
			"name":"Scene",
			"nodes":[
				0,
				1
			]
		}
	],
	"nodes":[
		{
			"mesh":0,
			"name":"arena.floor.corners.006"
		},
		{
			"mesh":1,
			"name":"arena.sides.high.005"
		}
	],
	"materials":[
		{
			"name":"DCL.AvatarWearables",
			"pbrMetallicRoughness":{
				"baseColorTexture":{
					"index":0
				},
				"metallicFactor":0,
				"roughnessFactor":0.5
			}
		}
	],
	"meshes":[
		{
			"name":"Cylinder.370",
			"primitives":[
				{
					"attributes":{
						"POSITION":0,
						"NORMAL":1,
						"TEXCOORD_0":2
					},
					"indices":3,
					"material":0
				},
				{
					"attributes":{
						"POSITION":4,
						"NORMAL":5,
						"TEXCOORD_0":6
					},
					"indices":7,
					"material":0
				}
			]
		},
		{
			"name":"Plane.237",
			"primitives":[
				{
					"attributes":{
						"POSITION":8,
						"NORMAL":9,
						"TEXCOORD_0":10
					},
					"indices":11,
					"material":0
				}
			]
		}
	],
	"textures":[
		{
			"sampler":0,
			"source":0
		}
	],
	"images":[
		{
			"mimeType":"image/png",
			"name":"AvatarWearables_TX",
			"uri":"tex/AvatarWearables_TX.png"
		}
	],
	"accessors":[
		{
			"bufferView":0,
			"componentType":5126,
			"count":40,
			"max":[
				4,
				-3.0000150203704834,
				1.8582301139831543
			],
			"min":[
				-3.9999618530273438,
				-11.50002670288086,
				-4
			],
			"type":"VEC3"
		},
		{
			"bufferView":1,
			"componentType":5126,
			"count":40,
			"type":"VEC3"
		},
		{
			"bufferView":2,
			"componentType":5126,
			"count":40,
			"type":"VEC2"
		},
		{
			"bufferView":3,
			"componentType":5123,
			"count":78,
			"type":"SCALAR"
		},
		{
			"bufferView":4,
			"componentType":5126,
			"count":16,
			"max":[
				4,
				-3.0000150203704834,
				1.8582301139831543
			],
			"min":[
				-3.9999618530273438,
				-11.50002670288086,
				-4
			],
			"type":"VEC3"
		},
		{
			"bufferView":5,
			"componentType":5126,
			"count":16,
			"type":"VEC3"
		},
		{
			"bufferView":6,
			"componentType":5126,
			"count":16,
			"type":"VEC2"
		},
		{
			"bufferView":7,
			"componentType":5123,
			"count":36,
			"type":"SCALAR"
		},
		{
			"bufferView":8,
			"componentType":5126,
			"count":46,
			"max":[
				4,
				-1.9291191101074219,
				4
			],
			"min":[
				0.059009552001953125,
				-12.570911407470703,
				1.8582305908203125
			],
			"type":"VEC3"
		},
		{
			"bufferView":9,
			"componentType":5126,
			"count":46,
			"type":"VEC3"
		},
		{
			"bufferView":10,
			"componentType":5126,
			"count":46,
			"type":"VEC2"
		},
		{
			"bufferView":11,
			"componentType":5123,
			"count":90,
			"type":"SCALAR"
		}
	],
	"bufferViews":[
		{
			"buffer":0,
			"byteLength":480,
			"byteOffset":0,
			"target":34962
		},
		{
			"buffer":0,
			"byteLength":480,
			"byteOffset":480,
			"target":34962
		},
		{
			"buffer":0,
			"byteLength":320,
			"byteOffset":960,
			"target":34962
		},
		{
			"buffer":0,
			"byteLength":156,
			"byteOffset":1280,
			"target":34963
		},
		{
			"buffer":0,
			"byteLength":192,
			"byteOffset":1436,
			"target":34962
		},
		{
			"buffer":0,
			"byteLength":192,
			"byteOffset":1628,
			"target":34962
		},
		{
			"buffer":0,
			"byteLength":128,
			"byteOffset":1820,
			"target":34962
		},
		{
			"buffer":0,
			"byteLength":72,
			"byteOffset":1948,
			"target":34963
		},
		{
			"buffer":0,
			"byteLength":552,
			"byteOffset":2020,
			"target":34962
		},
		{
			"buffer":0,
			"byteLength":552,
			"byteOffset":2572,
			"target":34962
		},
		{
			"buffer":0,
			"byteLength":368,
			"byteOffset":3124,
			"target":34962
		},
		{
			"buffer":0,
			"byteLength":180,
			"byteOffset":3492,
			"target":34963
		}
	],
	"samplers":[
		{
			"magFilter":9729,
			"minFilter":9987
		}
	],
	"buffers":[
		{
			"byteLength":3672,
			"uri":"tile_0_1_6.bin"
		}
	]
}
