{
	"asset":{
		"generator":"Khronos glTF Blender I/O v4.1.63",
		"version":"2.0"
	},
	"scene":0,
	"scenes":[
		{
			"name":"Scene",
			"nodes":[
				0,
				1,
				2
			]
		}
	],
	"nodes":[
		{
			"mesh":0,
			"name":"arena.floor.main.006"
		},
		{
			"mesh":1,
			"name":"arena.floor.corners.017"
		},
		{
			"name":"arena.sides.high.012"
		}
	],
	"materials":[
		{
			"name":"DCL.AvatarWearables",
			"pbrMetallicRoughness":{
				"baseColorTexture":{
					"index":0
				},
				"metallicFactor":0,
				"roughnessFactor":0.5
			}
		}
	],
	"meshes":[
		{
			"name":"Cylinder.387",
			"primitives":[
				{
					"attributes":{
						"POSITION":0,
						"NORMAL":1,
						"TEXCOORD_0":2
					},
					"indices":3,
					"material":0
				}
			]
		},
		{
			"name":"Cylinder.388",
			"primitives":[
				{
					"attributes":{
						"POSITION":4,
						"NORMAL":5,
						"TEXCOORD_0":6
					},
					"indices":7,
					"material":0
				},
				{
					"attributes":{
						"POSITION":8,
						"NORMAL":9,
						"TEXCOORD_0":10
					},
					"indices":11,
					"material":0
				}
			]
		}
	],
	"textures":[
		{
			"sampler":0,
			"source":0
		}
	],
	"images":[
		{
			"mimeType":"image/png",
			"name":"AvatarWearables_TX",
			"uri":"tex/AvatarWearables_TX.png"
		}
	],
	"accessors":[
		{
			"bufferView":0,
			"componentType":5126,
			"count":48,
			"max":[
				4,
				-3.00000262260437,
				2.2007408142089844
			],
			"min":[
				-4,
				-8.000004768371582,
				-4
			],
			"type":"VEC3"
		},
		{
			"bufferView":1,
			"componentType":5126,
			"count":48,
			"type":"VEC3"
		},
		{
			"bufferView":2,
			"componentType":5126,
			"count":48,
			"type":"VEC2"
		},
		{
			"bufferView":3,
			"componentType":5123,
			"count":96,
			"type":"SCALAR"
		},
		{
			"bufferView":4,
			"componentType":5126,
			"count":34,
			"max":[
				4,
				-4.070899486541748,
				4
			],
			"min":[
				-4,
				-11.50002670288086,
				2.2007408142089844
			],
			"type":"VEC3"
		},
		{
			"bufferView":5,
			"componentType":5126,
			"count":34,
			"type":"VEC3"
		},
		{
			"bufferView":6,
			"componentType":5126,
			"count":34,
			"type":"VEC2"
		},
		{
			"bufferView":7,
			"componentType":5123,
			"count":63,
			"type":"SCALAR"
		},
		{
			"bufferView":8,
			"componentType":5126,
			"count":17,
			"max":[
				4,
				-4.070899486541748,
				4
			],
			"min":[
				-4,
				-11.50002670288086,
				2.2007408142089844
			],
			"type":"VEC3"
		},
		{
			"bufferView":9,
			"componentType":5126,
			"count":17,
			"type":"VEC3"
		},
		{
			"bufferView":10,
			"componentType":5126,
			"count":17,
			"type":"VEC2"
		},
		{
			"bufferView":11,
			"componentType":5123,
			"count":33,
			"type":"SCALAR"
		}
	],
	"bufferViews":[
		{
			"buffer":0,
			"byteLength":576,
			"byteOffset":0,
			"target":34962
		},
		{
			"buffer":0,
			"byteLength":576,
			"byteOffset":576,
			"target":34962
		},
		{
			"buffer":0,
			"byteLength":384,
			"byteOffset":1152,
			"target":34962
		},
		{
			"buffer":0,
			"byteLength":192,
			"byteOffset":1536,
			"target":34963
		},
		{
			"buffer":0,
			"byteLength":408,
			"byteOffset":1728,
			"target":34962
		},
		{
			"buffer":0,
			"byteLength":408,
			"byteOffset":2136,
			"target":34962
		},
		{
			"buffer":0,
			"byteLength":272,
			"byteOffset":2544,
			"target":34962
		},
		{
			"buffer":0,
			"byteLength":126,
			"byteOffset":2816,
			"target":34963
		},
		{
			"buffer":0,
			"byteLength":204,
			"byteOffset":2944,
			"target":34962
		},
		{
			"buffer":0,
			"byteLength":204,
			"byteOffset":3148,
			"target":34962
		},
		{
			"buffer":0,
			"byteLength":136,
			"byteOffset":3352,
			"target":34962
		},
		{
			"buffer":0,
			"byteLength":66,
			"byteOffset":3488,
			"target":34963
		}
	],
	"samplers":[
		{
			"magFilter":9729,
			"minFilter":9987
		}
	],
	"buffers":[
		{
			"byteLength":3556,
			"uri":"tile_2_1_1.bin"
		}
	]
}
