{
	"asset":{
		"generator":"Khronos glTF Blender I/O v4.1.63",
		"version":"2.0"
	},
	"scene":0,
	"scenes":[
		{
			"name":"Scene",
			"nodes":[
				0,
				1,
				2,
				3,
				4,
				5,
				6,
				7,
				10,
				11,
				12,
				13,
				14
			]
		}
	],
	"nodes":[
		{
			"mesh":0,
			"name":"Sphere.002",
			"scale":[
				31.92721939086914,
				31.92721939086914,
				31.92721939086914
			],
			"translation":[
				32,
				18.281858444213867,
				-32
			]
		},
		{
			"mesh":1,
			"name":"decentralandText",
			"rotation":[
				0.6532815098762512,
				0.27059805393218994,
				-0.27059805393218994,
				0.6532815098762512
			],
			"scale":[
				0.5606948137283325,
				0.5606948137283325,
				0.5606947541236877
			],
			"translation":[
				62.14830017089844,
				14.656878471374512,
				-1.8158522844314575
			]
		},
		{
			"mesh":2,
			"name":"bumperzTopLogo.001",
			"scale":[
				26.313188552856445,
				2.4362242221832275,
				26.313188552856445
			],
			"translation":[
				31.999990463256836,
				33.55825424194336,
				-31.999998092651367
			]
		},
		{
			"mesh":3,
			"name":"Sphere.001",
			"translation":[
				32,
				18.281858444213867,
				-32
			]
		},
		{
			"mesh":4,
			"name":"Sphere.003",
			"translation":[
				32,
				18.281858444213867,
				-32
			]
		},
		{
			"name":"roof.pivot",
			"translation":[
				31.999988555908203,
				33.55825424194336,
				-31.999998092651367
			]
		},
		{
			"name":"Sphere.004",
			"rotation":[
				0,
				-1,
				0,
				1.6292068494294654e-07
			],
			"translation":[
				1.5570507049560547,
				33.556453704833984,
				-31.99999237060547
			]
		},
		{
			"name":"Empty.003",
			"rotation":[
				-0.3535533845424652,
				0.3535533845424652,
				0.1464466005563736,
				0.8535534143447876
			],
			"translation":[
				57.477638244628906,
				27.92376708984375,
				-6.462087154388428
			]
		},
		{
			"name":"Bone",
			"translation":[
				0,
				-4.873100280761719,
				0
			]
		},
		{
			"name":"Bone.001",
			"translation":[
				0,
				-3.101064682006836,
				0
			]
		},
		{
			"children":[
				8,
				9
			],
			"name":"Armature",
			"translation":[
				57.477638244628906,
				23.40812110900879,
				-6.462085723876953
			]
		},
		{
			"mesh":5,
			"name":"Plane",
			"rotation":[
				0,
				-1,
				0,
				1.6292068494294654e-07
			],
			"translation":[
				32,
				33.55555725097656,
				-32
			]
		},
		{
			"mesh":1,
			"name":"decentralandText.001",
			"rotation":[
				0.27059805393218994,
				0.6532815098762512,
				-0.6532815098762512,
				0.27059805393218994
			],
			"scale":[
				0.5606948137283325,
				0.5606948137283325,
				0.5606947541236877
			],
			"translation":[
				62.18413162231445,
				14.656881332397461,
				-62.148311614990234
			]
		},
		{
			"mesh":1,
			"name":"decentralandText.002",
			"rotation":[
				0.2705981433391571,
				-0.6532814502716064,
				0.6532814502716064,
				0.2705981135368347
			],
			"scale":[
				0.5606948137283325,
				0.5606948137283325,
				0.5606947541236877
			],
			"translation":[
				1.8516731262207031,
				14.656883239746094,
				-62.184139251708984
			]
		},
		{
			"mesh":1,
			"name":"decentralandText.003",
			"rotation":[
				0.6532815098762512,
				-0.2705979645252228,
				0.2705979645252228,
				0.653281569480896
			],
			"scale":[
				0.5606948137283325,
				0.5606948137283325,
				0.5606947541236877
			],
			"translation":[
				1.8158493041992188,
				14.656885147094727,
				-1.8516807556152344
			]
		}
	],
	"materials":[
		{
			"name":"texture.atlas.01",
			"pbrMetallicRoughness":{
				"baseColorTexture":{
					"index":0
				},
				"metallicFactor":0,
				"roughnessFactor":0.5
			}
		},
		{
			"alphaCutoff":0.5,
			"alphaMode":"MASK",
			"emissiveFactor":[
				1,
				1,
				1
			],
			"emissiveTexture":{
				"index":1
			},
			"name":"texture.atlas.01_emissive",
			"pbrMetallicRoughness":{
				"baseColorTexture":{
					"index":2
				},
				"metallicFactor":0,
				"roughnessFactor":0.5
			}
		}
	],
	"meshes":[
		{
			"name":"Sphere.002",
			"primitives":[
				{
					"attributes":{
						"POSITION":0,
						"NORMAL":1,
						"TEXCOORD_0":2,
						"TANGENT":3
					},
					"indices":4,
					"material":0
				}
			]
		},
		{
			"name":"Plane.003",
			"primitives":[
				{
					"attributes":{
						"POSITION":5,
						"NORMAL":6,
						"TEXCOORD_0":7,
						"TANGENT":8
					},
					"indices":9,
					"material":1
				}
			]
		},
		{
			"name":"Cylinder.012",
			"primitives":[
				{
					"attributes":{
						"POSITION":10,
						"NORMAL":11,
						"TEXCOORD_0":12,
						"TANGENT":13
					},
					"indices":14,
					"material":1
				}
			]
		},
		{
			"name":"Sphere.001",
			"primitives":[
				{
					"attributes":{
						"POSITION":15,
						"NORMAL":16,
						"TEXCOORD_0":17,
						"TANGENT":18
					},
					"indices":19,
					"material":1
				}
			]
		},
		{
			"name":"Sphere.003",
			"primitives":[
				{
					"attributes":{
						"POSITION":20,
						"NORMAL":21,
						"TEXCOORD_0":22,
						"TANGENT":23
					},
					"indices":24,
					"material":1
				}
			]
		},
		{
			"name":"Plane.018",
			"primitives":[
				{
					"attributes":{
						"POSITION":25,
						"NORMAL":26,
						"TEXCOORD_0":27,
						"TANGENT":28
					},
					"indices":29,
					"material":0
				},
				{
					"attributes":{
						"POSITION":30,
						"NORMAL":31,
						"TEXCOORD_0":32,
						"TANGENT":33
					},
					"indices":34,
					"material":1
				}
			]
		}
	],
	"textures":[
		{
			"sampler":0,
			"source":0
		},
		{
			"sampler":0,
			"source":0
		},
		{
			"sampler":0,
			"source":0
		}
	],
	"images":[
		{
			"mimeType":"image/png",
			"name":"texture-atlas-bumperz",
			"uri":"tex/texture-atlas-bumperz.png"
		}
	],
	"skins":[
		{
			"inverseBindMatrices":35,
			"joints":[
				8,
				9
			],
			"name":"Armature"
		}
	],
	"accessors":[
		{
			"bufferView":0,
			"componentType":5126,
			"count":736,
			"max":[
				0.9616960883140564,
				0.6182126998901367,
				0.961696207523346
			],
			"min":[
				-0.9616960883140564,
				0.3200409710407257,
				-0.961696207523346
			],
			"type":"VEC3"
		},
		{
			"bufferView":1,
			"componentType":5126,
			"count":736,
			"type":"VEC3"
		},
		{
			"bufferView":2,
			"componentType":5126,
			"count":736,
			"type":"VEC2"
		},
		{
			"bufferView":3,
			"componentType":5126,
			"count":736,
			"type":"VEC4"
		},
		{
			"bufferView":4,
			"componentType":5123,
			"count":1920,
			"type":"SCALAR"
		},
		{
			"bufferView":5,
			"componentType":5126,
			"count":20,
			"max":[
				1.7534183263778687,
				4.0031463299783354e-07,
				10.031035423278809
			],
			"min":[
				-1.6733828783035278,
				-0.35670068860054016,
				-10.031034469604492
			],
			"type":"VEC3"
		},
		{
			"bufferView":6,
			"componentType":5126,
			"count":20,
			"type":"VEC3"
		},
		{
			"bufferView":7,
			"componentType":5126,
			"count":20,
			"type":"VEC2"
		},
		{
			"bufferView":8,
			"componentType":5126,
			"count":20,
			"type":"VEC4"
		},
		{
			"bufferView":9,
			"componentType":5123,
			"count":30,
			"type":"SCALAR"
		},
		{
			"bufferView":10,
			"componentType":5126,
			"count":96,
			"max":[
				1.1062785387039185,
				1.0000009536743164,
				1.106278419494629
			],
			"min":[
				-1.1062779426574707,
				-1.0000009536743164,
				-1.106278419494629
			],
			"type":"VEC3"
		},
		{
			"bufferView":11,
			"componentType":5126,
			"count":96,
			"type":"VEC3"
		},
		{
			"bufferView":12,
			"componentType":5126,
			"count":96,
			"type":"VEC2"
		},
		{
			"bufferView":13,
			"componentType":5126,
			"count":96,
			"type":"VEC4"
		},
		{
			"bufferView":14,
			"componentType":5123,
			"count":144,
			"type":"SCALAR"
		},
		{
			"bufferView":15,
			"componentType":5126,
			"count":72,
			"max":[
				30.742443084716797,
				11.749752044677734,
				30.742446899414062
			],
			"min":[
				-30.742443084716797,
				10.981094360351562,
				-30.742446899414062
			],
			"type":"VEC3"
		},
		{
			"bufferView":16,
			"componentType":5126,
			"count":72,
			"type":"VEC3"
		},
		{
			"bufferView":17,
			"componentType":5126,
			"count":72,
			"type":"VEC2"
		},
		{
			"bufferView":18,
			"componentType":5126,
			"count":72,
			"type":"VEC4"
		},
		{
			"bufferView":19,
			"componentType":5123,
			"count":192,
			"type":"SCALAR"
		},
		{
			"bufferView":20,
			"componentType":5126,
			"count":108,
			"max":[
				27.791324615478516,
				19.1702823638916,
				27.79132652282715
			],
			"min":[
				-27.791324615478516,
				18.601917266845703,
				-27.79132652282715
			],
			"type":"VEC3"
		},
		{
			"bufferView":21,
			"componentType":5126,
			"count":108,
			"type":"VEC3"
		},
		{
			"bufferView":22,
			"componentType":5126,
			"count":108,
			"type":"VEC2"
		},
		{
			"bufferView":23,
			"componentType":5126,
			"count":108,
			"type":"VEC4"
		},
		{
			"bufferView":24,
			"componentType":5123,
			"count":192,
			"type":"SCALAR"
		},
		{
			"bufferView":25,
			"componentType":5126,
			"count":1712,
			"max":[
				30.948463439941406,
				2.0080130100250244,
				30.948463439941406
			],
			"min":[
				-30.948463439941406,
				-2.4534249305725098,
				-30.948463439941406
			],
			"type":"VEC3"
		},
		{
			"bufferView":26,
			"componentType":5126,
			"count":1712,
			"type":"VEC3"
		},
		{
			"bufferView":27,
			"componentType":5126,
			"count":1712,
			"type":"VEC2"
		},
		{
			"bufferView":28,
			"componentType":5126,
			"count":1712,
			"type":"VEC4"
		},
		{
			"bufferView":29,
			"componentType":5123,
			"count":1848,
			"type":"SCALAR"
		},
		{
			"bufferView":30,
			"componentType":5126,
			"count":1686,
			"max":[
				30.948463439941406,
				2.0080130100250244,
				30.948463439941406
			],
			"min":[
				-30.948463439941406,
				-2.4534249305725098,
				-30.948463439941406
			],
			"type":"VEC3"
		},
		{
			"bufferView":31,
			"componentType":5126,
			"count":1686,
			"type":"VEC3"
		},
		{
			"bufferView":32,
			"componentType":5126,
			"count":1686,
			"type":"VEC2"
		},
		{
			"bufferView":33,
			"componentType":5126,
			"count":1686,
			"type":"VEC4"
		},
		{
			"bufferView":34,
			"componentType":5123,
			"count":1704,
			"type":"SCALAR"
		},
		{
			"bufferView":35,
			"componentType":5126,
			"count":2,
			"type":"MAT4"
		}
	],
	"bufferViews":[
		{
			"buffer":0,
			"byteLength":8832,
			"byteOffset":0,
			"target":34962
		},
		{
			"buffer":0,
			"byteLength":8832,
			"byteOffset":8832,
			"target":34962
		},
		{
			"buffer":0,
			"byteLength":5888,
			"byteOffset":17664,
			"target":34962
		},
		{
			"buffer":0,
			"byteLength":11776,
			"byteOffset":23552,
			"target":34962
		},
		{
			"buffer":0,
			"byteLength":3840,
			"byteOffset":35328,
			"target":34963
		},
		{
			"buffer":0,
			"byteLength":240,
			"byteOffset":39168,
			"target":34962
		},
		{
			"buffer":0,
			"byteLength":240,
			"byteOffset":39408,
			"target":34962
		},
		{
			"buffer":0,
			"byteLength":160,
			"byteOffset":39648,
			"target":34962
		},
		{
			"buffer":0,
			"byteLength":320,
			"byteOffset":39808,
			"target":34962
		},
		{
			"buffer":0,
			"byteLength":60,
			"byteOffset":40128,
			"target":34963
		},
		{
			"buffer":0,
			"byteLength":1152,
			"byteOffset":40188,
			"target":34962
		},
		{
			"buffer":0,
			"byteLength":1152,
			"byteOffset":41340,
			"target":34962
		},
		{
			"buffer":0,
			"byteLength":768,
			"byteOffset":42492,
			"target":34962
		},
		{
			"buffer":0,
			"byteLength":1536,
			"byteOffset":43260,
			"target":34962
		},
		{
			"buffer":0,
			"byteLength":288,
			"byteOffset":44796,
			"target":34963
		},
		{
			"buffer":0,
			"byteLength":864,
			"byteOffset":45084,
			"target":34962
		},
		{
			"buffer":0,
			"byteLength":864,
			"byteOffset":45948,
			"target":34962
		},
		{
			"buffer":0,
			"byteLength":576,
			"byteOffset":46812,
			"target":34962
		},
		{
			"buffer":0,
			"byteLength":1152,
			"byteOffset":47388,
			"target":34962
		},
		{
			"buffer":0,
			"byteLength":384,
			"byteOffset":48540,
			"target":34963
		},
		{
			"buffer":0,
			"byteLength":1296,
			"byteOffset":48924,
			"target":34962
		},
		{
			"buffer":0,
			"byteLength":1296,
			"byteOffset":50220,
			"target":34962
		},
		{
			"buffer":0,
			"byteLength":864,
			"byteOffset":51516,
			"target":34962
		},
		{
			"buffer":0,
			"byteLength":1728,
			"byteOffset":52380,
			"target":34962
		},
		{
			"buffer":0,
			"byteLength":384,
			"byteOffset":54108,
			"target":34963
		},
		{
			"buffer":0,
			"byteLength":20544,
			"byteOffset":54492,
			"target":34962
		},
		{
			"buffer":0,
			"byteLength":20544,
			"byteOffset":75036,
			"target":34962
		},
		{
			"buffer":0,
			"byteLength":13696,
			"byteOffset":95580,
			"target":34962
		},
		{
			"buffer":0,
			"byteLength":27392,
			"byteOffset":109276,
			"target":34962
		},
		{
			"buffer":0,
			"byteLength":3696,
			"byteOffset":136668,
			"target":34963
		},
		{
			"buffer":0,
			"byteLength":20232,
			"byteOffset":140364,
			"target":34962
		},
		{
			"buffer":0,
			"byteLength":20232,
			"byteOffset":160596,
			"target":34962
		},
		{
			"buffer":0,
			"byteLength":13488,
			"byteOffset":180828,
			"target":34962
		},
		{
			"buffer":0,
			"byteLength":26976,
			"byteOffset":194316,
			"target":34962
		},
		{
			"buffer":0,
			"byteLength":3408,
			"byteOffset":221292,
			"target":34963
		},
		{
			"buffer":0,
			"byteLength":128,
			"byteOffset":224700
		}
	],
	"samplers":[
		{
			"magFilter":9729,
			"minFilter":9987
		}
	],
	"buffers":[
		{
			"byteLength":224828,
			"uri":"arena.roof.bin"
		}
	]
}
