{
	"asset":{
		"generator":"Khronos glTF Blender I/O v4.1.63",
		"version":"2.0"
	},
	"scene":0,
	"scenes":[
		{
			"name":"Scene",
			"nodes":[
				11,
				12
			]
		}
	],
	"nodes":[
		{
			"mesh":0,
			"name":"entrance.arrows.002",
			"rotation":[
				-0.7071067690849304,
				5.366708251131058e-07,
				5.366708251131058e-07,
				0.7071067690849304
			],
			"translation":[
				7.887597348599229e-07,
				0,
				2.254637365695089e-08
			]
		},
		{
			"children":[
				0
			],
			"name":"Bone.001",
			"rotation":[
				0.7071067690849304,
				-5.366708251131058e-07,
				-5.366708251131058e-07,
				0.7071067690849304
			],
			"translation":[
				-13.480854034423828,
				-1.7499961853027344,
				-1.9799995422363281
			]
		},
		{
			"mesh":1,
			"name":"entrance.arrows.004",
			"rotation":[
				0.5000004172325134,
				-0.49999964237213135,
				0.49999964237213135,
				0.5000003576278687
			],
			"scale":[
				-1,
				-1,
				-1.0000001192092896
			],
			"translation":[
				5.4902557167224586e-08,
				3.814697265625e-06,
				5.433917067421135e-07
			]
		},
		{
			"children":[
				2
			],
			"name":"Bone.003",
			"rotation":[
				-0.49999964237213135,
				-0.5000003576278687,
				0.5000004172325134,
				0.49999964237213135
			],
			"scale":[
				1,
				0.9999999403953552,
				1
			],
			"translation":[
				-13.480854034423828,
				-1.7499961853027344,
				1.9799976348876953
			]
		},
		{
			"name":"Bone.004",
			"rotation":[
				-0.49999964237213135,
				-0.5000003576278687,
				0.5000004172325134,
				0.49999964237213135
			],
			"scale":[
				1,
				0.9999999403953552,
				1
			],
			"translation":[
				-13.480854034423828,
				-1.7499961853027344,
				1.9799976348876953
			]
		},
		{
			"name":"Bone.002",
			"rotation":[
				0.7071067690849304,
				-5.366708251131058e-07,
				-5.366708251131058e-07,
				0.7071067690849304
			],
			"translation":[
				-13.480854034423828,
				-1.7499961853027344,
				-1.9799995422363281
			]
		},
		{
			"mesh":2,
			"name":"entrance.arrows.005",
			"rotation":[
				0.5000004172325134,
				-0.49999964237213135,
				0.49999964237213135,
				0.5000003576278687
			],
			"scale":[
				-1,
				-1,
				-1.0000001192092896
			],
			"translation":[
				5.4902557167224586e-08,
				3.814697265625e-06,
				5.433917067421135e-07
			]
		},
		{
			"children":[
				6
			],
			"name":"Bone.005",
			"rotation":[
				-0.49999964237213135,
				-0.5000003576278687,
				0.5000004172325134,
				0.49999964237213135
			],
			"scale":[
				1,
				0.9999999403953552,
				1
			],
			"translation":[
				-13.480854034423828,
				-1.7499961853027344,
				1.9799976348876953
			]
		},
		{
			"mesh":3,
			"name":"entrance.arrows.003",
			"rotation":[
				5.900558903704223e-07,
				-0.7071067690849304,
				0.7071067690849304,
				5.900558903704223e-07
			],
			"scale":[
				-1,
				-1,
				-1.0000001192092896
			],
			"translation":[
				7.887610991019756e-07,
				3.814697265625e-06,
				9.762206900632009e-07
			]
		},
		{
			"children":[
				8
			],
			"name":"Bone.006",
			"rotation":[
				0.7071067690849304,
				-5.366708251131058e-07,
				-5.366708251131058e-07,
				0.7071067690849304
			],
			"translation":[
				-13.480854034423828,
				-1.7499961853027344,
				-1.9799995422363281
			]
		},
		{
			"children":[
				1,
				3,
				4,
				5,
				7,
				9
			],
			"name":"Bone"
		},
		{
			"children":[
				10
			],
			"name":"entrance.arrows.01.Armature",
			"translation":[
				32,
				4.999996185302734,
				-32
			]
		},
		{
			"mesh":4,
			"name":"entrance.arrows.001",
			"translation":[
				32,
				4.999996185302734,
				-32
			]
		}
	],
	"animations":[
		{
			"channels":[
				{
					"sampler":0,
					"target":{
						"node":10,
						"path":"translation"
					}
				},
				{
					"sampler":1,
					"target":{
						"node":10,
						"path":"rotation"
					}
				},
				{
					"sampler":2,
					"target":{
						"node":10,
						"path":"scale"
					}
				},
				{
					"sampler":3,
					"target":{
						"node":1,
						"path":"translation"
					}
				},
				{
					"sampler":4,
					"target":{
						"node":1,
						"path":"rotation"
					}
				},
				{
					"sampler":5,
					"target":{
						"node":1,
						"path":"scale"
					}
				},
				{
					"sampler":6,
					"target":{
						"node":3,
						"path":"translation"
					}
				},
				{
					"sampler":7,
					"target":{
						"node":3,
						"path":"rotation"
					}
				},
				{
					"sampler":8,
					"target":{
						"node":3,
						"path":"scale"
					}
				},
				{
					"sampler":9,
					"target":{
						"node":4,
						"path":"translation"
					}
				},
				{
					"sampler":10,
					"target":{
						"node":4,
						"path":"rotation"
					}
				},
				{
					"sampler":11,
					"target":{
						"node":4,
						"path":"scale"
					}
				},
				{
					"sampler":12,
					"target":{
						"node":5,
						"path":"translation"
					}
				},
				{
					"sampler":13,
					"target":{
						"node":5,
						"path":"rotation"
					}
				},
				{
					"sampler":14,
					"target":{
						"node":5,
						"path":"scale"
					}
				},
				{
					"sampler":15,
					"target":{
						"node":7,
						"path":"translation"
					}
				},
				{
					"sampler":16,
					"target":{
						"node":7,
						"path":"rotation"
					}
				},
				{
					"sampler":17,
					"target":{
						"node":7,
						"path":"scale"
					}
				},
				{
					"sampler":18,
					"target":{
						"node":9,
						"path":"translation"
					}
				},
				{
					"sampler":19,
					"target":{
						"node":9,
						"path":"rotation"
					}
				},
				{
					"sampler":20,
					"target":{
						"node":9,
						"path":"scale"
					}
				}
			],
			"name":"ArmatureAction",
			"samplers":[
				{
					"input":22,
					"interpolation":"STEP",
					"output":23
				},
				{
					"input":22,
					"interpolation":"STEP",
					"output":24
				},
				{
					"input":22,
					"interpolation":"STEP",
					"output":25
				},
				{
					"input":26,
					"interpolation":"STEP",
					"output":27
				},
				{
					"input":26,
					"interpolation":"STEP",
					"output":28
				},
				{
					"input":22,
					"interpolation":"STEP",
					"output":29
				},
				{
					"input":26,
					"interpolation":"STEP",
					"output":30
				},
				{
					"input":26,
					"interpolation":"STEP",
					"output":31
				},
				{
					"input":22,
					"interpolation":"STEP",
					"output":32
				},
				{
					"input":26,
					"interpolation":"STEP",
					"output":33
				},
				{
					"input":26,
					"interpolation":"STEP",
					"output":34
				},
				{
					"input":22,
					"interpolation":"STEP",
					"output":35
				},
				{
					"input":26,
					"interpolation":"STEP",
					"output":36
				},
				{
					"input":26,
					"interpolation":"STEP",
					"output":37
				},
				{
					"input":22,
					"interpolation":"STEP",
					"output":38
				},
				{
					"input":26,
					"interpolation":"STEP",
					"output":39
				},
				{
					"input":26,
					"interpolation":"STEP",
					"output":40
				},
				{
					"input":22,
					"interpolation":"STEP",
					"output":41
				},
				{
					"input":26,
					"interpolation":"STEP",
					"output":42
				},
				{
					"input":26,
					"interpolation":"STEP",
					"output":43
				},
				{
					"input":22,
					"interpolation":"STEP",
					"output":44
				}
			]
		}
	],
	"materials":[
		{
			"alphaCutoff":0.5,
			"alphaMode":"MASK",
			"emissiveFactor":[
				1,
				1,
				1
			],
			"emissiveTexture":{
				"index":0
			},
			"name":"texture.atlas.01_emissive",
			"pbrMetallicRoughness":{
				"baseColorTexture":{
					"index":1
				},
				"metallicFactor":0,
				"roughnessFactor":0.5
			}
		},
		{
			"name":"texture.atlas.01",
			"pbrMetallicRoughness":{
				"baseColorTexture":{
					"index":2
				},
				"metallicFactor":0,
				"roughnessFactor":0.5
			}
		}
	],
	"meshes":[
		{
			"name":"Cylinder.003",
			"primitives":[
				{
					"attributes":{
						"POSITION":0,
						"NORMAL":1,
						"TEXCOORD_0":2,
						"TANGENT":3
					},
					"indices":4,
					"material":0
				}
			]
		},
		{
			"name":"Cylinder.004",
			"primitives":[
				{
					"attributes":{
						"POSITION":5,
						"NORMAL":6,
						"TEXCOORD_0":7,
						"TANGENT":8
					},
					"indices":4,
					"material":0
				}
			]
		},
		{
			"name":"Cylinder.025",
			"primitives":[
				{
					"attributes":{
						"POSITION":9,
						"NORMAL":10,
						"TEXCOORD_0":11,
						"TANGENT":12
					},
					"indices":4,
					"material":0
				}
			]
		},
		{
			"name":"Cylinder.016",
			"primitives":[
				{
					"attributes":{
						"POSITION":13,
						"NORMAL":14,
						"TEXCOORD_0":15,
						"TANGENT":16
					},
					"indices":4,
					"material":0
				}
			]
		},
		{
			"name":"Cylinder.001",
			"primitives":[
				{
					"attributes":{
						"POSITION":17,
						"NORMAL":18,
						"TEXCOORD_0":19,
						"TANGENT":20
					},
					"indices":21,
					"material":1
				}
			]
		}
	],
	"textures":[
		{
			"sampler":0,
			"source":0
		},
		{
			"sampler":0,
			"source":0
		},
		{
			"sampler":0,
			"source":0
		}
	],
	"images":[
		{
			"mimeType":"image/png",
			"name":"texture-atlas-bumperz",
			"uri":"tex/texture-atlas-bumperz.png"
		}
	],
	"skins":[
		{
			"inverseBindMatrices":45,
			"joints":[
				10,
				1,
				3,
				4,
				5,
				7,
				9
			],
			"name":"entrance.arrows.01.Armature"
		}
	],
	"accessors":[
		{
			"bufferView":0,
			"componentType":5126,
			"count":6,
			"max":[
				0.24648571014404297,
				0.875,
				-1.1920928955078125e-07
			],
			"min":[
				-0.8173332214355469,
				-0.875,
				-3.5762786865234375e-07
			],
			"type":"VEC3"
		},
		{
			"bufferView":1,
			"componentType":5126,
			"count":6,
			"type":"VEC3"
		},
		{
			"bufferView":2,
			"componentType":5126,
			"count":6,
			"type":"VEC2"
		},
		{
			"bufferView":3,
			"componentType":5126,
			"count":6,
			"type":"VEC4"
		},
		{
			"bufferView":4,
			"componentType":5123,
			"count":12,
			"type":"SCALAR"
		},
		{
			"bufferView":5,
			"componentType":5126,
			"count":6,
			"max":[
				0.24648571014404297,
				0.875,
				-1.1920928955078125e-07
			],
			"min":[
				-0.8173332214355469,
				-0.875,
				-3.5762786865234375e-07
			],
			"type":"VEC3"
		},
		{
			"bufferView":6,
			"componentType":5126,
			"count":6,
			"type":"VEC3"
		},
		{
			"bufferView":7,
			"componentType":5126,
			"count":6,
			"type":"VEC2"
		},
		{
			"bufferView":8,
			"componentType":5126,
			"count":6,
			"type":"VEC4"
		},
		{
			"bufferView":9,
			"componentType":5126,
			"count":6,
			"max":[
				0.24648571014404297,
				0.875,
				-1.1920928955078125e-07
			],
			"min":[
				-0.8173332214355469,
				-0.875,
				-3.5762786865234375e-07
			],
			"type":"VEC3"
		},
		{
			"bufferView":10,
			"componentType":5126,
			"count":6,
			"type":"VEC3"
		},
		{
			"bufferView":11,
			"componentType":5126,
			"count":6,
			"type":"VEC2"
		},
		{
			"bufferView":12,
			"componentType":5126,
			"count":6,
			"type":"VEC4"
		},
		{
			"bufferView":13,
			"componentType":5126,
			"count":6,
			"max":[
				0.24648571014404297,
				0.875,
				-1.1920928955078125e-07
			],
			"min":[
				-0.8173332214355469,
				-0.875,
				-3.5762786865234375e-07
			],
			"type":"VEC3"
		},
		{
			"bufferView":14,
			"componentType":5126,
			"count":6,
			"type":"VEC3"
		},
		{
			"bufferView":15,
			"componentType":5126,
			"count":6,
			"type":"VEC2"
		},
		{
			"bufferView":16,
			"componentType":5126,
			"count":6,
			"type":"VEC4"
		},
		{
			"bufferView":17,
			"componentType":5126,
			"count":72,
			"max":[
				-13.234368324279785,
				-0.8749961853027344,
				2.850548267364502
			],
			"min":[
				-22.484027862548828,
				-2.6249961853027344,
				-2.850548267364502
			],
			"type":"VEC3"
		},
		{
			"bufferView":18,
			"componentType":5126,
			"count":72,
			"type":"VEC3"
		},
		{
			"bufferView":19,
			"componentType":5126,
			"count":72,
			"type":"VEC2"
		},
		{
			"bufferView":20,
			"componentType":5126,
			"count":72,
			"type":"VEC4"
		},
		{
			"bufferView":21,
			"componentType":5123,
			"count":144,
			"type":"SCALAR"
		},
		{
			"bufferView":22,
			"componentType":5126,
			"count":2,
			"max":[
				2.9833333333333334
			],
			"min":[
				0
			],
			"type":"SCALAR"
		},
		{
			"bufferView":23,
			"componentType":5126,
			"count":2,
			"type":"VEC3"
		},
		{
			"bufferView":24,
			"componentType":5126,
			"count":2,
			"type":"VEC4"
		},
		{
			"bufferView":25,
			"componentType":5126,
			"count":2,
			"type":"VEC3"
		},
		{
			"bufferView":26,
			"componentType":5126,
			"count":180,
			"max":[
				2.9833333333333334
			],
			"min":[
				0
			],
			"type":"SCALAR"
		},
		{
			"bufferView":27,
			"componentType":5126,
			"count":180,
			"type":"VEC3"
		},
		{
			"bufferView":28,
			"componentType":5126,
			"count":180,
			"type":"VEC4"
		},
		{
			"bufferView":29,
			"componentType":5126,
			"count":2,
			"type":"VEC3"
		},
		{
			"bufferView":30,
			"componentType":5126,
			"count":180,
			"type":"VEC3"
		},
		{
			"bufferView":31,
			"componentType":5126,
			"count":180,
			"type":"VEC4"
		},
		{
			"bufferView":32,
			"componentType":5126,
			"count":2,
			"type":"VEC3"
		},
		{
			"bufferView":33,
			"componentType":5126,
			"count":180,
			"type":"VEC3"
		},
		{
			"bufferView":34,
			"componentType":5126,
			"count":180,
			"type":"VEC4"
		},
		{
			"bufferView":35,
			"componentType":5126,
			"count":2,
			"type":"VEC3"
		},
		{
			"bufferView":36,
			"componentType":5126,
			"count":180,
			"type":"VEC3"
		},
		{
			"bufferView":37,
			"componentType":5126,
			"count":180,
			"type":"VEC4"
		},
		{
			"bufferView":38,
			"componentType":5126,
			"count":2,
			"type":"VEC3"
		},
		{
			"bufferView":39,
			"componentType":5126,
			"count":180,
			"type":"VEC3"
		},
		{
			"bufferView":40,
			"componentType":5126,
			"count":180,
			"type":"VEC4"
		},
		{
			"bufferView":41,
			"componentType":5126,
			"count":2,
			"type":"VEC3"
		},
		{
			"bufferView":42,
			"componentType":5126,
			"count":180,
			"type":"VEC3"
		},
		{
			"bufferView":43,
			"componentType":5126,
			"count":180,
			"type":"VEC4"
		},
		{
			"bufferView":44,
			"componentType":5126,
			"count":2,
			"type":"VEC3"
		},
		{
			"bufferView":45,
			"componentType":5126,
			"count":7,
			"type":"MAT4"
		}
	],
	"bufferViews":[
		{
			"buffer":0,
			"byteLength":72,
			"byteOffset":0,
			"target":34962
		},
		{
			"buffer":0,
			"byteLength":72,
			"byteOffset":72,
			"target":34962
		},
		{
			"buffer":0,
			"byteLength":48,
			"byteOffset":144,
			"target":34962
		},
		{
			"buffer":0,
			"byteLength":96,
			"byteOffset":192,
			"target":34962
		},
		{
			"buffer":0,
			"byteLength":24,
			"byteOffset":288,
			"target":34963
		},
		{
			"buffer":0,
			"byteLength":72,
			"byteOffset":312,
			"target":34962
		},
		{
			"buffer":0,
			"byteLength":72,
			"byteOffset":384,
			"target":34962
		},
		{
			"buffer":0,
			"byteLength":48,
			"byteOffset":456,
			"target":34962
		},
		{
			"buffer":0,
			"byteLength":96,
			"byteOffset":504,
			"target":34962
		},
		{
			"buffer":0,
			"byteLength":72,
			"byteOffset":600,
			"target":34962
		},
		{
			"buffer":0,
			"byteLength":72,
			"byteOffset":672,
			"target":34962
		},
		{
			"buffer":0,
			"byteLength":48,
			"byteOffset":744,
			"target":34962
		},
		{
			"buffer":0,
			"byteLength":96,
			"byteOffset":792,
			"target":34962
		},
		{
			"buffer":0,
			"byteLength":72,
			"byteOffset":888,
			"target":34962
		},
		{
			"buffer":0,
			"byteLength":72,
			"byteOffset":960,
			"target":34962
		},
		{
			"buffer":0,
			"byteLength":48,
			"byteOffset":1032,
			"target":34962
		},
		{
			"buffer":0,
			"byteLength":96,
			"byteOffset":1080,
			"target":34962
		},
		{
			"buffer":0,
			"byteLength":864,
			"byteOffset":1176,
			"target":34962
		},
		{
			"buffer":0,
			"byteLength":864,
			"byteOffset":2040,
			"target":34962
		},
		{
			"buffer":0,
			"byteLength":576,
			"byteOffset":2904,
			"target":34962
		},
		{
			"buffer":0,
			"byteLength":1152,
			"byteOffset":3480,
			"target":34962
		},
		{
			"buffer":0,
			"byteLength":288,
			"byteOffset":4632,
			"target":34963
		},
		{
			"buffer":0,
			"byteLength":8,
			"byteOffset":4920
		},
		{
			"buffer":0,
			"byteLength":24,
			"byteOffset":4928
		},
		{
			"buffer":0,
			"byteLength":32,
			"byteOffset":4952
		},
		{
			"buffer":0,
			"byteLength":24,
			"byteOffset":4984
		},
		{
			"buffer":0,
			"byteLength":720,
			"byteOffset":5008
		},
		{
			"buffer":0,
			"byteLength":2160,
			"byteOffset":5728
		},
		{
			"buffer":0,
			"byteLength":2880,
			"byteOffset":7888
		},
		{
			"buffer":0,
			"byteLength":24,
			"byteOffset":10768
		},
		{
			"buffer":0,
			"byteLength":2160,
			"byteOffset":10792
		},
		{
			"buffer":0,
			"byteLength":2880,
			"byteOffset":12952
		},
		{
			"buffer":0,
			"byteLength":24,
			"byteOffset":15832
		},
		{
			"buffer":0,
			"byteLength":2160,
			"byteOffset":15856
		},
		{
			"buffer":0,
			"byteLength":2880,
			"byteOffset":18016
		},
		{
			"buffer":0,
			"byteLength":24,
			"byteOffset":20896
		},
		{
			"buffer":0,
			"byteLength":2160,
			"byteOffset":20920
		},
		{
			"buffer":0,
			"byteLength":2880,
			"byteOffset":23080
		},
		{
			"buffer":0,
			"byteLength":24,
			"byteOffset":25960
		},
		{
			"buffer":0,
			"byteLength":2160,
			"byteOffset":25984
		},
		{
			"buffer":0,
			"byteLength":2880,
			"byteOffset":28144
		},
		{
			"buffer":0,
			"byteLength":24,
			"byteOffset":31024
		},
		{
			"buffer":0,
			"byteLength":2160,
			"byteOffset":31048
		},
		{
			"buffer":0,
			"byteLength":2880,
			"byteOffset":33208
		},
		{
			"buffer":0,
			"byteLength":24,
			"byteOffset":36088
		},
		{
			"buffer":0,
			"byteLength":448,
			"byteOffset":36112
		}
	],
	"samplers":[
		{
			"magFilter":9729,
			"minFilter":9987
		}
	],
	"buffers":[
		{
			"byteLength":36560,
			"uri":"arena.entrance.arrows.bin"
		}
	]
}
