{
	"asset":{
		"generator":"Khronos glTF Blender I/O v4.1.63",
		"version":"2.0"
	},
	"scene":0,
	"scenes":[
		{
			"name":"Scene",
			"nodes":[
				3,
				4,
				5
			]
		}
	],
	"nodes":[
		{
			"mesh":0,
			"name":"base.display",
			"translation":[
				0,
				-0.10000000149011612,
				-0.3080044090747833
			]
		},
		{
			"mesh":1,
			"name":"base.seat",
			"scale":[
				0.23763178288936615,
				0.25,
				0.25
			],
			"translation":[
				0,
				0.09419628232717514,
				-0.3080044090747833
			]
		},
		{
			"mesh":2,
			"name":"base.steering",
			"rotation":[
				-0.3797139525413513,
				0,
				0,
				0.9251040816307068
			],
			"translation":[
				0,
				0.5512059926986694,
				0.3812086880207062
			]
		},
		{
			"children":[
				0,
				1,
				2
			],
			"mesh":3,
			"name":"base.basic-vehicle",
			"translation":[
				0,
				0.10000000149011612,
				0.3080044090747833
			]
		},
		{
			"mesh":4,
			"name":"basic-vehicle.neons.001",
			"translation":[
				0,
				0.10000000149011612,
				0.3080044090747833
			]
		},
		{
			"mesh":5,
			"name":"basic-vehicle.neons.002",
			"translation":[
				0,
				0.10000000149011612,
				0.3080044090747833
			]
		}
	],
	"materials":[
		{
			"name":"DCL.PiratesPack",
			"pbrMetallicRoughness":{
				"baseColorTexture":{
					"index":0
				},
				"metallicFactor":0,
				"roughnessFactor":0.5
			}
		},
		{
			"name":"DCL.AvatarWearables",
			"pbrMetallicRoughness":{
				"baseColorTexture":{
					"index":1
				},
				"metallicFactor":0,
				"roughnessFactor":0.5
			}
		},
		{
			"emissiveFactor":[
				1,
				1,
				1
			],
			"emissiveTexture":{
				"index":2
			},
			"name":"DCL.AvatarWearables_Emissive",
			"pbrMetallicRoughness":{
				"baseColorTexture":{
					"index":3
				},
				"metallicFactor":0,
				"roughnessFactor":0.5
			}
		}
	],
	"meshes":[
		{
			"name":"Cube.001",
			"primitives":[
				{
					"attributes":{
						"POSITION":0,
						"NORMAL":1,
						"TEXCOORD_0":2,
						"TANGENT":3
					},
					"indices":4,
					"material":0
				}
			]
		},
		{
			"name":"Cube.006",
			"primitives":[
				{
					"attributes":{
						"POSITION":5,
						"NORMAL":6,
						"TEXCOORD_0":7,
						"TANGENT":8
					},
					"indices":9,
					"material":1
				}
			]
		},
		{
			"name":"Cylinder.004",
			"primitives":[
				{
					"attributes":{
						"POSITION":10,
						"NORMAL":11,
						"TEXCOORD_0":12,
						"TANGENT":13
					},
					"indices":14,
					"material":1
				}
			]
		},
		{
			"name":"Cylinder",
			"primitives":[
				{
					"attributes":{
						"POSITION":15,
						"NORMAL":16,
						"TEXCOORD_0":17,
						"TANGENT":18
					},
					"indices":19,
					"material":1
				}
			]
		},
		{
			"name":"Cylinder.001",
			"primitives":[
				{
					"attributes":{
						"POSITION":20,
						"NORMAL":21,
						"TEXCOORD_0":22,
						"TANGENT":23
					},
					"indices":24,
					"material":2
				}
			]
		},
		{
			"name":"Cylinder.002",
			"primitives":[
				{
					"attributes":{
						"POSITION":25,
						"NORMAL":26,
						"TEXCOORD_0":27,
						"TANGENT":28
					},
					"indices":29,
					"material":2
				}
			]
		}
	],
	"textures":[
		{
			"sampler":0,
			"source":0
		},
		{
			"sampler":0,
			"source":1
		},
		{
			"sampler":0,
			"source":1
		},
		{
			"sampler":0,
			"source":1
		}
	],
	"images":[
		{
			"mimeType":"image/png",
			"name":"PiratesPack_TX",
			"uri":"tex/PiratesPack_TX.png"
		},
		{
			"mimeType":"image/png",
			"name":"AvatarWearables_TX",
			"uri":"tex/AvatarWearables_TX.png"
		}
	],
	"accessors":[
		{
			"bufferView":0,
			"componentType":5126,
			"count":72,
			"max":[
				0.2616315484046936,
				0.669396698474884,
				0.9085361957550049
			],
			"min":[
				-0.2616315484046936,
				0.5449914336204529,
				0.7239412069320679
			],
			"type":"VEC3"
		},
		{
			"bufferView":1,
			"componentType":5126,
			"count":72,
			"type":"VEC3"
		},
		{
			"bufferView":2,
			"componentType":5126,
			"count":72,
			"type":"VEC2"
		},
		{
			"bufferView":3,
			"componentType":5126,
			"count":72,
			"type":"VEC4"
		},
		{
			"bufferView":4,
			"componentType":5123,
			"count":174,
			"type":"SCALAR"
		},
		{
			"bufferView":5,
			"componentType":5126,
			"count":128,
			"max":[
				1,
				2.5212244987487793,
				1.1443722248077393
			],
			"min":[
				-1,
				0.02321493625640869,
				-0.7782164216041565
			],
			"type":"VEC3"
		},
		{
			"bufferView":6,
			"componentType":5126,
			"count":128,
			"type":"VEC3"
		},
		{
			"bufferView":7,
			"componentType":5126,
			"count":128,
			"type":"VEC2"
		},
		{
			"bufferView":8,
			"componentType":5126,
			"count":128,
			"type":"VEC4"
		},
		{
			"bufferView":9,
			"componentType":5123,
			"count":168,
			"type":"SCALAR"
		},
		{
			"bufferView":10,
			"componentType":5126,
			"count":164,
			"max":[
				0.1314631700515747,
				0.010681538842618465,
				0.1314631700515747
			],
			"min":[
				-0.1314631700515747,
				-0.4998655915260315,
				-0.1314631700515747
			],
			"type":"VEC3"
		},
		{
			"bufferView":11,
			"componentType":5126,
			"count":164,
			"type":"VEC3"
		},
		{
			"bufferView":12,
			"componentType":5126,
			"count":164,
			"type":"VEC2"
		},
		{
			"bufferView":13,
			"componentType":5126,
			"count":164,
			"type":"VEC4"
		},
		{
			"bufferView":14,
			"componentType":5123,
			"count":420,
			"type":"SCALAR"
		},
		{
			"bufferView":15,
			"componentType":5126,
			"count":510,
			"max":[
				1.0556529760360718,
				0.30000001192092896,
				1.0074948072433472
			],
			"min":[
				-1.0556529760360718,
				-0.10000000149011612,
				-0.9953455924987793
			],
			"type":"VEC3"
		},
		{
			"bufferView":16,
			"componentType":5126,
			"count":510,
			"type":"VEC3"
		},
		{
			"bufferView":17,
			"componentType":5126,
			"count":510,
			"type":"VEC2"
		},
		{
			"bufferView":18,
			"componentType":5126,
			"count":510,
			"type":"VEC4"
		},
		{
			"bufferView":19,
			"componentType":5123,
			"count":1272,
			"type":"SCALAR"
		},
		{
			"bufferView":20,
			"componentType":5126,
			"count":88,
			"max":[
				1.0244460105895996,
				0.30211737751960754,
				0.9810876846313477
			],
			"min":[
				-1.0244460105895996,
				0.09799174964427948,
				-0.9642150402069092
			],
			"type":"VEC3"
		},
		{
			"bufferView":21,
			"componentType":5126,
			"count":88,
			"type":"VEC3"
		},
		{
			"bufferView":22,
			"componentType":5126,
			"count":88,
			"type":"VEC2"
		},
		{
			"bufferView":23,
			"componentType":5126,
			"count":88,
			"type":"VEC4"
		},
		{
			"bufferView":24,
			"componentType":5123,
			"count":240,
			"type":"SCALAR"
		},
		{
			"bufferView":25,
			"componentType":5126,
			"count":92,
			"max":[
				1.0049999952316284,
				0.06939853727817535,
				0.8756358027458191
			],
			"min":[
				-1.0049999952316284,
				-0.040807802230119705,
				-0.9446926116943359
			],
			"type":"VEC3"
		},
		{
			"bufferView":26,
			"componentType":5126,
			"count":92,
			"type":"VEC3"
		},
		{
			"bufferView":27,
			"componentType":5126,
			"count":92,
			"type":"VEC2"
		},
		{
			"bufferView":28,
			"componentType":5126,
			"count":92,
			"type":"VEC4"
		},
		{
			"bufferView":29,
			"componentType":5123,
			"count":228,
			"type":"SCALAR"
		}
	],
	"bufferViews":[
		{
			"buffer":0,
			"byteLength":864,
			"byteOffset":0,
			"target":34962
		},
		{
			"buffer":0,
			"byteLength":864,
			"byteOffset":864,
			"target":34962
		},
		{
			"buffer":0,
			"byteLength":576,
			"byteOffset":1728,
			"target":34962
		},
		{
			"buffer":0,
			"byteLength":1152,
			"byteOffset":2304,
			"target":34962
		},
		{
			"buffer":0,
			"byteLength":348,
			"byteOffset":3456,
			"target":34963
		},
		{
			"buffer":0,
			"byteLength":1536,
			"byteOffset":3804,
			"target":34962
		},
		{
			"buffer":0,
			"byteLength":1536,
			"byteOffset":5340,
			"target":34962
		},
		{
			"buffer":0,
			"byteLength":1024,
			"byteOffset":6876,
			"target":34962
		},
		{
			"buffer":0,
			"byteLength":2048,
			"byteOffset":7900,
			"target":34962
		},
		{
			"buffer":0,
			"byteLength":336,
			"byteOffset":9948,
			"target":34963
		},
		{
			"buffer":0,
			"byteLength":1968,
			"byteOffset":10284,
			"target":34962
		},
		{
			"buffer":0,
			"byteLength":1968,
			"byteOffset":12252,
			"target":34962
		},
		{
			"buffer":0,
			"byteLength":1312,
			"byteOffset":14220,
			"target":34962
		},
		{
			"buffer":0,
			"byteLength":2624,
			"byteOffset":15532,
			"target":34962
		},
		{
			"buffer":0,
			"byteLength":840,
			"byteOffset":18156,
			"target":34963
		},
		{
			"buffer":0,
			"byteLength":6120,
			"byteOffset":18996,
			"target":34962
		},
		{
			"buffer":0,
			"byteLength":6120,
			"byteOffset":25116,
			"target":34962
		},
		{
			"buffer":0,
			"byteLength":4080,
			"byteOffset":31236,
			"target":34962
		},
		{
			"buffer":0,
			"byteLength":8160,
			"byteOffset":35316,
			"target":34962
		},
		{
			"buffer":0,
			"byteLength":2544,
			"byteOffset":43476,
			"target":34963
		},
		{
			"buffer":0,
			"byteLength":1056,
			"byteOffset":46020,
			"target":34962
		},
		{
			"buffer":0,
			"byteLength":1056,
			"byteOffset":47076,
			"target":34962
		},
		{
			"buffer":0,
			"byteLength":704,
			"byteOffset":48132,
			"target":34962
		},
		{
			"buffer":0,
			"byteLength":1408,
			"byteOffset":48836,
			"target":34962
		},
		{
			"buffer":0,
			"byteLength":480,
			"byteOffset":50244,
			"target":34963
		},
		{
			"buffer":0,
			"byteLength":1104,
			"byteOffset":50724,
			"target":34962
		},
		{
			"buffer":0,
			"byteLength":1104,
			"byteOffset":51828,
			"target":34962
		},
		{
			"buffer":0,
			"byteLength":736,
			"byteOffset":52932,
			"target":34962
		},
		{
			"buffer":0,
			"byteLength":1472,
			"byteOffset":53668,
			"target":34962
		},
		{
			"buffer":0,
			"byteLength":456,
			"byteOffset":55140,
			"target":34963
		}
	],
	"samplers":[
		{
			"magFilter":9729,
			"minFilter":9987
		}
	],
	"buffers":[
		{
			"byteLength":55596,
			"uri":"basic-vehicle.bin"
		}
	]
}
