{
	"asset":{
		"generator":"Khronos glTF Blender I/O v4.0.44",
		"version":"2.0"
	},
	"extensionsUsed":[
		"KHR_materials_emissive_strength"
	],
	"scene":0,
	"scenes":[
		{
			"name":"Scene",
			"nodes":[
				0
			]
		}
	],
	"nodes":[
		{
			"mesh":0,
			"name":"crown1",
			"scale":[
				0.30044353008270264,
				0.30044353008270264,
				0.30044353008270264
			]
		}
	],
	"materials":[
		{
			"name":"DCL.AvatarWearables",
			"pbrMetallicRoughness":{
				"baseColorTexture":{
					"index":0
				},
				"metallicFactor":0,
				"roughnessFactor":0.5
			}
		},
		{
			"emissiveFactor":[
				1,
				1,
				1
			],
			"emissiveTexture":{
				"index":1
			},
			"extensions":{
				"KHR_materials_emissive_strength":{
					"emissiveStrength":5
				}
			},
			"name":"DCL.AvatarWearables_Emissive",
			"pbrMetallicRoughness":{
				"baseColorTexture":{
					"index":2
				},
				"metallicFactor":0,
				"roughnessFactor":0.5
			}
		}
	],
	"meshes":[
		{
			"name":"Circle",
			"primitives":[
				{
					"attributes":{
						"POSITION":0,
						"NORMAL":1,
						"TEXCOORD_0":2
					},
					"indices":3,
					"material":0
				},
				{
					"attributes":{
						"POSITION":4,
						"NORMAL":5,
						"TEXCOORD_0":6
					},
					"indices":7,
					"material":1
				}
			]
		}
	],
	"textures":[
		{
			"sampler":0,
			"source":0
		},
		{
			"sampler":0,
			"source":0
		},
		{
			"sampler":0,
			"source":0
		}
	],
	"images":[
		{
			"mimeType":"image/jpeg",
			"name":"AvatarWearables_TX",
			"uri":"tex/AvatarWearables_TX.jpg"
		}
	],
	"accessors":[
		{
			"bufferView":0,
			"componentType":5126,
			"count":185,
			"max":[
				0.9308508038520813,
				8.11123275756836,
				1.2082605361938477
			],
			"min":[
				-0.9308508038520813,
				6.627061367034912,
				-0.6486114859580994
			],
			"type":"VEC3"
		},
		{
			"bufferView":1,
			"componentType":5126,
			"count":185,
			"type":"VEC3"
		},
		{
			"bufferView":2,
			"componentType":5126,
			"count":185,
			"type":"VEC2"
		},
		{
			"bufferView":3,
			"componentType":5123,
			"count":780,
			"type":"SCALAR"
		},
		{
			"bufferView":4,
			"componentType":5126,
			"count":100,
			"max":[
				0.9836490750312805,
				7.5789713859558105,
				1.282038688659668
			],
			"min":[
				-0.9836491346359253,
				7.183924198150635,
				-0.6116045713424683
			],
			"type":"VEC3"
		},
		{
			"bufferView":5,
			"componentType":5126,
			"count":100,
			"type":"VEC3"
		},
		{
			"bufferView":6,
			"componentType":5126,
			"count":100,
			"type":"VEC2"
		},
		{
			"bufferView":7,
			"componentType":5123,
			"count":150,
			"type":"SCALAR"
		}
	],
	"bufferViews":[
		{
			"buffer":0,
			"byteLength":2220,
			"byteOffset":0,
			"target":34962
		},
		{
			"buffer":0,
			"byteLength":2220,
			"byteOffset":2220,
			"target":34962
		},
		{
			"buffer":0,
			"byteLength":1480,
			"byteOffset":4440,
			"target":34962
		},
		{
			"buffer":0,
			"byteLength":1560,
			"byteOffset":5920,
			"target":34963
		},
		{
			"buffer":0,
			"byteLength":1200,
			"byteOffset":7480,
			"target":34962
		},
		{
			"buffer":0,
			"byteLength":1200,
			"byteOffset":8680,
			"target":34962
		},
		{
			"buffer":0,
			"byteLength":800,
			"byteOffset":9880,
			"target":34962
		},
		{
			"buffer":0,
			"byteLength":300,
			"byteOffset":10680,
			"target":34963
		}
	],
	"samplers":[
		{
			"magFilter":9729,
			"minFilter":9987
		}
	],
	"buffers":[
		{
			"byteLength":10980,
			"uri":"crown.1.gold.bin"
		}
	]
}
