{
	"asset":{
		"generator":"Khronos glTF Blender I/O v4.0.44",
		"version":"2.0"
	},
	"scene":0,
	"scenes":[
		{
			"name":"Scene",
			"nodes":[
				0
			]
		}
	],
	"nodes":[
		{
			"mesh":0,
			"name":"crown2",
			"scale":[
				0.30044353008270264,
				0.30044353008270264,
				0.30044353008270264
			],
			"translation":[
				0,
				1.9900189638137817,
				0.08492210507392883
			]
		}
	],
	"materials":[
		{
			"name":"DCL.AvatarWearables",
			"pbrMetallicRoughness":{
				"baseColorTexture":{
					"index":0
				},
				"metallicFactor":0,
				"roughnessFactor":0.5
			}
		}
	],
	"meshes":[
		{
			"name":"Circle.001",
			"primitives":[
				{
					"attributes":{
						"POSITION":0,
						"NORMAL":1,
						"TEXCOORD_0":2
					},
					"indices":3,
					"material":0
				}
			]
		}
	],
	"textures":[
		{
			"sampler":0,
			"source":0
		}
	],
	"images":[
		{
			"mimeType":"image/jpeg",
			"name":"AvatarWearables_TX",
			"uri":"tex/AvatarWearables_TX.jpg"
		}
	],
	"accessors":[
		{
			"bufferView":0,
			"componentType":5126,
			"count":170,
			"max":[
				0.9308508038520813,
				1.26461660861969,
				0.9160516858100891
			],
			"min":[
				-0.9308508038520813,
				-0.003300219774246216,
				-0.931267261505127
			],
			"type":"VEC3"
		},
		{
			"bufferView":1,
			"componentType":5126,
			"count":170,
			"type":"VEC3"
		},
		{
			"bufferView":2,
			"componentType":5126,
			"count":170,
			"type":"VEC2"
		},
		{
			"bufferView":3,
			"componentType":5123,
			"count":720,
			"type":"SCALAR"
		}
	],
	"bufferViews":[
		{
			"buffer":0,
			"byteLength":2040,
			"byteOffset":0,
			"target":34962
		},
		{
			"buffer":0,
			"byteLength":2040,
			"byteOffset":2040,
			"target":34962
		},
		{
			"buffer":0,
			"byteLength":1360,
			"byteOffset":4080,
			"target":34962
		},
		{
			"buffer":0,
			"byteLength":1440,
			"byteOffset":5440,
			"target":34963
		}
	],
	"samplers":[
		{
			"magFilter":9729,
			"minFilter":9987
		}
	],
	"buffers":[
		{
			"byteLength":6880,
			"uri":"crown.2.silver.bin"
		}
	]
}
