{
	"asset":{
		"generator":"Khronos glTF Blender I/O v4.1.63",
		"version":"2.0"
	},
	"scene":0,
	"scenes":[
		{
			"name":"Scene",
			"nodes":[
				0,
				1,
				2,
				3,
				4,
				5,
				6,
				7,
				8,
				9,
				10,
				11
			]
		}
	],
	"nodes":[
		{
			"mesh":0,
			"name":"speedster.aerofoil",
			"translation":[
				0,
				0.8610594272613525,
				-0.5459529757499695
			]
		},
		{
			"mesh":1,
			"name":"speedster.base",
			"translation":[
				0,
				0.10000000149011612,
				0.3080044090747833
			]
		},
		{
			"mesh":2,
			"name":"speedster.body",
			"translation":[
				0.4197472929954529,
				0.6323801279067993,
				-0.2818796634674072
			]
		},
		{
			"mesh":3,
			"name":"speedster.display"
		},
		{
			"mesh":4,
			"name":"speedster.hood",
			"translation":[
				0.4197472929954529,
				0.6323801279067993,
				-0.2818796634674072
			]
		},
		{
			"mesh":5,
			"name":"speedster.seat",
			"scale":[
				0.23763178288936615,
				0.25,
				0.25
			],
			"translation":[
				0,
				0.19419628381729126,
				0
			]
		},
		{
			"mesh":6,
			"name":"speedster.steering",
			"rotation":[
				-0.42156368494033813,
				0,
				0,
				0.9067988395690918
			],
			"translation":[
				0,
				0.6512060165405273,
				0.6892130970954895
			]
		},
		{
			"mesh":7,
			"name":"speedster.wings",
			"rotation":[
				-0.9807853102684021,
				-0.19509032368659973,
				0,
				2.767089029021008e-07
			],
			"translation":[
				0.6045219302177429,
				0.43470537662506104,
				0.18404556810855865
			]
		},
		{
			"mesh":8,
			"name":"speedster.neons.001",
			"translation":[
				0.4197472929954529,
				0.632023811340332,
				-0.2818796634674072
			]
		},
		{
			"mesh":9,
			"name":"speedster.neons.002",
			"translation":[
				0,
				0.10000000149011612,
				0.3080044090747833
			]
		},
		{
			"mesh":10,
			"name":"speedster.neons.003",
			"translation":[
				0,
				0.10000000149011612,
				0.3080044090747833
			]
		},
		{
			"mesh":11,
			"name":"speedster_collider",
			"scale":[
				0.47391262650489807,
				2.1473798751831055,
				0.47391262650489807
			],
			"translation":[
				0,
				1.0901366472244263,
				0.14928248524665833
			]
		}
	],
	"materials":[
		{
			"name":"DCL.AvatarWearables",
			"pbrMetallicRoughness":{
				"baseColorTexture":{
					"index":0
				},
				"metallicFactor":0,
				"roughnessFactor":0.5
			}
		},
		{
			"emissiveFactor":[
				1,
				1,
				1
			],
			"emissiveTexture":{
				"index":1
			},
			"name":"DCL.AvatarWearables_Emissive",
			"pbrMetallicRoughness":{
				"baseColorTexture":{
					"index":2
				},
				"metallicFactor":0,
				"roughnessFactor":0.5
			}
		},
		{
			"doubleSided":true,
			"name":"Hidden",
			"pbrMetallicRoughness":{}
		}
	],
	"meshes":[
		{
			"name":"Cylinder.006",
			"primitives":[
				{
					"attributes":{
						"POSITION":0,
						"NORMAL":1,
						"TEXCOORD_0":2,
						"TANGENT":3
					},
					"indices":4,
					"material":0
				},
				{
					"attributes":{
						"POSITION":5,
						"NORMAL":6,
						"TEXCOORD_0":7,
						"TANGENT":8
					},
					"indices":9,
					"material":1
				}
			]
		},
		{
			"name":"Cylinder",
			"primitives":[
				{
					"attributes":{
						"POSITION":10,
						"NORMAL":11,
						"TEXCOORD_0":12,
						"TANGENT":13
					},
					"indices":14,
					"material":0
				}
			]
		},
		{
			"name":"Cube.001",
			"primitives":[
				{
					"attributes":{
						"POSITION":15,
						"NORMAL":16,
						"TEXCOORD_0":17,
						"TANGENT":18
					},
					"indices":19,
					"material":0
				}
			]
		},
		{
			"name":"Cube.005",
			"primitives":[
				{
					"attributes":{
						"POSITION":20,
						"NORMAL":21,
						"TEXCOORD_0":22,
						"TANGENT":23
					},
					"indices":24,
					"material":1
				}
			]
		},
		{
			"name":"Cube.003",
			"primitives":[
				{
					"attributes":{
						"POSITION":25,
						"NORMAL":26,
						"TEXCOORD_0":27,
						"TANGENT":28
					},
					"indices":29,
					"material":0
				}
			]
		},
		{
			"name":"Cube.006",
			"primitives":[
				{
					"attributes":{
						"POSITION":30,
						"NORMAL":31,
						"TEXCOORD_0":32,
						"TANGENT":33
					},
					"indices":34,
					"material":0
				}
			]
		},
		{
			"name":"Cylinder.003",
			"primitives":[
				{
					"attributes":{
						"POSITION":35,
						"NORMAL":36,
						"TEXCOORD_0":37
					},
					"indices":38,
					"material":0
				}
			]
		},
		{
			"name":"Cylinder.008",
			"primitives":[
				{
					"attributes":{
						"POSITION":39,
						"NORMAL":40,
						"TEXCOORD_0":41,
						"TANGENT":42
					},
					"indices":43,
					"material":0
				},
				{
					"attributes":{
						"POSITION":44,
						"NORMAL":45,
						"TEXCOORD_0":46,
						"TANGENT":47
					},
					"indices":48,
					"material":1
				}
			]
		},
		{
			"name":"Cube.007",
			"primitives":[
				{
					"attributes":{
						"POSITION":49,
						"NORMAL":50,
						"TEXCOORD_0":51,
						"TANGENT":52
					},
					"indices":53,
					"material":1
				}
			]
		},
		{
			"name":"Cylinder.002",
			"primitives":[
				{
					"attributes":{
						"POSITION":54,
						"NORMAL":55,
						"TEXCOORD_0":56,
						"TANGENT":57
					},
					"indices":58,
					"material":1
				}
			]
		},
		{
			"name":"Cylinder.001",
			"primitives":[
				{
					"attributes":{
						"POSITION":59,
						"NORMAL":60,
						"TEXCOORD_0":61,
						"TANGENT":62
					},
					"indices":63,
					"material":1
				}
			]
		},
		{
			"name":"Cylinder.017",
			"primitives":[
				{
					"attributes":{
						"POSITION":64,
						"NORMAL":65,
						"TEXCOORD_0":66,
						"TANGENT":67
					},
					"indices":68,
					"material":2
				}
			]
		}
	],
	"textures":[
		{
			"sampler":0,
			"source":0
		},
		{
			"sampler":0,
			"source":0
		},
		{
			"sampler":0,
			"source":0
		}
	],
	"images":[
		{
			"mimeType":"image/png",
			"name":"AvatarWearables_TX",
			"uri":"tex/AvatarWearables_TX.png"
		}
	],
	"accessors":[
		{
			"bufferView":0,
			"componentType":5126,
			"count":168,
			"max":[
				0.6600561738014221,
				0.029751181602478027,
				0.17598116397857666
			],
			"min":[
				-0.6600561738014221,
				-0.09496504068374634,
				-0.15388250350952148
			],
			"type":"VEC3"
		},
		{
			"bufferView":1,
			"componentType":5126,
			"count":168,
			"type":"VEC3"
		},
		{
			"bufferView":2,
			"componentType":5126,
			"count":168,
			"type":"VEC2"
		},
		{
			"bufferView":3,
			"componentType":5126,
			"count":168,
			"type":"VEC4"
		},
		{
			"bufferView":4,
			"componentType":5123,
			"count":240,
			"type":"SCALAR"
		},
		{
			"bufferView":5,
			"componentType":5126,
			"count":56,
			"max":[
				0.6600561738014221,
				0.009880900382995605,
				0.17598116397857666
			],
			"min":[
				-0.6600561738014221,
				-0.007045447826385498,
				-0.15388250350952148
			],
			"type":"VEC3"
		},
		{
			"bufferView":6,
			"componentType":5126,
			"count":56,
			"type":"VEC3"
		},
		{
			"bufferView":7,
			"componentType":5126,
			"count":56,
			"type":"VEC2"
		},
		{
			"bufferView":8,
			"componentType":5126,
			"count":56,
			"type":"VEC4"
		},
		{
			"bufferView":9,
			"componentType":5123,
			"count":84,
			"type":"SCALAR"
		},
		{
			"bufferView":10,
			"componentType":5126,
			"count":598,
			"max":[
				1.0556529760360718,
				0.3333333432674408,
				1.0074948072433472
			],
			"min":[
				-1.0556529760360718,
				-0.10000000149011612,
				-0.9953455924987793
			],
			"type":"VEC3"
		},
		{
			"bufferView":11,
			"componentType":5126,
			"count":598,
			"type":"VEC3"
		},
		{
			"bufferView":12,
			"componentType":5126,
			"count":598,
			"type":"VEC2"
		},
		{
			"bufferView":13,
			"componentType":5126,
			"count":598,
			"type":"VEC4"
		},
		{
			"bufferView":14,
			"componentType":5123,
			"count":1272,
			"type":"SCALAR"
		},
		{
			"bufferView":15,
			"componentType":5126,
			"count":686,
			"max":[
				0.18708109855651855,
				0.13742083311080933,
				1.4786736965179443
			],
			"min":[
				-1.0265756845474243,
				-0.4323801100254059,
				-0.40414226055145264
			],
			"type":"VEC3"
		},
		{
			"bufferView":16,
			"componentType":5126,
			"count":686,
			"type":"VEC3"
		},
		{
			"bufferView":17,
			"componentType":5126,
			"count":686,
			"type":"VEC2"
		},
		{
			"bufferView":18,
			"componentType":5126,
			"count":686,
			"type":"VEC4"
		},
		{
			"bufferView":19,
			"componentType":5123,
			"count":1458,
			"type":"SCALAR"
		},
		{
			"bufferView":20,
			"componentType":5126,
			"count":92,
			"max":[
				0.2616315484046936,
				0.669396698474884,
				0.9129104614257812
			],
			"min":[
				-0.2616315484046936,
				0.5449914336204529,
				0.7239412069320679
			],
			"type":"VEC3"
		},
		{
			"bufferView":21,
			"componentType":5126,
			"count":92,
			"type":"VEC3"
		},
		{
			"bufferView":22,
			"componentType":5126,
			"count":92,
			"type":"VEC2"
		},
		{
			"bufferView":23,
			"componentType":5126,
			"count":92,
			"type":"VEC4"
		},
		{
			"bufferView":24,
			"componentType":5123,
			"count":192,
			"type":"SCALAR"
		},
		{
			"bufferView":25,
			"componentType":5126,
			"count":173,
			"max":[
				-0.08230972290039062,
				0.1918318271636963,
				1.381762146949768
			],
			"min":[
				-0.7571848630905151,
				-0.0780474841594696,
				0.8857938051223755
			],
			"type":"VEC3"
		},
		{
			"bufferView":26,
			"componentType":5126,
			"count":173,
			"type":"VEC3"
		},
		{
			"bufferView":27,
			"componentType":5126,
			"count":173,
			"type":"VEC2"
		},
		{
			"bufferView":28,
			"componentType":5126,
			"count":173,
			"type":"VEC4"
		},
		{
			"bufferView":29,
			"componentType":5123,
			"count":393,
			"type":"SCALAR"
		},
		{
			"bufferView":30,
			"componentType":5126,
			"count":134,
			"max":[
				1,
				2.5212244987487793,
				1.1443722248077393
			],
			"min":[
				-1,
				0.02321481704711914,
				-0.7782164216041565
			],
			"type":"VEC3"
		},
		{
			"bufferView":31,
			"componentType":5126,
			"count":134,
			"type":"VEC3"
		},
		{
			"bufferView":32,
			"componentType":5126,
			"count":134,
			"type":"VEC2"
		},
		{
			"bufferView":33,
			"componentType":5126,
			"count":134,
			"type":"VEC4"
		},
		{
			"bufferView":34,
			"componentType":5123,
			"count":186,
			"type":"SCALAR"
		},
		{
			"bufferView":35,
			"componentType":5126,
			"count":142,
			"max":[
				0.10000000149011612,
				0.008572390303015709,
				0.10000000149011612
			],
			"min":[
				-0.10000000149011612,
				-0.4998655915260315,
				-0.10000000149011612
			],
			"type":"VEC3"
		},
		{
			"bufferView":36,
			"componentType":5126,
			"count":142,
			"type":"VEC3"
		},
		{
			"bufferView":37,
			"componentType":5126,
			"count":142,
			"type":"VEC2"
		},
		{
			"bufferView":38,
			"componentType":5123,
			"count":456,
			"type":"SCALAR"
		},
		{
			"bufferView":39,
			"componentType":5126,
			"count":136,
			"max":[
				0.25631582736968994,
				0.04104408621788025,
				0.14679104089736938
			],
			"min":[
				-1.311234474182129,
				-0.6585860252380371,
				-0.1830729842185974
			],
			"type":"VEC3"
		},
		{
			"bufferView":40,
			"componentType":5126,
			"count":136,
			"type":"VEC3"
		},
		{
			"bufferView":41,
			"componentType":5126,
			"count":136,
			"type":"VEC2"
		},
		{
			"bufferView":42,
			"componentType":5126,
			"count":136,
			"type":"VEC4"
		},
		{
			"bufferView":43,
			"componentType":5123,
			"count":192,
			"type":"SCALAR"
		},
		{
			"bufferView":44,
			"componentType":5126,
			"count":56,
			"max":[
				0.25631582736968994,
				0.014329979196190834,
				0.14679104089736938
			],
			"min":[
				-1.308286190032959,
				-0.6540461778640747,
				-0.1830729842185974
			],
			"type":"VEC3"
		},
		{
			"bufferView":45,
			"componentType":5126,
			"count":56,
			"type":"VEC3"
		},
		{
			"bufferView":46,
			"componentType":5126,
			"count":56,
			"type":"VEC2"
		},
		{
			"bufferView":47,
			"componentType":5126,
			"count":56,
			"type":"VEC4"
		},
		{
			"bufferView":48,
			"componentType":5123,
			"count":84,
			"type":"SCALAR"
		},
		{
			"bufferView":49,
			"componentType":5126,
			"count":64,
			"max":[
				0.18957825005054474,
				0.03574058786034584,
				1.4811667203903198
			],
			"min":[
				-1.029072880744934,
				-0.2115909457206726,
				-0.40414226055145264
			],
			"type":"VEC3"
		},
		{
			"bufferView":50,
			"componentType":5126,
			"count":64,
			"type":"VEC3"
		},
		{
			"bufferView":51,
			"componentType":5126,
			"count":64,
			"type":"VEC2"
		},
		{
			"bufferView":52,
			"componentType":5126,
			"count":64,
			"type":"VEC4"
		},
		{
			"bufferView":53,
			"componentType":5123,
			"count":156,
			"type":"SCALAR"
		},
		{
			"bufferView":54,
			"componentType":5126,
			"count":92,
			"max":[
				1.0049999952316284,
				0.06939853727817535,
				0.8756358027458191
			],
			"min":[
				-1.0049999952316284,
				-0.040807802230119705,
				-0.9446926116943359
			],
			"type":"VEC3"
		},
		{
			"bufferView":55,
			"componentType":5126,
			"count":92,
			"type":"VEC3"
		},
		{
			"bufferView":56,
			"componentType":5126,
			"count":92,
			"type":"VEC2"
		},
		{
			"bufferView":57,
			"componentType":5126,
			"count":92,
			"type":"VEC4"
		},
		{
			"bufferView":58,
			"componentType":5123,
			"count":228,
			"type":"SCALAR"
		},
		{
			"bufferView":59,
			"componentType":5126,
			"count":88,
			"max":[
				1.0244460105895996,
				0.30211737751960754,
				0.9810876846313477
			],
			"min":[
				-1.0244460105895996,
				0.09799174964427948,
				-0.9642150402069092
			],
			"type":"VEC3"
		},
		{
			"bufferView":60,
			"componentType":5126,
			"count":88,
			"type":"VEC3"
		},
		{
			"bufferView":61,
			"componentType":5126,
			"count":88,
			"type":"VEC2"
		},
		{
			"bufferView":62,
			"componentType":5126,
			"count":88,
			"type":"VEC4"
		},
		{
			"bufferView":63,
			"componentType":5123,
			"count":240,
			"type":"SCALAR"
		},
		{
			"bufferView":64,
			"componentType":5126,
			"count":20,
			"max":[
				0.9841842651367188,
				0.8864824771881104,
				0.9696779251098633
			],
			"min":[
				-0.9841842651367188,
				-0.46568381786346436,
				-0.315000057220459
			],
			"type":"VEC3"
		},
		{
			"bufferView":65,
			"componentType":5126,
			"count":20,
			"type":"VEC3"
		},
		{
			"bufferView":66,
			"componentType":5126,
			"count":20,
			"type":"VEC2"
		},
		{
			"bufferView":67,
			"componentType":5126,
			"count":20,
			"type":"VEC4"
		},
		{
			"bufferView":68,
			"componentType":5123,
			"count":30,
			"type":"SCALAR"
		}
	],
	"bufferViews":[
		{
			"buffer":0,
			"byteLength":2016,
			"byteOffset":0,
			"target":34962
		},
		{
			"buffer":0,
			"byteLength":2016,
			"byteOffset":2016,
			"target":34962
		},
		{
			"buffer":0,
			"byteLength":1344,
			"byteOffset":4032,
			"target":34962
		},
		{
			"buffer":0,
			"byteLength":2688,
			"byteOffset":5376,
			"target":34962
		},
		{
			"buffer":0,
			"byteLength":480,
			"byteOffset":8064,
			"target":34963
		},
		{
			"buffer":0,
			"byteLength":672,
			"byteOffset":8544,
			"target":34962
		},
		{
			"buffer":0,
			"byteLength":672,
			"byteOffset":9216,
			"target":34962
		},
		{
			"buffer":0,
			"byteLength":448,
			"byteOffset":9888,
			"target":34962
		},
		{
			"buffer":0,
			"byteLength":896,
			"byteOffset":10336,
			"target":34962
		},
		{
			"buffer":0,
			"byteLength":168,
			"byteOffset":11232,
			"target":34963
		},
		{
			"buffer":0,
			"byteLength":7176,
			"byteOffset":11400,
			"target":34962
		},
		{
			"buffer":0,
			"byteLength":7176,
			"byteOffset":18576,
			"target":34962
		},
		{
			"buffer":0,
			"byteLength":4784,
			"byteOffset":25752,
			"target":34962
		},
		{
			"buffer":0,
			"byteLength":9568,
			"byteOffset":30536,
			"target":34962
		},
		{
			"buffer":0,
			"byteLength":2544,
			"byteOffset":40104,
			"target":34963
		},
		{
			"buffer":0,
			"byteLength":8232,
			"byteOffset":42648,
			"target":34962
		},
		{
			"buffer":0,
			"byteLength":8232,
			"byteOffset":50880,
			"target":34962
		},
		{
			"buffer":0,
			"byteLength":5488,
			"byteOffset":59112,
			"target":34962
		},
		{
			"buffer":0,
			"byteLength":10976,
			"byteOffset":64600,
			"target":34962
		},
		{
			"buffer":0,
			"byteLength":2916,
			"byteOffset":75576,
			"target":34963
		},
		{
			"buffer":0,
			"byteLength":1104,
			"byteOffset":78492,
			"target":34962
		},
		{
			"buffer":0,
			"byteLength":1104,
			"byteOffset":79596,
			"target":34962
		},
		{
			"buffer":0,
			"byteLength":736,
			"byteOffset":80700,
			"target":34962
		},
		{
			"buffer":0,
			"byteLength":1472,
			"byteOffset":81436,
			"target":34962
		},
		{
			"buffer":0,
			"byteLength":384,
			"byteOffset":82908,
			"target":34963
		},
		{
			"buffer":0,
			"byteLength":2076,
			"byteOffset":83292,
			"target":34962
		},
		{
			"buffer":0,
			"byteLength":2076,
			"byteOffset":85368,
			"target":34962
		},
		{
			"buffer":0,
			"byteLength":1384,
			"byteOffset":87444,
			"target":34962
		},
		{
			"buffer":0,
			"byteLength":2768,
			"byteOffset":88828,
			"target":34962
		},
		{
			"buffer":0,
			"byteLength":786,
			"byteOffset":91596,
			"target":34963
		},
		{
			"buffer":0,
			"byteLength":1608,
			"byteOffset":92384,
			"target":34962
		},
		{
			"buffer":0,
			"byteLength":1608,
			"byteOffset":93992,
			"target":34962
		},
		{
			"buffer":0,
			"byteLength":1072,
			"byteOffset":95600,
			"target":34962
		},
		{
			"buffer":0,
			"byteLength":2144,
			"byteOffset":96672,
			"target":34962
		},
		{
			"buffer":0,
			"byteLength":372,
			"byteOffset":98816,
			"target":34963
		},
		{
			"buffer":0,
			"byteLength":1704,
			"byteOffset":99188,
			"target":34962
		},
		{
			"buffer":0,
			"byteLength":1704,
			"byteOffset":100892,
			"target":34962
		},
		{
			"buffer":0,
			"byteLength":1136,
			"byteOffset":102596,
			"target":34962
		},
		{
			"buffer":0,
			"byteLength":912,
			"byteOffset":103732,
			"target":34963
		},
		{
			"buffer":0,
			"byteLength":1632,
			"byteOffset":104644,
			"target":34962
		},
		{
			"buffer":0,
			"byteLength":1632,
			"byteOffset":106276,
			"target":34962
		},
		{
			"buffer":0,
			"byteLength":1088,
			"byteOffset":107908,
			"target":34962
		},
		{
			"buffer":0,
			"byteLength":2176,
			"byteOffset":108996,
			"target":34962
		},
		{
			"buffer":0,
			"byteLength":384,
			"byteOffset":111172,
			"target":34963
		},
		{
			"buffer":0,
			"byteLength":672,
			"byteOffset":111556,
			"target":34962
		},
		{
			"buffer":0,
			"byteLength":672,
			"byteOffset":112228,
			"target":34962
		},
		{
			"buffer":0,
			"byteLength":448,
			"byteOffset":112900,
			"target":34962
		},
		{
			"buffer":0,
			"byteLength":896,
			"byteOffset":113348,
			"target":34962
		},
		{
			"buffer":0,
			"byteLength":168,
			"byteOffset":114244,
			"target":34963
		},
		{
			"buffer":0,
			"byteLength":768,
			"byteOffset":114412,
			"target":34962
		},
		{
			"buffer":0,
			"byteLength":768,
			"byteOffset":115180,
			"target":34962
		},
		{
			"buffer":0,
			"byteLength":512,
			"byteOffset":115948,
			"target":34962
		},
		{
			"buffer":0,
			"byteLength":1024,
			"byteOffset":116460,
			"target":34962
		},
		{
			"buffer":0,
			"byteLength":312,
			"byteOffset":117484,
			"target":34963
		},
		{
			"buffer":0,
			"byteLength":1104,
			"byteOffset":117796,
			"target":34962
		},
		{
			"buffer":0,
			"byteLength":1104,
			"byteOffset":118900,
			"target":34962
		},
		{
			"buffer":0,
			"byteLength":736,
			"byteOffset":120004,
			"target":34962
		},
		{
			"buffer":0,
			"byteLength":1472,
			"byteOffset":120740,
			"target":34962
		},
		{
			"buffer":0,
			"byteLength":456,
			"byteOffset":122212,
			"target":34963
		},
		{
			"buffer":0,
			"byteLength":1056,
			"byteOffset":122668,
			"target":34962
		},
		{
			"buffer":0,
			"byteLength":1056,
			"byteOffset":123724,
			"target":34962
		},
		{
			"buffer":0,
			"byteLength":704,
			"byteOffset":124780,
			"target":34962
		},
		{
			"buffer":0,
			"byteLength":1408,
			"byteOffset":125484,
			"target":34962
		},
		{
			"buffer":0,
			"byteLength":480,
			"byteOffset":126892,
			"target":34963
		},
		{
			"buffer":0,
			"byteLength":240,
			"byteOffset":127372,
			"target":34962
		},
		{
			"buffer":0,
			"byteLength":240,
			"byteOffset":127612,
			"target":34962
		},
		{
			"buffer":0,
			"byteLength":160,
			"byteOffset":127852,
			"target":34962
		},
		{
			"buffer":0,
			"byteLength":320,
			"byteOffset":128012,
			"target":34962
		},
		{
			"buffer":0,
			"byteLength":60,
			"byteOffset":128332,
			"target":34963
		}
	],
	"samplers":[
		{
			"magFilter":9729,
			"minFilter":9987
		}
	],
	"buffers":[
		{
			"byteLength":128392,
			"uri":"speedster.bin"
		}
	]
}
