{
	"asset":{
		"generator":"Khronos glTF Blender I/O v4.1.63",
		"version":"2.0"
	},
	"extensionsUsed":[
		"KHR_materials_emissive_strength"
	],
	"scene":0,
	"scenes":[
		{
			"name":"Scene",
			"nodes":[
				3
			]
		}
	],
	"nodes":[
		{
			"name":"Bone.001",
			"rotation":[
				0.7071067094802856,
				-1.994959717421807e-07,
				-1.994959717421807e-07,
				0.7071068286895752
			],
			"scale":[
				1,
				0.9999999403953552,
				0.9999999403953552
			],
			"translation":[
				-1.1140466682491024e-07,
				0.3633701801300049,
				1.1521944999694824
			]
		},
		{
			"children":[
				0
			],
			"name":"Bone"
		},
		{
			"mesh":0,
			"name":"ladybugCart",
			"skin":0
		},
		{
			"children":[
				2,
				1
			],
			"name":"ladybugArm"
		}
	],
	"animations":[
		{
			"channels":[
				{
					"sampler":0,
					"target":{
						"node":1,
						"path":"translation"
					}
				},
				{
					"sampler":1,
					"target":{
						"node":1,
						"path":"rotation"
					}
				},
				{
					"sampler":2,
					"target":{
						"node":1,
						"path":"scale"
					}
				},
				{
					"sampler":3,
					"target":{
						"node":0,
						"path":"translation"
					}
				},
				{
					"sampler":4,
					"target":{
						"node":0,
						"path":"rotation"
					}
				},
				{
					"sampler":5,
					"target":{
						"node":0,
						"path":"scale"
					}
				}
			],
			"name":"bugArmAction",
			"samplers":[
				{
					"input":19,
					"interpolation":"STEP",
					"output":20
				},
				{
					"input":19,
					"interpolation":"STEP",
					"output":21
				},
				{
					"input":19,
					"interpolation":"STEP",
					"output":22
				},
				{
					"input":19,
					"interpolation":"STEP",
					"output":23
				},
				{
					"input":24,
					"interpolation":"LINEAR",
					"output":25
				},
				{
					"input":19,
					"interpolation":"STEP",
					"output":26
				}
			]
		},
		{
			"channels":[
				{
					"sampler":0,
					"target":{
						"node":1,
						"path":"translation"
					}
				},
				{
					"sampler":1,
					"target":{
						"node":1,
						"path":"rotation"
					}
				},
				{
					"sampler":2,
					"target":{
						"node":1,
						"path":"scale"
					}
				},
				{
					"sampler":3,
					"target":{
						"node":0,
						"path":"translation"
					}
				},
				{
					"sampler":4,
					"target":{
						"node":0,
						"path":"rotation"
					}
				},
				{
					"sampler":5,
					"target":{
						"node":0,
						"path":"scale"
					}
				}
			],
			"name":"Bumper_Hit_React_Armature.001",
			"samplers":[
				{
					"input":19,
					"interpolation":"STEP",
					"output":27
				},
				{
					"input":19,
					"interpolation":"STEP",
					"output":28
				},
				{
					"input":19,
					"interpolation":"STEP",
					"output":29
				},
				{
					"input":19,
					"interpolation":"STEP",
					"output":30
				},
				{
					"input":19,
					"interpolation":"STEP",
					"output":31
				},
				{
					"input":19,
					"interpolation":"STEP",
					"output":32
				}
			]
		},
		{
			"channels":[
				{
					"sampler":0,
					"target":{
						"node":1,
						"path":"translation"
					}
				},
				{
					"sampler":1,
					"target":{
						"node":1,
						"path":"rotation"
					}
				},
				{
					"sampler":2,
					"target":{
						"node":1,
						"path":"scale"
					}
				},
				{
					"sampler":3,
					"target":{
						"node":0,
						"path":"translation"
					}
				},
				{
					"sampler":4,
					"target":{
						"node":0,
						"path":"rotation"
					}
				},
				{
					"sampler":5,
					"target":{
						"node":0,
						"path":"scale"
					}
				}
			],
			"name":"dinoArmAction",
			"samplers":[
				{
					"input":19,
					"interpolation":"STEP",
					"output":33
				},
				{
					"input":19,
					"interpolation":"STEP",
					"output":34
				},
				{
					"input":19,
					"interpolation":"STEP",
					"output":35
				},
				{
					"input":19,
					"interpolation":"STEP",
					"output":36
				},
				{
					"input":24,
					"interpolation":"LINEAR",
					"output":37
				},
				{
					"input":19,
					"interpolation":"STEP",
					"output":38
				}
			]
		},
		{
			"channels":[
				{
					"sampler":0,
					"target":{
						"node":1,
						"path":"translation"
					}
				},
				{
					"sampler":1,
					"target":{
						"node":1,
						"path":"rotation"
					}
				},
				{
					"sampler":2,
					"target":{
						"node":1,
						"path":"scale"
					}
				},
				{
					"sampler":3,
					"target":{
						"node":0,
						"path":"translation"
					}
				},
				{
					"sampler":4,
					"target":{
						"node":0,
						"path":"rotation"
					}
				},
				{
					"sampler":5,
					"target":{
						"node":0,
						"path":"scale"
					}
				}
			],
			"name":"heartArmAction",
			"samplers":[
				{
					"input":19,
					"interpolation":"STEP",
					"output":39
				},
				{
					"input":19,
					"interpolation":"STEP",
					"output":40
				},
				{
					"input":19,
					"interpolation":"STEP",
					"output":41
				},
				{
					"input":19,
					"interpolation":"STEP",
					"output":42
				},
				{
					"input":24,
					"interpolation":"LINEAR",
					"output":43
				},
				{
					"input":19,
					"interpolation":"STEP",
					"output":44
				}
			]
		},
		{
			"channels":[
				{
					"sampler":0,
					"target":{
						"node":1,
						"path":"translation"
					}
				},
				{
					"sampler":1,
					"target":{
						"node":1,
						"path":"rotation"
					}
				},
				{
					"sampler":2,
					"target":{
						"node":1,
						"path":"scale"
					}
				},
				{
					"sampler":3,
					"target":{
						"node":0,
						"path":"translation"
					}
				},
				{
					"sampler":4,
					"target":{
						"node":0,
						"path":"rotation"
					}
				},
				{
					"sampler":5,
					"target":{
						"node":0,
						"path":"scale"
					}
				}
			],
			"name":"ladybugArmAction",
			"samplers":[
				{
					"input":19,
					"interpolation":"STEP",
					"output":45
				},
				{
					"input":19,
					"interpolation":"STEP",
					"output":46
				},
				{
					"input":19,
					"interpolation":"STEP",
					"output":47
				},
				{
					"input":24,
					"interpolation":"LINEAR",
					"output":48
				},
				{
					"input":19,
					"interpolation":"STEP",
					"output":49
				},
				{
					"input":19,
					"interpolation":"STEP",
					"output":50
				}
			]
		},
		{
			"channels":[
				{
					"sampler":0,
					"target":{
						"node":1,
						"path":"translation"
					}
				},
				{
					"sampler":1,
					"target":{
						"node":1,
						"path":"rotation"
					}
				},
				{
					"sampler":2,
					"target":{
						"node":1,
						"path":"scale"
					}
				},
				{
					"sampler":3,
					"target":{
						"node":0,
						"path":"translation"
					}
				},
				{
					"sampler":4,
					"target":{
						"node":0,
						"path":"rotation"
					}
				},
				{
					"sampler":5,
					"target":{
						"node":0,
						"path":"scale"
					}
				}
			],
			"name":"turtleArmAction",
			"samplers":[
				{
					"input":19,
					"interpolation":"STEP",
					"output":51
				},
				{
					"input":19,
					"interpolation":"STEP",
					"output":52
				},
				{
					"input":19,
					"interpolation":"STEP",
					"output":53
				},
				{
					"input":24,
					"interpolation":"LINEAR",
					"output":54
				},
				{
					"input":19,
					"interpolation":"STEP",
					"output":55
				},
				{
					"input":19,
					"interpolation":"STEP",
					"output":56
				}
			]
		}
	],
	"materials":[
		{
			"doubleSided":true,
			"name":"ladybug",
			"pbrMetallicRoughness":{
				"metallicFactor":0,
				"roughnessFactor":0.5
			}
		},
		{
			"emissiveFactor":[
				1,
				1,
				1
			],
			"emissiveTexture":{
				"index":0
			},
			"extensions":{
				"KHR_materials_emissive_strength":{
					"emissiveStrength":5
				}
			},
			"name":"DCL.AvatarWearables_Emissive",
			"pbrMetallicRoughness":{
				"baseColorTexture":{
					"index":1
				},
				"metallicFactor":0,
				"roughnessFactor":0.5
			}
		},
		{
			"name":"DCL.AvatarWearables",
			"pbrMetallicRoughness":{
				"baseColorTexture":{
					"index":2
				},
				"metallicFactor":0,
				"roughnessFactor":0.5
			}
		}
	],
	"meshes":[
		{
			"name":"Sphere.021",
			"primitives":[
				{
					"attributes":{
						"POSITION":0,
						"NORMAL":1,
						"TEXCOORD_0":2,
						"JOINTS_0":3,
						"WEIGHTS_0":4
					},
					"indices":5,
					"material":0
				},
				{
					"attributes":{
						"POSITION":6,
						"NORMAL":7,
						"TEXCOORD_0":8,
						"JOINTS_0":9,
						"WEIGHTS_0":10
					},
					"indices":11,
					"material":1
				},
				{
					"attributes":{
						"POSITION":12,
						"NORMAL":13,
						"TEXCOORD_0":14,
						"JOINTS_0":15,
						"WEIGHTS_0":16
					},
					"indices":17,
					"material":2
				}
			]
		}
	],
	"textures":[
		{
			"sampler":0,
			"source":0
		},
		{
			"sampler":0,
			"source":0
		},
		{
			"sampler":0,
			"source":0
		}
	],
	"images":[
		{
			"mimeType":"image/png",
			"name":"AvatarWearables_TX",
			"uri":"tex/AvatarWearables_TX.png"
		}
	],
	"skins":[
		{
			"inverseBindMatrices":18,
			"joints":[
				1,
				0
			],
			"name":"ladybugArm"
		}
	],
	"accessors":[
		{
			"bufferView":0,
			"componentType":5126,
			"count":300,
			"max":[
				0.9661568403244019,
				0.9733403325080872,
				1.4642465114593506
			],
			"min":[
				-0.9661567807197571,
				0.14650480449199677,
				-0.6539354920387268
			],
			"type":"VEC3"
		},
		{
			"bufferView":1,
			"componentType":5126,
			"count":300,
			"type":"VEC3"
		},
		{
			"bufferView":2,
			"componentType":5126,
			"count":300,
			"type":"VEC2"
		},
		{
			"bufferView":3,
			"componentType":5121,
			"count":300,
			"type":"VEC4"
		},
		{
			"bufferView":4,
			"componentType":5126,
			"count":300,
			"type":"VEC4"
		},
		{
			"bufferView":5,
			"componentType":5123,
			"count":1074,
			"type":"SCALAR"
		},
		{
			"bufferView":6,
			"componentType":5126,
			"count":539,
			"max":[
				1.02444589138031,
				0.981583297252655,
				1.4956556558609009
			],
			"min":[
				-1.02444589138031,
				0.05919225513935089,
				-0.6562106609344482
			],
			"type":"VEC3"
		},
		{
			"bufferView":7,
			"componentType":5126,
			"count":539,
			"type":"VEC3"
		},
		{
			"bufferView":8,
			"componentType":5126,
			"count":539,
			"type":"VEC2"
		},
		{
			"bufferView":9,
			"componentType":5121,
			"count":539,
			"type":"VEC4"
		},
		{
			"bufferView":10,
			"componentType":5126,
			"count":539,
			"type":"VEC4"
		},
		{
			"bufferView":11,
			"componentType":5123,
			"count":1860,
			"type":"SCALAR"
		},
		{
			"bufferView":12,
			"componentType":5126,
			"count":879,
			"max":[
				1.0556528568267822,
				0.8245024681091309,
				1.3154990673065186
			],
			"min":[
				-1.0556528568267822,
				5.960464477539063e-08,
				-0.6873411536216736
			],
			"type":"VEC3"
		},
		{
			"bufferView":13,
			"componentType":5126,
			"count":879,
			"type":"VEC3"
		},
		{
			"bufferView":14,
			"componentType":5126,
			"count":879,
			"type":"VEC2"
		},
		{
			"bufferView":15,
			"componentType":5121,
			"count":879,
			"type":"VEC4"
		},
		{
			"bufferView":16,
			"componentType":5126,
			"count":879,
			"type":"VEC4"
		},
		{
			"bufferView":17,
			"componentType":5123,
			"count":2328,
			"type":"SCALAR"
		},
		{
			"bufferView":18,
			"componentType":5126,
			"count":2,
			"type":"MAT4"
		},
		{
			"bufferView":19,
			"componentType":5126,
			"count":2,
			"max":[
				0.5
			],
			"min":[
				0
			],
			"type":"SCALAR"
		},
		{
			"bufferView":20,
			"componentType":5126,
			"count":2,
			"type":"VEC3"
		},
		{
			"bufferView":21,
			"componentType":5126,
			"count":2,
			"type":"VEC4"
		},
		{
			"bufferView":22,
			"componentType":5126,
			"count":2,
			"type":"VEC3"
		},
		{
			"bufferView":23,
			"componentType":5126,
			"count":2,
			"type":"VEC3"
		},
		{
			"bufferView":24,
			"componentType":5126,
			"count":31,
			"max":[
				0.5
			],
			"min":[
				0
			],
			"type":"SCALAR"
		},
		{
			"bufferView":25,
			"componentType":5126,
			"count":31,
			"type":"VEC4"
		},
		{
			"bufferView":26,
			"componentType":5126,
			"count":2,
			"type":"VEC3"
		},
		{
			"bufferView":27,
			"componentType":5126,
			"count":2,
			"type":"VEC3"
		},
		{
			"bufferView":28,
			"componentType":5126,
			"count":2,
			"type":"VEC4"
		},
		{
			"bufferView":29,
			"componentType":5126,
			"count":2,
			"type":"VEC3"
		},
		{
			"bufferView":30,
			"componentType":5126,
			"count":2,
			"type":"VEC3"
		},
		{
			"bufferView":31,
			"componentType":5126,
			"count":2,
			"type":"VEC4"
		},
		{
			"bufferView":32,
			"componentType":5126,
			"count":2,
			"type":"VEC3"
		},
		{
			"bufferView":33,
			"componentType":5126,
			"count":2,
			"type":"VEC3"
		},
		{
			"bufferView":34,
			"componentType":5126,
			"count":2,
			"type":"VEC4"
		},
		{
			"bufferView":35,
			"componentType":5126,
			"count":2,
			"type":"VEC3"
		},
		{
			"bufferView":36,
			"componentType":5126,
			"count":2,
			"type":"VEC3"
		},
		{
			"bufferView":37,
			"componentType":5126,
			"count":31,
			"type":"VEC4"
		},
		{
			"bufferView":38,
			"componentType":5126,
			"count":2,
			"type":"VEC3"
		},
		{
			"bufferView":39,
			"componentType":5126,
			"count":2,
			"type":"VEC3"
		},
		{
			"bufferView":40,
			"componentType":5126,
			"count":2,
			"type":"VEC4"
		},
		{
			"bufferView":41,
			"componentType":5126,
			"count":2,
			"type":"VEC3"
		},
		{
			"bufferView":42,
			"componentType":5126,
			"count":2,
			"type":"VEC3"
		},
		{
			"bufferView":43,
			"componentType":5126,
			"count":31,
			"type":"VEC4"
		},
		{
			"bufferView":44,
			"componentType":5126,
			"count":2,
			"type":"VEC3"
		},
		{
			"bufferView":45,
			"componentType":5126,
			"count":2,
			"type":"VEC3"
		},
		{
			"bufferView":46,
			"componentType":5126,
			"count":2,
			"type":"VEC4"
		},
		{
			"bufferView":47,
			"componentType":5126,
			"count":2,
			"type":"VEC3"
		},
		{
			"bufferView":48,
			"componentType":5126,
			"count":31,
			"type":"VEC3"
		},
		{
			"bufferView":49,
			"componentType":5126,
			"count":2,
			"type":"VEC4"
		},
		{
			"bufferView":50,
			"componentType":5126,
			"count":2,
			"type":"VEC3"
		},
		{
			"bufferView":51,
			"componentType":5126,
			"count":2,
			"type":"VEC3"
		},
		{
			"bufferView":52,
			"componentType":5126,
			"count":2,
			"type":"VEC4"
		},
		{
			"bufferView":53,
			"componentType":5126,
			"count":2,
			"type":"VEC3"
		},
		{
			"bufferView":54,
			"componentType":5126,
			"count":31,
			"type":"VEC3"
		},
		{
			"bufferView":55,
			"componentType":5126,
			"count":2,
			"type":"VEC4"
		},
		{
			"bufferView":56,
			"componentType":5126,
			"count":2,
			"type":"VEC3"
		}
	],
	"bufferViews":[
		{
			"buffer":0,
			"byteLength":3600,
			"byteOffset":0,
			"target":34962
		},
		{
			"buffer":0,
			"byteLength":3600,
			"byteOffset":3600,
			"target":34962
		},
		{
			"buffer":0,
			"byteLength":2400,
			"byteOffset":7200,
			"target":34962
		},
		{
			"buffer":0,
			"byteLength":1200,
			"byteOffset":9600,
			"target":34962
		},
		{
			"buffer":0,
			"byteLength":4800,
			"byteOffset":10800,
			"target":34962
		},
		{
			"buffer":0,
			"byteLength":2148,
			"byteOffset":15600,
			"target":34963
		},
		{
			"buffer":0,
			"byteLength":6468,
			"byteOffset":17748,
			"target":34962
		},
		{
			"buffer":0,
			"byteLength":6468,
			"byteOffset":24216,
			"target":34962
		},
		{
			"buffer":0,
			"byteLength":4312,
			"byteOffset":30684,
			"target":34962
		},
		{
			"buffer":0,
			"byteLength":2156,
			"byteOffset":34996,
			"target":34962
		},
		{
			"buffer":0,
			"byteLength":8624,
			"byteOffset":37152,
			"target":34962
		},
		{
			"buffer":0,
			"byteLength":3720,
			"byteOffset":45776,
			"target":34963
		},
		{
			"buffer":0,
			"byteLength":10548,
			"byteOffset":49496,
			"target":34962
		},
		{
			"buffer":0,
			"byteLength":10548,
			"byteOffset":60044,
			"target":34962
		},
		{
			"buffer":0,
			"byteLength":7032,
			"byteOffset":70592,
			"target":34962
		},
		{
			"buffer":0,
			"byteLength":3516,
			"byteOffset":77624,
			"target":34962
		},
		{
			"buffer":0,
			"byteLength":14064,
			"byteOffset":81140,
			"target":34962
		},
		{
			"buffer":0,
			"byteLength":4656,
			"byteOffset":95204,
			"target":34963
		},
		{
			"buffer":0,
			"byteLength":128,
			"byteOffset":99860
		},
		{
			"buffer":0,
			"byteLength":8,
			"byteOffset":99988
		},
		{
			"buffer":0,
			"byteLength":24,
			"byteOffset":99996
		},
		{
			"buffer":0,
			"byteLength":32,
			"byteOffset":100020
		},
		{
			"buffer":0,
			"byteLength":24,
			"byteOffset":100052
		},
		{
			"buffer":0,
			"byteLength":24,
			"byteOffset":100076
		},
		{
			"buffer":0,
			"byteLength":124,
			"byteOffset":100100
		},
		{
			"buffer":0,
			"byteLength":496,
			"byteOffset":100224
		},
		{
			"buffer":0,
			"byteLength":24,
			"byteOffset":100720
		},
		{
			"buffer":0,
			"byteLength":24,
			"byteOffset":100744
		},
		{
			"buffer":0,
			"byteLength":32,
			"byteOffset":100768
		},
		{
			"buffer":0,
			"byteLength":24,
			"byteOffset":100800
		},
		{
			"buffer":0,
			"byteLength":24,
			"byteOffset":100824
		},
		{
			"buffer":0,
			"byteLength":32,
			"byteOffset":100848
		},
		{
			"buffer":0,
			"byteLength":24,
			"byteOffset":100880
		},
		{
			"buffer":0,
			"byteLength":24,
			"byteOffset":100904
		},
		{
			"buffer":0,
			"byteLength":32,
			"byteOffset":100928
		},
		{
			"buffer":0,
			"byteLength":24,
			"byteOffset":100960
		},
		{
			"buffer":0,
			"byteLength":24,
			"byteOffset":100984
		},
		{
			"buffer":0,
			"byteLength":496,
			"byteOffset":101008
		},
		{
			"buffer":0,
			"byteLength":24,
			"byteOffset":101504
		},
		{
			"buffer":0,
			"byteLength":24,
			"byteOffset":101528
		},
		{
			"buffer":0,
			"byteLength":32,
			"byteOffset":101552
		},
		{
			"buffer":0,
			"byteLength":24,
			"byteOffset":101584
		},
		{
			"buffer":0,
			"byteLength":24,
			"byteOffset":101608
		},
		{
			"buffer":0,
			"byteLength":496,
			"byteOffset":101632
		},
		{
			"buffer":0,
			"byteLength":24,
			"byteOffset":102128
		},
		{
			"buffer":0,
			"byteLength":24,
			"byteOffset":102152
		},
		{
			"buffer":0,
			"byteLength":32,
			"byteOffset":102176
		},
		{
			"buffer":0,
			"byteLength":24,
			"byteOffset":102208
		},
		{
			"buffer":0,
			"byteLength":372,
			"byteOffset":102232
		},
		{
			"buffer":0,
			"byteLength":32,
			"byteOffset":102604
		},
		{
			"buffer":0,
			"byteLength":24,
			"byteOffset":102636
		},
		{
			"buffer":0,
			"byteLength":24,
			"byteOffset":102660
		},
		{
			"buffer":0,
			"byteLength":32,
			"byteOffset":102684
		},
		{
			"buffer":0,
			"byteLength":24,
			"byteOffset":102716
		},
		{
			"buffer":0,
			"byteLength":372,
			"byteOffset":102740
		},
		{
			"buffer":0,
			"byteLength":32,
			"byteOffset":103112
		},
		{
			"buffer":0,
			"byteLength":24,
			"byteOffset":103144
		}
	],
	"samplers":[
		{
			"magFilter":9729,
			"minFilter":9987
		}
	],
	"buffers":[
		{
			"byteLength":103168,
			"uri":"vehicle.ladybug.01.bin"
		}
	]
}
