{
	"asset":{
		"generator":"Khronos glTF Blender I/O v4.1.63",
		"version":"2.0"
	},
	"scene":0,
	"scenes":[
		{
			"name":"Scene",
			"nodes":[
				0,
				1,
				2,
				3,
				4,
				5,
				6,
				7
			]
		}
	],
	"nodes":[
		{
			"mesh":0,
			"name":"speedster.base.001",
			"translation":[
				0,
				0.10000000149011612,
				0.3080044090747833
			]
		},
		{
			"mesh":1,
			"name":"hotwheels.wheels.front",
			"rotation":[
				0.05986286327242851,
				-0.09577701985836029,
				-0.5768977403640747,
				0.8089698553085327
			],
			"scale":[
				0.2349848747253418,
				0.08885996043682098,
				0.23498490452766418
			],
			"translation":[
				0.4104245603084564,
				0.487175852060318,
				1.0608036518096924
			]
		},
		{
			"mesh":2,
			"name":"hotwheels.wheels.rear",
			"rotation":[
				0.03221378102898598,
				-0.053100552409887314,
				-0.6168550252914429,
				0.7846224904060364
			],
			"scale":[
				0.3054773509502411,
				0.11551681160926819,
				0.3054773509502411
			],
			"translation":[
				0.5524008870124817,
				0.5472253561019897,
				-0.27641671895980835
			]
		},
		{
			"mesh":3,
			"name":"hotwheels.decals",
			"translation":[
				0,
				0.1677447259426117,
				-0.039491720497608185
			]
		},
		{
			"mesh":4,
			"name":"hotwheels.spoiler",
			"rotation":[
				0.13115927577018738,
				0,
				0,
				0.9913613200187683
			],
			"translation":[
				0,
				1.108098030090332,
				-0.3373339772224426
			]
		},
		{
			"mesh":5,
			"name":"hotwheels.body",
			"translation":[
				0,
				0.19419628381729126,
				0
			]
		},
		{
			"mesh":6,
			"name":"hotwheels_collider",
			"translation":[
				0,
				0.5,
				0.3149999976158142
			]
		},
		{
			"mesh":7,
			"name":"hotwheels.neons.005",
			"translation":[
				0,
				0.10000000149011612,
				0.3080044090747833
			]
		}
	],
	"materials":[
		{
			"name":"DCL.AvatarWearables",
			"pbrMetallicRoughness":{
				"baseColorTexture":{
					"index":0
				},
				"metallicFactor":0,
				"roughnessFactor":0.5
			}
		},
		{
			"doubleSided":true,
			"name":"Hidden",
			"pbrMetallicRoughness":{}
		},
		{
			"emissiveFactor":[
				1,
				1,
				1
			],
			"emissiveTexture":{
				"index":1
			},
			"name":"DCL.AvatarWearables_Emissive",
			"pbrMetallicRoughness":{
				"baseColorTexture":{
					"index":2
				},
				"metallicFactor":0,
				"roughnessFactor":0.5
			}
		}
	],
	"meshes":[
		{
			"name":"Cylinder.020",
			"primitives":[
				{
					"attributes":{
						"POSITION":0,
						"NORMAL":1,
						"TEXCOORD_0":2,
						"TANGENT":3
					},
					"indices":4,
					"material":0
				}
			]
		},
		{
			"name":"Cylinder.028",
			"primitives":[
				{
					"attributes":{
						"POSITION":5,
						"NORMAL":6,
						"TEXCOORD_0":7,
						"TANGENT":8
					},
					"indices":9,
					"material":0
				}
			]
		},
		{
			"name":"Cylinder.030",
			"primitives":[
				{
					"attributes":{
						"POSITION":10,
						"NORMAL":11,
						"TEXCOORD_0":12
					},
					"indices":13,
					"material":0
				}
			]
		},
		{
			"name":"Cube.018",
			"primitives":[
				{
					"attributes":{
						"POSITION":14,
						"NORMAL":15,
						"TEXCOORD_0":16,
						"TANGENT":17
					},
					"indices":18,
					"material":0
				}
			]
		},
		{
			"name":"Plane.003",
			"primitives":[
				{
					"attributes":{
						"POSITION":19,
						"NORMAL":20,
						"TEXCOORD_0":21
					},
					"indices":22,
					"material":0
				}
			]
		},
		{
			"name":"Cube.017",
			"primitives":[
				{
					"attributes":{
						"POSITION":23,
						"NORMAL":24,
						"TEXCOORD_0":25,
						"TANGENT":26
					},
					"indices":27,
					"material":0
				}
			]
		},
		{
			"name":"Cylinder.031",
			"primitives":[
				{
					"attributes":{
						"POSITION":28,
						"NORMAL":29,
						"TEXCOORD_0":30,
						"TANGENT":31
					},
					"indices":32,
					"material":1
				}
			]
		},
		{
			"name":"Cylinder.023",
			"primitives":[
				{
					"attributes":{
						"POSITION":33,
						"NORMAL":34,
						"TEXCOORD_0":35,
						"TANGENT":36
					},
					"indices":37,
					"material":2
				}
			]
		}
	],
	"textures":[
		{
			"sampler":0,
			"source":0
		},
		{
			"sampler":0,
			"source":0
		},
		{
			"sampler":0,
			"source":0
		}
	],
	"images":[
		{
			"mimeType":"image/png",
			"name":"AvatarWearables_TX",
			"uri":"tex/AvatarWearables_TX.png"
		}
	],
	"accessors":[
		{
			"bufferView":0,
			"componentType":5126,
			"count":532,
			"max":[
				1.0556529760360718,
				0.30202922224998474,
				0.9131421446800232
			],
			"min":[
				-1.0556529760360718,
				-0.10000000149011612,
				-0.9953455924987793
			],
			"type":"VEC3"
		},
		{
			"bufferView":1,
			"componentType":5126,
			"count":532,
			"type":"VEC3"
		},
		{
			"bufferView":2,
			"componentType":5126,
			"count":532,
			"type":"VEC2"
		},
		{
			"bufferView":3,
			"componentType":5126,
			"count":532,
			"type":"VEC4"
		},
		{
			"bufferView":4,
			"componentType":5123,
			"count":1056,
			"type":"SCALAR"
		},
		{
			"bufferView":5,
			"componentType":5126,
			"count":896,
			"max":[
				1.0889166593551636,
				1.0269242525100708,
				1.8633677959442139
			],
			"min":[
				-2.1180830001831055,
				-10.997157096862793,
				-1.0889166593551636
			],
			"type":"VEC3"
		},
		{
			"bufferView":6,
			"componentType":5126,
			"count":896,
			"type":"VEC3"
		},
		{
			"bufferView":7,
			"componentType":5126,
			"count":896,
			"type":"VEC2"
		},
		{
			"bufferView":8,
			"componentType":5126,
			"count":896,
			"type":"VEC4"
		},
		{
			"bufferView":9,
			"componentType":5123,
			"count":1332,
			"type":"SCALAR"
		},
		{
			"bufferView":10,
			"componentType":5126,
			"count":928,
			"max":[
				1.0927547216415405,
				1.1168302297592163,
				1.571533441543579
			],
			"min":[
				-1.9442816972732544,
				-11.426048278808594,
				-1.0927547216415405
			],
			"type":"VEC3"
		},
		{
			"bufferView":11,
			"componentType":5126,
			"count":928,
			"type":"VEC3"
		},
		{
			"bufferView":12,
			"componentType":5126,
			"count":928,
			"type":"VEC2"
		},
		{
			"bufferView":13,
			"componentType":5123,
			"count":1512,
			"type":"SCALAR"
		},
		{
			"bufferView":14,
			"componentType":5126,
			"count":56,
			"max":[
				0.38858041167259216,
				0.7584089040756226,
				0.9721623659133911
			],
			"min":[
				-0.38858041167259216,
				0.2299298346042633,
				-0.2381981611251831
			],
			"type":"VEC3"
		},
		{
			"bufferView":15,
			"componentType":5126,
			"count":56,
			"type":"VEC3"
		},
		{
			"bufferView":16,
			"componentType":5126,
			"count":56,
			"type":"VEC2"
		},
		{
			"bufferView":17,
			"componentType":5126,
			"count":56,
			"type":"VEC4"
		},
		{
			"bufferView":18,
			"componentType":5123,
			"count":120,
			"type":"SCALAR"
		},
		{
			"bufferView":19,
			"componentType":5126,
			"count":208,
			"max":[
				0.4502405822277069,
				0.08564828336238861,
				0.09462704509496689
			],
			"min":[
				-0.4502405822277069,
				-0.1773853302001953,
				-0.16267505288124084
			],
			"type":"VEC3"
		},
		{
			"bufferView":20,
			"componentType":5126,
			"count":208,
			"type":"VEC3"
		},
		{
			"bufferView":21,
			"componentType":5126,
			"count":208,
			"type":"VEC2"
		},
		{
			"bufferView":22,
			"componentType":5123,
			"count":324,
			"type":"SCALAR"
		},
		{
			"bufferView":23,
			"componentType":5126,
			"count":496,
			"max":[
				0.45728445053100586,
				0.9289638996124268,
				1.3133673667907715
			],
			"min":[
				-0.45728445053100586,
				-0.04084843397140503,
				-0.4632728695869446
			],
			"type":"VEC3"
		},
		{
			"bufferView":24,
			"componentType":5126,
			"count":496,
			"type":"VEC3"
		},
		{
			"bufferView":25,
			"componentType":5126,
			"count":496,
			"type":"VEC2"
		},
		{
			"bufferView":26,
			"componentType":5126,
			"count":496,
			"type":"VEC4"
		},
		{
			"bufferView":27,
			"componentType":5123,
			"count":732,
			"type":"SCALAR"
		},
		{
			"bufferView":28,
			"componentType":5126,
			"count":22,
			"max":[
				0.4438789188861847,
				1.5,
				0.6432020664215088
			],
			"min":[
				-0.4438789188861847,
				-0.4915724992752075,
				-0.5466386675834656
			],
			"type":"VEC3"
		},
		{
			"bufferView":29,
			"componentType":5126,
			"count":22,
			"type":"VEC3"
		},
		{
			"bufferView":30,
			"componentType":5126,
			"count":22,
			"type":"VEC2"
		},
		{
			"bufferView":31,
			"componentType":5126,
			"count":22,
			"type":"VEC4"
		},
		{
			"bufferView":32,
			"componentType":5123,
			"count":36,
			"type":"SCALAR"
		},
		{
			"bufferView":33,
			"componentType":5126,
			"count":92,
			"max":[
				1.0049999952316284,
				0.06939853727817535,
				0.8756358027458191
			],
			"min":[
				-1.0049999952316284,
				-0.040807802230119705,
				-0.9446926116943359
			],
			"type":"VEC3"
		},
		{
			"bufferView":34,
			"componentType":5126,
			"count":92,
			"type":"VEC3"
		},
		{
			"bufferView":35,
			"componentType":5126,
			"count":92,
			"type":"VEC2"
		},
		{
			"bufferView":36,
			"componentType":5126,
			"count":92,
			"type":"VEC4"
		},
		{
			"bufferView":37,
			"componentType":5123,
			"count":228,
			"type":"SCALAR"
		}
	],
	"bufferViews":[
		{
			"buffer":0,
			"byteLength":6384,
			"byteOffset":0,
			"target":34962
		},
		{
			"buffer":0,
			"byteLength":6384,
			"byteOffset":6384,
			"target":34962
		},
		{
			"buffer":0,
			"byteLength":4256,
			"byteOffset":12768,
			"target":34962
		},
		{
			"buffer":0,
			"byteLength":8512,
			"byteOffset":17024,
			"target":34962
		},
		{
			"buffer":0,
			"byteLength":2112,
			"byteOffset":25536,
			"target":34963
		},
		{
			"buffer":0,
			"byteLength":10752,
			"byteOffset":27648,
			"target":34962
		},
		{
			"buffer":0,
			"byteLength":10752,
			"byteOffset":38400,
			"target":34962
		},
		{
			"buffer":0,
			"byteLength":7168,
			"byteOffset":49152,
			"target":34962
		},
		{
			"buffer":0,
			"byteLength":14336,
			"byteOffset":56320,
			"target":34962
		},
		{
			"buffer":0,
			"byteLength":2664,
			"byteOffset":70656,
			"target":34963
		},
		{
			"buffer":0,
			"byteLength":11136,
			"byteOffset":73320,
			"target":34962
		},
		{
			"buffer":0,
			"byteLength":11136,
			"byteOffset":84456,
			"target":34962
		},
		{
			"buffer":0,
			"byteLength":7424,
			"byteOffset":95592,
			"target":34962
		},
		{
			"buffer":0,
			"byteLength":3024,
			"byteOffset":103016,
			"target":34963
		},
		{
			"buffer":0,
			"byteLength":672,
			"byteOffset":106040,
			"target":34962
		},
		{
			"buffer":0,
			"byteLength":672,
			"byteOffset":106712,
			"target":34962
		},
		{
			"buffer":0,
			"byteLength":448,
			"byteOffset":107384,
			"target":34962
		},
		{
			"buffer":0,
			"byteLength":896,
			"byteOffset":107832,
			"target":34962
		},
		{
			"buffer":0,
			"byteLength":240,
			"byteOffset":108728,
			"target":34963
		},
		{
			"buffer":0,
			"byteLength":2496,
			"byteOffset":108968,
			"target":34962
		},
		{
			"buffer":0,
			"byteLength":2496,
			"byteOffset":111464,
			"target":34962
		},
		{
			"buffer":0,
			"byteLength":1664,
			"byteOffset":113960,
			"target":34962
		},
		{
			"buffer":0,
			"byteLength":648,
			"byteOffset":115624,
			"target":34963
		},
		{
			"buffer":0,
			"byteLength":5952,
			"byteOffset":116272,
			"target":34962
		},
		{
			"buffer":0,
			"byteLength":5952,
			"byteOffset":122224,
			"target":34962
		},
		{
			"buffer":0,
			"byteLength":3968,
			"byteOffset":128176,
			"target":34962
		},
		{
			"buffer":0,
			"byteLength":7936,
			"byteOffset":132144,
			"target":34962
		},
		{
			"buffer":0,
			"byteLength":1464,
			"byteOffset":140080,
			"target":34963
		},
		{
			"buffer":0,
			"byteLength":264,
			"byteOffset":141544,
			"target":34962
		},
		{
			"buffer":0,
			"byteLength":264,
			"byteOffset":141808,
			"target":34962
		},
		{
			"buffer":0,
			"byteLength":176,
			"byteOffset":142072,
			"target":34962
		},
		{
			"buffer":0,
			"byteLength":352,
			"byteOffset":142248,
			"target":34962
		},
		{
			"buffer":0,
			"byteLength":72,
			"byteOffset":142600,
			"target":34963
		},
		{
			"buffer":0,
			"byteLength":1104,
			"byteOffset":142672,
			"target":34962
		},
		{
			"buffer":0,
			"byteLength":1104,
			"byteOffset":143776,
			"target":34962
		},
		{
			"buffer":0,
			"byteLength":736,
			"byteOffset":144880,
			"target":34962
		},
		{
			"buffer":0,
			"byteLength":1472,
			"byteOffset":145616,
			"target":34962
		},
		{
			"buffer":0,
			"byteLength":456,
			"byteOffset":147088,
			"target":34963
		}
	],
	"samplers":[
		{
			"magFilter":9729,
			"minFilter":9987
		}
	],
	"buffers":[
		{
			"byteLength":147544,
			"uri":"vehicle.hotwheels.01.bin"
		}
	]
}
