{
	"asset":{
		"generator":"Khronos glTF Blender I/O v4.1.63",
		"version":"2.0"
	},
	"extensionsUsed":[
		"KHR_materials_emissive_strength"
	],
	"scene":0,
	"scenes":[
		{
			"name":"Scene",
			"nodes":[
				4
			]
		}
	],
	"nodes":[
		{
			"name":"Bone.001",
			"rotation":[
				0.7071067690849304,
				-2.837897170593351e-07,
				-2.837897170593351e-07,
				0.7071067690849304
			],
			"translation":[
				-1.4498725420253322e-07,
				0.7438942193984985,
				2.405432939529419
			]
		},
		{
			"name":"Bone.002",
			"rotation":[
				-0.7071067690849304,
				0,
				0,
				0.7071067690849304
			],
			"translation":[
				0,
				0.7761673927307129,
				-1.1530662775039673
			]
		},
		{
			"children":[
				0,
				1
			],
			"name":"Bone"
		},
		{
			"mesh":0,
			"name":"turtCart",
			"skin":0
		},
		{
			"children":[
				3,
				2
			],
			"name":"turtleArm",
			"scale":[
				0.5150421261787415,
				0.5150421261787415,
				0.5150421261787415
			]
		}
	],
	"animations":[
		{
			"channels":[
				{
					"sampler":0,
					"target":{
						"node":2,
						"path":"translation"
					}
				},
				{
					"sampler":1,
					"target":{
						"node":2,
						"path":"rotation"
					}
				},
				{
					"sampler":2,
					"target":{
						"node":2,
						"path":"scale"
					}
				},
				{
					"sampler":3,
					"target":{
						"node":0,
						"path":"translation"
					}
				},
				{
					"sampler":4,
					"target":{
						"node":0,
						"path":"rotation"
					}
				},
				{
					"sampler":5,
					"target":{
						"node":0,
						"path":"scale"
					}
				},
				{
					"sampler":6,
					"target":{
						"node":1,
						"path":"translation"
					}
				},
				{
					"sampler":7,
					"target":{
						"node":1,
						"path":"rotation"
					}
				},
				{
					"sampler":8,
					"target":{
						"node":1,
						"path":"scale"
					}
				}
			],
			"name":"bugArmAction",
			"samplers":[
				{
					"input":13,
					"interpolation":"STEP",
					"output":14
				},
				{
					"input":13,
					"interpolation":"STEP",
					"output":15
				},
				{
					"input":13,
					"interpolation":"STEP",
					"output":16
				},
				{
					"input":13,
					"interpolation":"STEP",
					"output":17
				},
				{
					"input":13,
					"interpolation":"STEP",
					"output":18
				},
				{
					"input":13,
					"interpolation":"STEP",
					"output":19
				},
				{
					"input":13,
					"interpolation":"STEP",
					"output":20
				},
				{
					"input":13,
					"interpolation":"STEP",
					"output":21
				},
				{
					"input":13,
					"interpolation":"STEP",
					"output":22
				}
			]
		},
		{
			"channels":[
				{
					"sampler":0,
					"target":{
						"node":2,
						"path":"translation"
					}
				},
				{
					"sampler":1,
					"target":{
						"node":2,
						"path":"rotation"
					}
				},
				{
					"sampler":2,
					"target":{
						"node":2,
						"path":"scale"
					}
				},
				{
					"sampler":3,
					"target":{
						"node":0,
						"path":"translation"
					}
				},
				{
					"sampler":4,
					"target":{
						"node":0,
						"path":"rotation"
					}
				},
				{
					"sampler":5,
					"target":{
						"node":0,
						"path":"scale"
					}
				},
				{
					"sampler":6,
					"target":{
						"node":1,
						"path":"translation"
					}
				},
				{
					"sampler":7,
					"target":{
						"node":1,
						"path":"rotation"
					}
				},
				{
					"sampler":8,
					"target":{
						"node":1,
						"path":"scale"
					}
				}
			],
			"name":"Bumper_Hit_React_Armature.001",
			"samplers":[
				{
					"input":13,
					"interpolation":"STEP",
					"output":23
				},
				{
					"input":13,
					"interpolation":"STEP",
					"output":24
				},
				{
					"input":13,
					"interpolation":"STEP",
					"output":25
				},
				{
					"input":13,
					"interpolation":"STEP",
					"output":26
				},
				{
					"input":13,
					"interpolation":"STEP",
					"output":27
				},
				{
					"input":13,
					"interpolation":"STEP",
					"output":28
				},
				{
					"input":13,
					"interpolation":"STEP",
					"output":29
				},
				{
					"input":13,
					"interpolation":"STEP",
					"output":30
				},
				{
					"input":13,
					"interpolation":"STEP",
					"output":31
				}
			]
		},
		{
			"channels":[
				{
					"sampler":0,
					"target":{
						"node":2,
						"path":"translation"
					}
				},
				{
					"sampler":1,
					"target":{
						"node":2,
						"path":"rotation"
					}
				},
				{
					"sampler":2,
					"target":{
						"node":2,
						"path":"scale"
					}
				},
				{
					"sampler":3,
					"target":{
						"node":0,
						"path":"translation"
					}
				},
				{
					"sampler":4,
					"target":{
						"node":0,
						"path":"rotation"
					}
				},
				{
					"sampler":5,
					"target":{
						"node":0,
						"path":"scale"
					}
				},
				{
					"sampler":6,
					"target":{
						"node":1,
						"path":"translation"
					}
				},
				{
					"sampler":7,
					"target":{
						"node":1,
						"path":"rotation"
					}
				},
				{
					"sampler":8,
					"target":{
						"node":1,
						"path":"scale"
					}
				}
			],
			"name":"dinoArmAction",
			"samplers":[
				{
					"input":13,
					"interpolation":"STEP",
					"output":32
				},
				{
					"input":13,
					"interpolation":"STEP",
					"output":33
				},
				{
					"input":13,
					"interpolation":"STEP",
					"output":34
				},
				{
					"input":13,
					"interpolation":"STEP",
					"output":35
				},
				{
					"input":13,
					"interpolation":"STEP",
					"output":36
				},
				{
					"input":13,
					"interpolation":"STEP",
					"output":37
				},
				{
					"input":13,
					"interpolation":"STEP",
					"output":38
				},
				{
					"input":39,
					"interpolation":"LINEAR",
					"output":40
				},
				{
					"input":13,
					"interpolation":"STEP",
					"output":41
				}
			]
		},
		{
			"channels":[
				{
					"sampler":0,
					"target":{
						"node":2,
						"path":"translation"
					}
				},
				{
					"sampler":1,
					"target":{
						"node":2,
						"path":"rotation"
					}
				},
				{
					"sampler":2,
					"target":{
						"node":2,
						"path":"scale"
					}
				},
				{
					"sampler":3,
					"target":{
						"node":0,
						"path":"translation"
					}
				},
				{
					"sampler":4,
					"target":{
						"node":0,
						"path":"rotation"
					}
				},
				{
					"sampler":5,
					"target":{
						"node":0,
						"path":"scale"
					}
				},
				{
					"sampler":6,
					"target":{
						"node":1,
						"path":"translation"
					}
				},
				{
					"sampler":7,
					"target":{
						"node":1,
						"path":"rotation"
					}
				},
				{
					"sampler":8,
					"target":{
						"node":1,
						"path":"scale"
					}
				}
			],
			"name":"heartArmAction",
			"samplers":[
				{
					"input":13,
					"interpolation":"STEP",
					"output":42
				},
				{
					"input":13,
					"interpolation":"STEP",
					"output":43
				},
				{
					"input":13,
					"interpolation":"STEP",
					"output":44
				},
				{
					"input":13,
					"interpolation":"STEP",
					"output":45
				},
				{
					"input":13,
					"interpolation":"STEP",
					"output":46
				},
				{
					"input":13,
					"interpolation":"STEP",
					"output":47
				},
				{
					"input":13,
					"interpolation":"STEP",
					"output":48
				},
				{
					"input":13,
					"interpolation":"STEP",
					"output":49
				},
				{
					"input":39,
					"interpolation":"LINEAR",
					"output":50
				}
			]
		},
		{
			"channels":[
				{
					"sampler":0,
					"target":{
						"node":2,
						"path":"translation"
					}
				},
				{
					"sampler":1,
					"target":{
						"node":2,
						"path":"rotation"
					}
				},
				{
					"sampler":2,
					"target":{
						"node":2,
						"path":"scale"
					}
				},
				{
					"sampler":3,
					"target":{
						"node":0,
						"path":"translation"
					}
				},
				{
					"sampler":4,
					"target":{
						"node":0,
						"path":"rotation"
					}
				},
				{
					"sampler":5,
					"target":{
						"node":0,
						"path":"scale"
					}
				},
				{
					"sampler":6,
					"target":{
						"node":1,
						"path":"translation"
					}
				},
				{
					"sampler":7,
					"target":{
						"node":1,
						"path":"rotation"
					}
				},
				{
					"sampler":8,
					"target":{
						"node":1,
						"path":"scale"
					}
				}
			],
			"name":"ladybugArmAction",
			"samplers":[
				{
					"input":13,
					"interpolation":"STEP",
					"output":51
				},
				{
					"input":13,
					"interpolation":"STEP",
					"output":52
				},
				{
					"input":13,
					"interpolation":"STEP",
					"output":53
				},
				{
					"input":39,
					"interpolation":"LINEAR",
					"output":54
				},
				{
					"input":13,
					"interpolation":"STEP",
					"output":55
				},
				{
					"input":13,
					"interpolation":"STEP",
					"output":56
				},
				{
					"input":13,
					"interpolation":"STEP",
					"output":57
				},
				{
					"input":13,
					"interpolation":"STEP",
					"output":58
				},
				{
					"input":13,
					"interpolation":"STEP",
					"output":59
				}
			]
		},
		{
			"channels":[
				{
					"sampler":0,
					"target":{
						"node":2,
						"path":"translation"
					}
				},
				{
					"sampler":1,
					"target":{
						"node":2,
						"path":"rotation"
					}
				},
				{
					"sampler":2,
					"target":{
						"node":2,
						"path":"scale"
					}
				},
				{
					"sampler":3,
					"target":{
						"node":0,
						"path":"translation"
					}
				},
				{
					"sampler":4,
					"target":{
						"node":0,
						"path":"rotation"
					}
				},
				{
					"sampler":5,
					"target":{
						"node":0,
						"path":"scale"
					}
				},
				{
					"sampler":6,
					"target":{
						"node":1,
						"path":"translation"
					}
				},
				{
					"sampler":7,
					"target":{
						"node":1,
						"path":"rotation"
					}
				},
				{
					"sampler":8,
					"target":{
						"node":1,
						"path":"scale"
					}
				}
			],
			"name":"turtleArmAction",
			"samplers":[
				{
					"input":13,
					"interpolation":"STEP",
					"output":60
				},
				{
					"input":13,
					"interpolation":"STEP",
					"output":61
				},
				{
					"input":13,
					"interpolation":"STEP",
					"output":62
				},
				{
					"input":39,
					"interpolation":"LINEAR",
					"output":63
				},
				{
					"input":13,
					"interpolation":"STEP",
					"output":64
				},
				{
					"input":13,
					"interpolation":"STEP",
					"output":65
				},
				{
					"input":13,
					"interpolation":"STEP",
					"output":66
				},
				{
					"input":39,
					"interpolation":"LINEAR",
					"output":67
				},
				{
					"input":13,
					"interpolation":"STEP",
					"output":68
				}
			]
		}
	],
	"materials":[
		{
			"name":"DCL.AvatarWearables",
			"pbrMetallicRoughness":{
				"baseColorTexture":{
					"index":0
				},
				"metallicFactor":0,
				"roughnessFactor":0.5
			}
		},
		{
			"emissiveFactor":[
				1,
				1,
				1
			],
			"emissiveTexture":{
				"index":1
			},
			"extensions":{
				"KHR_materials_emissive_strength":{
					"emissiveStrength":5
				}
			},
			"name":"DCL.AvatarWearables_Emissive",
			"pbrMetallicRoughness":{
				"baseColorTexture":{
					"index":2
				},
				"metallicFactor":0,
				"roughnessFactor":0.5
			}
		}
	],
	"meshes":[
		{
			"name":"Cylinder.008",
			"primitives":[
				{
					"attributes":{
						"POSITION":0,
						"NORMAL":1,
						"TEXCOORD_0":2,
						"JOINTS_0":3,
						"WEIGHTS_0":4
					},
					"indices":5,
					"material":0
				},
				{
					"attributes":{
						"POSITION":6,
						"NORMAL":7,
						"TEXCOORD_0":8,
						"JOINTS_0":9,
						"WEIGHTS_0":10
					},
					"indices":11,
					"material":1
				}
			]
		}
	],
	"textures":[
		{
			"sampler":0,
			"source":0
		},
		{
			"sampler":0,
			"source":0
		},
		{
			"sampler":0,
			"source":0
		}
	],
	"images":[
		{
			"mimeType":"image/png",
			"name":"AvatarWearables_TX",
			"uri":"tex/AvatarWearables_TX.png"
		}
	],
	"skins":[
		{
			"inverseBindMatrices":12,
			"joints":[
				2,
				0,
				1
			],
			"name":"turtleArm"
		}
	],
	"accessors":[
		{
			"bufferView":0,
			"componentType":5126,
			"count":1665,
			"max":[
				1.0556528568267822,
				1.2363862991333008,
				1.5707812309265137
			],
			"min":[
				-1.0556528568267822,
				5.9604645663569045e-09,
				-0.9310328364372253
			],
			"type":"VEC3"
		},
		{
			"bufferView":1,
			"componentType":5126,
			"count":1665,
			"type":"VEC3"
		},
		{
			"bufferView":2,
			"componentType":5126,
			"count":1665,
			"type":"VEC2"
		},
		{
			"bufferView":3,
			"componentType":5121,
			"count":1665,
			"type":"VEC4"
		},
		{
			"bufferView":4,
			"componentType":5126,
			"count":1665,
			"type":"VEC4"
		},
		{
			"bufferView":5,
			"componentType":5123,
			"count":4224,
			"type":"SCALAR"
		},
		{
			"bufferView":6,
			"componentType":5126,
			"count":617,
			"max":[
				1.025380253791809,
				1.2181862592697144,
				1.5756278038024902
			],
			"min":[
				-1.0253801345825195,
				0.05919220298528671,
				-0.7164573073387146
			],
			"type":"VEC3"
		},
		{
			"bufferView":7,
			"componentType":5126,
			"count":617,
			"type":"VEC3"
		},
		{
			"bufferView":8,
			"componentType":5126,
			"count":617,
			"type":"VEC2"
		},
		{
			"bufferView":9,
			"componentType":5121,
			"count":617,
			"type":"VEC4"
		},
		{
			"bufferView":10,
			"componentType":5126,
			"count":617,
			"type":"VEC4"
		},
		{
			"bufferView":11,
			"componentType":5123,
			"count":1800,
			"type":"SCALAR"
		},
		{
			"bufferView":12,
			"componentType":5126,
			"count":3,
			"type":"MAT4"
		},
		{
			"bufferView":13,
			"componentType":5126,
			"count":2,
			"max":[
				0.5
			],
			"min":[
				0
			],
			"type":"SCALAR"
		},
		{
			"bufferView":14,
			"componentType":5126,
			"count":2,
			"type":"VEC3"
		},
		{
			"bufferView":15,
			"componentType":5126,
			"count":2,
			"type":"VEC4"
		},
		{
			"bufferView":16,
			"componentType":5126,
			"count":2,
			"type":"VEC3"
		},
		{
			"bufferView":17,
			"componentType":5126,
			"count":2,
			"type":"VEC3"
		},
		{
			"bufferView":18,
			"componentType":5126,
			"count":2,
			"type":"VEC4"
		},
		{
			"bufferView":19,
			"componentType":5126,
			"count":2,
			"type":"VEC3"
		},
		{
			"bufferView":20,
			"componentType":5126,
			"count":2,
			"type":"VEC3"
		},
		{
			"bufferView":21,
			"componentType":5126,
			"count":2,
			"type":"VEC4"
		},
		{
			"bufferView":22,
			"componentType":5126,
			"count":2,
			"type":"VEC3"
		},
		{
			"bufferView":23,
			"componentType":5126,
			"count":2,
			"type":"VEC3"
		},
		{
			"bufferView":24,
			"componentType":5126,
			"count":2,
			"type":"VEC4"
		},
		{
			"bufferView":25,
			"componentType":5126,
			"count":2,
			"type":"VEC3"
		},
		{
			"bufferView":26,
			"componentType":5126,
			"count":2,
			"type":"VEC3"
		},
		{
			"bufferView":27,
			"componentType":5126,
			"count":2,
			"type":"VEC4"
		},
		{
			"bufferView":28,
			"componentType":5126,
			"count":2,
			"type":"VEC3"
		},
		{
			"bufferView":29,
			"componentType":5126,
			"count":2,
			"type":"VEC3"
		},
		{
			"bufferView":30,
			"componentType":5126,
			"count":2,
			"type":"VEC4"
		},
		{
			"bufferView":31,
			"componentType":5126,
			"count":2,
			"type":"VEC3"
		},
		{
			"bufferView":32,
			"componentType":5126,
			"count":2,
			"type":"VEC3"
		},
		{
			"bufferView":33,
			"componentType":5126,
			"count":2,
			"type":"VEC4"
		},
		{
			"bufferView":34,
			"componentType":5126,
			"count":2,
			"type":"VEC3"
		},
		{
			"bufferView":35,
			"componentType":5126,
			"count":2,
			"type":"VEC3"
		},
		{
			"bufferView":36,
			"componentType":5126,
			"count":2,
			"type":"VEC4"
		},
		{
			"bufferView":37,
			"componentType":5126,
			"count":2,
			"type":"VEC3"
		},
		{
			"bufferView":38,
			"componentType":5126,
			"count":2,
			"type":"VEC3"
		},
		{
			"bufferView":39,
			"componentType":5126,
			"count":31,
			"max":[
				0.5
			],
			"min":[
				0
			],
			"type":"SCALAR"
		},
		{
			"bufferView":40,
			"componentType":5126,
			"count":31,
			"type":"VEC4"
		},
		{
			"bufferView":41,
			"componentType":5126,
			"count":2,
			"type":"VEC3"
		},
		{
			"bufferView":42,
			"componentType":5126,
			"count":2,
			"type":"VEC3"
		},
		{
			"bufferView":43,
			"componentType":5126,
			"count":2,
			"type":"VEC4"
		},
		{
			"bufferView":44,
			"componentType":5126,
			"count":2,
			"type":"VEC3"
		},
		{
			"bufferView":45,
			"componentType":5126,
			"count":2,
			"type":"VEC3"
		},
		{
			"bufferView":46,
			"componentType":5126,
			"count":2,
			"type":"VEC4"
		},
		{
			"bufferView":47,
			"componentType":5126,
			"count":2,
			"type":"VEC3"
		},
		{
			"bufferView":48,
			"componentType":5126,
			"count":2,
			"type":"VEC3"
		},
		{
			"bufferView":49,
			"componentType":5126,
			"count":2,
			"type":"VEC4"
		},
		{
			"bufferView":50,
			"componentType":5126,
			"count":31,
			"type":"VEC3"
		},
		{
			"bufferView":51,
			"componentType":5126,
			"count":2,
			"type":"VEC3"
		},
		{
			"bufferView":52,
			"componentType":5126,
			"count":2,
			"type":"VEC4"
		},
		{
			"bufferView":53,
			"componentType":5126,
			"count":2,
			"type":"VEC3"
		},
		{
			"bufferView":54,
			"componentType":5126,
			"count":31,
			"type":"VEC3"
		},
		{
			"bufferView":55,
			"componentType":5126,
			"count":2,
			"type":"VEC4"
		},
		{
			"bufferView":56,
			"componentType":5126,
			"count":2,
			"type":"VEC3"
		},
		{
			"bufferView":57,
			"componentType":5126,
			"count":2,
			"type":"VEC3"
		},
		{
			"bufferView":58,
			"componentType":5126,
			"count":2,
			"type":"VEC4"
		},
		{
			"bufferView":59,
			"componentType":5126,
			"count":2,
			"type":"VEC3"
		},
		{
			"bufferView":60,
			"componentType":5126,
			"count":2,
			"type":"VEC3"
		},
		{
			"bufferView":61,
			"componentType":5126,
			"count":2,
			"type":"VEC4"
		},
		{
			"bufferView":62,
			"componentType":5126,
			"count":2,
			"type":"VEC3"
		},
		{
			"bufferView":63,
			"componentType":5126,
			"count":31,
			"type":"VEC3"
		},
		{
			"bufferView":64,
			"componentType":5126,
			"count":2,
			"type":"VEC4"
		},
		{
			"bufferView":65,
			"componentType":5126,
			"count":2,
			"type":"VEC3"
		},
		{
			"bufferView":66,
			"componentType":5126,
			"count":2,
			"type":"VEC3"
		},
		{
			"bufferView":67,
			"componentType":5126,
			"count":31,
			"type":"VEC4"
		},
		{
			"bufferView":68,
			"componentType":5126,
			"count":2,
			"type":"VEC3"
		}
	],
	"bufferViews":[
		{
			"buffer":0,
			"byteLength":19980,
			"byteOffset":0,
			"target":34962
		},
		{
			"buffer":0,
			"byteLength":19980,
			"byteOffset":19980,
			"target":34962
		},
		{
			"buffer":0,
			"byteLength":13320,
			"byteOffset":39960,
			"target":34962
		},
		{
			"buffer":0,
			"byteLength":6660,
			"byteOffset":53280,
			"target":34962
		},
		{
			"buffer":0,
			"byteLength":26640,
			"byteOffset":59940,
			"target":34962
		},
		{
			"buffer":0,
			"byteLength":8448,
			"byteOffset":86580,
			"target":34963
		},
		{
			"buffer":0,
			"byteLength":7404,
			"byteOffset":95028,
			"target":34962
		},
		{
			"buffer":0,
			"byteLength":7404,
			"byteOffset":102432,
			"target":34962
		},
		{
			"buffer":0,
			"byteLength":4936,
			"byteOffset":109836,
			"target":34962
		},
		{
			"buffer":0,
			"byteLength":2468,
			"byteOffset":114772,
			"target":34962
		},
		{
			"buffer":0,
			"byteLength":9872,
			"byteOffset":117240,
			"target":34962
		},
		{
			"buffer":0,
			"byteLength":3600,
			"byteOffset":127112,
			"target":34963
		},
		{
			"buffer":0,
			"byteLength":192,
			"byteOffset":130712
		},
		{
			"buffer":0,
			"byteLength":8,
			"byteOffset":130904
		},
		{
			"buffer":0,
			"byteLength":24,
			"byteOffset":130912
		},
		{
			"buffer":0,
			"byteLength":32,
			"byteOffset":130936
		},
		{
			"buffer":0,
			"byteLength":24,
			"byteOffset":130968
		},
		{
			"buffer":0,
			"byteLength":24,
			"byteOffset":130992
		},
		{
			"buffer":0,
			"byteLength":32,
			"byteOffset":131016
		},
		{
			"buffer":0,
			"byteLength":24,
			"byteOffset":131048
		},
		{
			"buffer":0,
			"byteLength":24,
			"byteOffset":131072
		},
		{
			"buffer":0,
			"byteLength":32,
			"byteOffset":131096
		},
		{
			"buffer":0,
			"byteLength":24,
			"byteOffset":131128
		},
		{
			"buffer":0,
			"byteLength":24,
			"byteOffset":131152
		},
		{
			"buffer":0,
			"byteLength":32,
			"byteOffset":131176
		},
		{
			"buffer":0,
			"byteLength":24,
			"byteOffset":131208
		},
		{
			"buffer":0,
			"byteLength":24,
			"byteOffset":131232
		},
		{
			"buffer":0,
			"byteLength":32,
			"byteOffset":131256
		},
		{
			"buffer":0,
			"byteLength":24,
			"byteOffset":131288
		},
		{
			"buffer":0,
			"byteLength":24,
			"byteOffset":131312
		},
		{
			"buffer":0,
			"byteLength":32,
			"byteOffset":131336
		},
		{
			"buffer":0,
			"byteLength":24,
			"byteOffset":131368
		},
		{
			"buffer":0,
			"byteLength":24,
			"byteOffset":131392
		},
		{
			"buffer":0,
			"byteLength":32,
			"byteOffset":131416
		},
		{
			"buffer":0,
			"byteLength":24,
			"byteOffset":131448
		},
		{
			"buffer":0,
			"byteLength":24,
			"byteOffset":131472
		},
		{
			"buffer":0,
			"byteLength":32,
			"byteOffset":131496
		},
		{
			"buffer":0,
			"byteLength":24,
			"byteOffset":131528
		},
		{
			"buffer":0,
			"byteLength":24,
			"byteOffset":131552
		},
		{
			"buffer":0,
			"byteLength":124,
			"byteOffset":131576
		},
		{
			"buffer":0,
			"byteLength":496,
			"byteOffset":131700
		},
		{
			"buffer":0,
			"byteLength":24,
			"byteOffset":132196
		},
		{
			"buffer":0,
			"byteLength":24,
			"byteOffset":132220
		},
		{
			"buffer":0,
			"byteLength":32,
			"byteOffset":132244
		},
		{
			"buffer":0,
			"byteLength":24,
			"byteOffset":132276
		},
		{
			"buffer":0,
			"byteLength":24,
			"byteOffset":132300
		},
		{
			"buffer":0,
			"byteLength":32,
			"byteOffset":132324
		},
		{
			"buffer":0,
			"byteLength":24,
			"byteOffset":132356
		},
		{
			"buffer":0,
			"byteLength":24,
			"byteOffset":132380
		},
		{
			"buffer":0,
			"byteLength":32,
			"byteOffset":132404
		},
		{
			"buffer":0,
			"byteLength":372,
			"byteOffset":132436
		},
		{
			"buffer":0,
			"byteLength":24,
			"byteOffset":132808
		},
		{
			"buffer":0,
			"byteLength":32,
			"byteOffset":132832
		},
		{
			"buffer":0,
			"byteLength":24,
			"byteOffset":132864
		},
		{
			"buffer":0,
			"byteLength":372,
			"byteOffset":132888
		},
		{
			"buffer":0,
			"byteLength":32,
			"byteOffset":133260
		},
		{
			"buffer":0,
			"byteLength":24,
			"byteOffset":133292
		},
		{
			"buffer":0,
			"byteLength":24,
			"byteOffset":133316
		},
		{
			"buffer":0,
			"byteLength":32,
			"byteOffset":133340
		},
		{
			"buffer":0,
			"byteLength":24,
			"byteOffset":133372
		},
		{
			"buffer":0,
			"byteLength":24,
			"byteOffset":133396
		},
		{
			"buffer":0,
			"byteLength":32,
			"byteOffset":133420
		},
		{
			"buffer":0,
			"byteLength":24,
			"byteOffset":133452
		},
		{
			"buffer":0,
			"byteLength":372,
			"byteOffset":133476
		},
		{
			"buffer":0,
			"byteLength":32,
			"byteOffset":133848
		},
		{
			"buffer":0,
			"byteLength":24,
			"byteOffset":133880
		},
		{
			"buffer":0,
			"byteLength":24,
			"byteOffset":133904
		},
		{
			"buffer":0,
			"byteLength":496,
			"byteOffset":133928
		},
		{
			"buffer":0,
			"byteLength":24,
			"byteOffset":134424
		}
	],
	"samplers":[
		{
			"magFilter":9729,
			"minFilter":9987
		}
	],
	"buffers":[
		{
			"byteLength":134448,
			"uri":"vehicle.turtle.01.bin"
		}
	]
}
