{
	"asset":{
		"generator":"Khronos glTF Blender I/O v4.1.63",
		"version":"2.0"
	},
	"extensionsUsed":[
		"KHR_materials_emissive_strength"
	],
	"scene":0,
	"scenes":[
		{
			"name":"Scene",
			"nodes":[
				4
			]
		}
	],
	"nodes":[
		{
			"name":"Bone.001",
			"scale":[
				1.0000001192092896,
				1.0000001192092896,
				1.0000001192092896
			],
			"translation":[
				0,
				1.6930880546569824,
				-0.374024897813797
			]
		},
		{
			"name":"Bone.002",
			"scale":[
				1.0000001192092896,
				1.0000001192092896,
				1.0000001192092896
			],
			"translation":[
				0,
				0.36566415429115295,
				1.7072230577468872
			]
		},
		{
			"children":[
				0,
				1
			],
			"name":"Bone",
			"scale":[
				1.0000001192092896,
				1.0000001192092896,
				1.0000001192092896
			]
		},
		{
			"mesh":0,
			"name":"heartCart1",
			"skin":0
		},
		{
			"children":[
				3,
				2
			],
			"name":"heartArm",
			"scale":[
				0.7493755221366882,
				0.7493755221366882,
				0.7493755221366882
			]
		}
	],
	"animations":[
		{
			"channels":[
				{
					"sampler":0,
					"target":{
						"node":2,
						"path":"translation"
					}
				},
				{
					"sampler":1,
					"target":{
						"node":2,
						"path":"rotation"
					}
				},
				{
					"sampler":2,
					"target":{
						"node":2,
						"path":"scale"
					}
				},
				{
					"sampler":3,
					"target":{
						"node":0,
						"path":"translation"
					}
				},
				{
					"sampler":4,
					"target":{
						"node":0,
						"path":"rotation"
					}
				},
				{
					"sampler":5,
					"target":{
						"node":0,
						"path":"scale"
					}
				},
				{
					"sampler":6,
					"target":{
						"node":1,
						"path":"translation"
					}
				},
				{
					"sampler":7,
					"target":{
						"node":1,
						"path":"rotation"
					}
				},
				{
					"sampler":8,
					"target":{
						"node":1,
						"path":"scale"
					}
				}
			],
			"name":"bugArmAction",
			"samplers":[
				{
					"input":15,
					"interpolation":"STEP",
					"output":16
				},
				{
					"input":15,
					"interpolation":"STEP",
					"output":17
				},
				{
					"input":15,
					"interpolation":"STEP",
					"output":18
				},
				{
					"input":15,
					"interpolation":"STEP",
					"output":19
				},
				{
					"input":20,
					"interpolation":"LINEAR",
					"output":21
				},
				{
					"input":15,
					"interpolation":"STEP",
					"output":22
				},
				{
					"input":15,
					"interpolation":"STEP",
					"output":23
				},
				{
					"input":15,
					"interpolation":"STEP",
					"output":24
				},
				{
					"input":15,
					"interpolation":"STEP",
					"output":25
				}
			]
		},
		{
			"channels":[
				{
					"sampler":0,
					"target":{
						"node":2,
						"path":"translation"
					}
				},
				{
					"sampler":1,
					"target":{
						"node":2,
						"path":"rotation"
					}
				},
				{
					"sampler":2,
					"target":{
						"node":2,
						"path":"scale"
					}
				},
				{
					"sampler":3,
					"target":{
						"node":0,
						"path":"translation"
					}
				},
				{
					"sampler":4,
					"target":{
						"node":0,
						"path":"rotation"
					}
				},
				{
					"sampler":5,
					"target":{
						"node":0,
						"path":"scale"
					}
				},
				{
					"sampler":6,
					"target":{
						"node":1,
						"path":"translation"
					}
				},
				{
					"sampler":7,
					"target":{
						"node":1,
						"path":"rotation"
					}
				},
				{
					"sampler":8,
					"target":{
						"node":1,
						"path":"scale"
					}
				}
			],
			"name":"Bumper_Hit_React_Armature.001",
			"samplers":[
				{
					"input":15,
					"interpolation":"STEP",
					"output":26
				},
				{
					"input":15,
					"interpolation":"STEP",
					"output":27
				},
				{
					"input":15,
					"interpolation":"STEP",
					"output":28
				},
				{
					"input":15,
					"interpolation":"STEP",
					"output":29
				},
				{
					"input":15,
					"interpolation":"STEP",
					"output":30
				},
				{
					"input":15,
					"interpolation":"STEP",
					"output":31
				},
				{
					"input":15,
					"interpolation":"STEP",
					"output":32
				},
				{
					"input":15,
					"interpolation":"STEP",
					"output":33
				},
				{
					"input":15,
					"interpolation":"STEP",
					"output":34
				}
			]
		},
		{
			"channels":[
				{
					"sampler":0,
					"target":{
						"node":2,
						"path":"translation"
					}
				},
				{
					"sampler":1,
					"target":{
						"node":2,
						"path":"rotation"
					}
				},
				{
					"sampler":2,
					"target":{
						"node":2,
						"path":"scale"
					}
				},
				{
					"sampler":3,
					"target":{
						"node":0,
						"path":"translation"
					}
				},
				{
					"sampler":4,
					"target":{
						"node":0,
						"path":"rotation"
					}
				},
				{
					"sampler":5,
					"target":{
						"node":0,
						"path":"scale"
					}
				},
				{
					"sampler":6,
					"target":{
						"node":1,
						"path":"translation"
					}
				},
				{
					"sampler":7,
					"target":{
						"node":1,
						"path":"rotation"
					}
				},
				{
					"sampler":8,
					"target":{
						"node":1,
						"path":"scale"
					}
				}
			],
			"name":"dinoArmAction",
			"samplers":[
				{
					"input":15,
					"interpolation":"STEP",
					"output":35
				},
				{
					"input":15,
					"interpolation":"STEP",
					"output":36
				},
				{
					"input":15,
					"interpolation":"STEP",
					"output":37
				},
				{
					"input":15,
					"interpolation":"STEP",
					"output":38
				},
				{
					"input":20,
					"interpolation":"LINEAR",
					"output":39
				},
				{
					"input":15,
					"interpolation":"STEP",
					"output":40
				},
				{
					"input":15,
					"interpolation":"STEP",
					"output":41
				},
				{
					"input":15,
					"interpolation":"STEP",
					"output":42
				},
				{
					"input":15,
					"interpolation":"STEP",
					"output":43
				}
			]
		},
		{
			"channels":[
				{
					"sampler":0,
					"target":{
						"node":2,
						"path":"translation"
					}
				},
				{
					"sampler":1,
					"target":{
						"node":2,
						"path":"rotation"
					}
				},
				{
					"sampler":2,
					"target":{
						"node":2,
						"path":"scale"
					}
				},
				{
					"sampler":3,
					"target":{
						"node":0,
						"path":"translation"
					}
				},
				{
					"sampler":4,
					"target":{
						"node":0,
						"path":"rotation"
					}
				},
				{
					"sampler":5,
					"target":{
						"node":0,
						"path":"scale"
					}
				},
				{
					"sampler":6,
					"target":{
						"node":1,
						"path":"translation"
					}
				},
				{
					"sampler":7,
					"target":{
						"node":1,
						"path":"rotation"
					}
				},
				{
					"sampler":8,
					"target":{
						"node":1,
						"path":"scale"
					}
				}
			],
			"name":"heartArmAction",
			"samplers":[
				{
					"input":15,
					"interpolation":"STEP",
					"output":44
				},
				{
					"input":15,
					"interpolation":"STEP",
					"output":45
				},
				{
					"input":15,
					"interpolation":"STEP",
					"output":46
				},
				{
					"input":15,
					"interpolation":"STEP",
					"output":47
				},
				{
					"input":20,
					"interpolation":"LINEAR",
					"output":48
				},
				{
					"input":15,
					"interpolation":"STEP",
					"output":49
				},
				{
					"input":15,
					"interpolation":"STEP",
					"output":50
				},
				{
					"input":15,
					"interpolation":"STEP",
					"output":51
				},
				{
					"input":20,
					"interpolation":"LINEAR",
					"output":52
				}
			]
		},
		{
			"channels":[
				{
					"sampler":0,
					"target":{
						"node":2,
						"path":"translation"
					}
				},
				{
					"sampler":1,
					"target":{
						"node":2,
						"path":"rotation"
					}
				},
				{
					"sampler":2,
					"target":{
						"node":2,
						"path":"scale"
					}
				},
				{
					"sampler":3,
					"target":{
						"node":0,
						"path":"translation"
					}
				},
				{
					"sampler":4,
					"target":{
						"node":0,
						"path":"rotation"
					}
				},
				{
					"sampler":5,
					"target":{
						"node":0,
						"path":"scale"
					}
				},
				{
					"sampler":6,
					"target":{
						"node":1,
						"path":"translation"
					}
				},
				{
					"sampler":7,
					"target":{
						"node":1,
						"path":"rotation"
					}
				},
				{
					"sampler":8,
					"target":{
						"node":1,
						"path":"scale"
					}
				}
			],
			"name":"ladybugArmAction",
			"samplers":[
				{
					"input":15,
					"interpolation":"STEP",
					"output":53
				},
				{
					"input":15,
					"interpolation":"STEP",
					"output":54
				},
				{
					"input":15,
					"interpolation":"STEP",
					"output":55
				},
				{
					"input":20,
					"interpolation":"LINEAR",
					"output":56
				},
				{
					"input":15,
					"interpolation":"STEP",
					"output":57
				},
				{
					"input":15,
					"interpolation":"STEP",
					"output":58
				},
				{
					"input":15,
					"interpolation":"STEP",
					"output":59
				},
				{
					"input":15,
					"interpolation":"STEP",
					"output":60
				},
				{
					"input":15,
					"interpolation":"STEP",
					"output":61
				}
			]
		},
		{
			"channels":[
				{
					"sampler":0,
					"target":{
						"node":2,
						"path":"translation"
					}
				},
				{
					"sampler":1,
					"target":{
						"node":2,
						"path":"rotation"
					}
				},
				{
					"sampler":2,
					"target":{
						"node":2,
						"path":"scale"
					}
				},
				{
					"sampler":3,
					"target":{
						"node":0,
						"path":"translation"
					}
				},
				{
					"sampler":4,
					"target":{
						"node":0,
						"path":"rotation"
					}
				},
				{
					"sampler":5,
					"target":{
						"node":0,
						"path":"scale"
					}
				},
				{
					"sampler":6,
					"target":{
						"node":1,
						"path":"translation"
					}
				},
				{
					"sampler":7,
					"target":{
						"node":1,
						"path":"rotation"
					}
				},
				{
					"sampler":8,
					"target":{
						"node":1,
						"path":"scale"
					}
				}
			],
			"name":"turtleArmAction",
			"samplers":[
				{
					"input":15,
					"interpolation":"STEP",
					"output":62
				},
				{
					"input":15,
					"interpolation":"STEP",
					"output":63
				},
				{
					"input":15,
					"interpolation":"STEP",
					"output":64
				},
				{
					"input":20,
					"interpolation":"LINEAR",
					"output":65
				},
				{
					"input":15,
					"interpolation":"STEP",
					"output":66
				},
				{
					"input":15,
					"interpolation":"STEP",
					"output":67
				},
				{
					"input":15,
					"interpolation":"STEP",
					"output":68
				},
				{
					"input":15,
					"interpolation":"STEP",
					"output":69
				},
				{
					"input":15,
					"interpolation":"STEP",
					"output":70
				}
			]
		}
	],
	"materials":[
		{
			"emissiveFactor":[
				1,
				1,
				1
			],
			"emissiveTexture":{
				"index":0
			},
			"extensions":{
				"KHR_materials_emissive_strength":{
					"emissiveStrength":5
				}
			},
			"name":"DCL.AvatarWearables_Emissive",
			"pbrMetallicRoughness":{
				"baseColorTexture":{
					"index":1
				},
				"metallicFactor":0,
				"roughnessFactor":0.5
			}
		},
		{
			"doubleSided":true,
			"name":"zPrint",
			"pbrMetallicRoughness":{
				"metallicFactor":0,
				"roughnessFactor":0.5
			}
		}
	],
	"meshes":[
		{
			"name":"Cube.003",
			"primitives":[
				{
					"attributes":{
						"POSITION":0,
						"NORMAL":1,
						"TEXCOORD_0":2,
						"TANGENT":3,
						"JOINTS_0":4,
						"WEIGHTS_0":5
					},
					"indices":6,
					"material":0
				},
				{
					"attributes":{
						"POSITION":7,
						"NORMAL":8,
						"TEXCOORD_0":9,
						"TANGENT":10,
						"JOINTS_0":11,
						"WEIGHTS_0":12
					},
					"indices":13,
					"material":1
				}
			]
		}
	],
	"textures":[
		{
			"sampler":0,
			"source":0
		},
		{
			"sampler":0,
			"source":0
		}
	],
	"images":[
		{
			"mimeType":"image/png",
			"name":"AvatarWearables_TX",
			"uri":"tex/AvatarWearables_TX.png"
		}
	],
	"skins":[
		{
			"inverseBindMatrices":14,
			"joints":[
				2,
				0,
				1
			],
			"name":"heartArm"
		}
	],
	"accessors":[
		{
			"bufferView":0,
			"componentType":5126,
			"count":902,
			"max":[
				1.0244461297988892,
				1.6714729070663452,
				1.3452075719833374
			],
			"min":[
				-1.0244461297988892,
				0.05919221043586731,
				-0.656210720539093
			],
			"type":"VEC3"
		},
		{
			"bufferView":1,
			"componentType":5126,
			"count":902,
			"type":"VEC3"
		},
		{
			"bufferView":2,
			"componentType":5126,
			"count":902,
			"type":"VEC2"
		},
		{
			"bufferView":3,
			"componentType":5126,
			"count":902,
			"type":"VEC4"
		},
		{
			"bufferView":4,
			"componentType":5121,
			"count":902,
			"type":"VEC4"
		},
		{
			"bufferView":5,
			"componentType":5126,
			"count":902,
			"type":"VEC4"
		},
		{
			"bufferView":6,
			"componentType":5123,
			"count":1608,
			"type":"SCALAR"
		},
		{
			"bufferView":7,
			"componentType":5126,
			"count":1691,
			"max":[
				1.0556530952453613,
				1.5019760131835938,
				1.3154994249343872
			],
			"min":[
				-1.0556530952453613,
				0,
				-0.6873412132263184
			],
			"type":"VEC3"
		},
		{
			"bufferView":8,
			"componentType":5126,
			"count":1691,
			"type":"VEC3"
		},
		{
			"bufferView":9,
			"componentType":5126,
			"count":1691,
			"type":"VEC2"
		},
		{
			"bufferView":10,
			"componentType":5126,
			"count":1691,
			"type":"VEC4"
		},
		{
			"bufferView":11,
			"componentType":5121,
			"count":1691,
			"type":"VEC4"
		},
		{
			"bufferView":12,
			"componentType":5126,
			"count":1691,
			"type":"VEC4"
		},
		{
			"bufferView":13,
			"componentType":5123,
			"count":4194,
			"type":"SCALAR"
		},
		{
			"bufferView":14,
			"componentType":5126,
			"count":3,
			"type":"MAT4"
		},
		{
			"bufferView":15,
			"componentType":5126,
			"count":2,
			"max":[
				0.5
			],
			"min":[
				0
			],
			"type":"SCALAR"
		},
		{
			"bufferView":16,
			"componentType":5126,
			"count":2,
			"type":"VEC3"
		},
		{
			"bufferView":17,
			"componentType":5126,
			"count":2,
			"type":"VEC4"
		},
		{
			"bufferView":18,
			"componentType":5126,
			"count":2,
			"type":"VEC3"
		},
		{
			"bufferView":19,
			"componentType":5126,
			"count":2,
			"type":"VEC3"
		},
		{
			"bufferView":20,
			"componentType":5126,
			"count":31,
			"max":[
				0.5
			],
			"min":[
				0
			],
			"type":"SCALAR"
		},
		{
			"bufferView":21,
			"componentType":5126,
			"count":31,
			"type":"VEC4"
		},
		{
			"bufferView":22,
			"componentType":5126,
			"count":2,
			"type":"VEC3"
		},
		{
			"bufferView":23,
			"componentType":5126,
			"count":2,
			"type":"VEC3"
		},
		{
			"bufferView":24,
			"componentType":5126,
			"count":2,
			"type":"VEC4"
		},
		{
			"bufferView":25,
			"componentType":5126,
			"count":2,
			"type":"VEC3"
		},
		{
			"bufferView":26,
			"componentType":5126,
			"count":2,
			"type":"VEC3"
		},
		{
			"bufferView":27,
			"componentType":5126,
			"count":2,
			"type":"VEC4"
		},
		{
			"bufferView":28,
			"componentType":5126,
			"count":2,
			"type":"VEC3"
		},
		{
			"bufferView":29,
			"componentType":5126,
			"count":2,
			"type":"VEC3"
		},
		{
			"bufferView":30,
			"componentType":5126,
			"count":2,
			"type":"VEC4"
		},
		{
			"bufferView":31,
			"componentType":5126,
			"count":2,
			"type":"VEC3"
		},
		{
			"bufferView":32,
			"componentType":5126,
			"count":2,
			"type":"VEC3"
		},
		{
			"bufferView":33,
			"componentType":5126,
			"count":2,
			"type":"VEC4"
		},
		{
			"bufferView":34,
			"componentType":5126,
			"count":2,
			"type":"VEC3"
		},
		{
			"bufferView":35,
			"componentType":5126,
			"count":2,
			"type":"VEC3"
		},
		{
			"bufferView":36,
			"componentType":5126,
			"count":2,
			"type":"VEC4"
		},
		{
			"bufferView":37,
			"componentType":5126,
			"count":2,
			"type":"VEC3"
		},
		{
			"bufferView":38,
			"componentType":5126,
			"count":2,
			"type":"VEC3"
		},
		{
			"bufferView":39,
			"componentType":5126,
			"count":31,
			"type":"VEC4"
		},
		{
			"bufferView":40,
			"componentType":5126,
			"count":2,
			"type":"VEC3"
		},
		{
			"bufferView":41,
			"componentType":5126,
			"count":2,
			"type":"VEC3"
		},
		{
			"bufferView":42,
			"componentType":5126,
			"count":2,
			"type":"VEC4"
		},
		{
			"bufferView":43,
			"componentType":5126,
			"count":2,
			"type":"VEC3"
		},
		{
			"bufferView":44,
			"componentType":5126,
			"count":2,
			"type":"VEC3"
		},
		{
			"bufferView":45,
			"componentType":5126,
			"count":2,
			"type":"VEC4"
		},
		{
			"bufferView":46,
			"componentType":5126,
			"count":2,
			"type":"VEC3"
		},
		{
			"bufferView":47,
			"componentType":5126,
			"count":2,
			"type":"VEC3"
		},
		{
			"bufferView":48,
			"componentType":5126,
			"count":31,
			"type":"VEC4"
		},
		{
			"bufferView":49,
			"componentType":5126,
			"count":2,
			"type":"VEC3"
		},
		{
			"bufferView":50,
			"componentType":5126,
			"count":2,
			"type":"VEC3"
		},
		{
			"bufferView":51,
			"componentType":5126,
			"count":2,
			"type":"VEC4"
		},
		{
			"bufferView":52,
			"componentType":5126,
			"count":31,
			"type":"VEC3"
		},
		{
			"bufferView":53,
			"componentType":5126,
			"count":2,
			"type":"VEC3"
		},
		{
			"bufferView":54,
			"componentType":5126,
			"count":2,
			"type":"VEC4"
		},
		{
			"bufferView":55,
			"componentType":5126,
			"count":2,
			"type":"VEC3"
		},
		{
			"bufferView":56,
			"componentType":5126,
			"count":31,
			"type":"VEC3"
		},
		{
			"bufferView":57,
			"componentType":5126,
			"count":2,
			"type":"VEC4"
		},
		{
			"bufferView":58,
			"componentType":5126,
			"count":2,
			"type":"VEC3"
		},
		{
			"bufferView":59,
			"componentType":5126,
			"count":2,
			"type":"VEC3"
		},
		{
			"bufferView":60,
			"componentType":5126,
			"count":2,
			"type":"VEC4"
		},
		{
			"bufferView":61,
			"componentType":5126,
			"count":2,
			"type":"VEC3"
		},
		{
			"bufferView":62,
			"componentType":5126,
			"count":2,
			"type":"VEC3"
		},
		{
			"bufferView":63,
			"componentType":5126,
			"count":2,
			"type":"VEC4"
		},
		{
			"bufferView":64,
			"componentType":5126,
			"count":2,
			"type":"VEC3"
		},
		{
			"bufferView":65,
			"componentType":5126,
			"count":31,
			"type":"VEC3"
		},
		{
			"bufferView":66,
			"componentType":5126,
			"count":2,
			"type":"VEC4"
		},
		{
			"bufferView":67,
			"componentType":5126,
			"count":2,
			"type":"VEC3"
		},
		{
			"bufferView":68,
			"componentType":5126,
			"count":2,
			"type":"VEC3"
		},
		{
			"bufferView":69,
			"componentType":5126,
			"count":2,
			"type":"VEC4"
		},
		{
			"bufferView":70,
			"componentType":5126,
			"count":2,
			"type":"VEC3"
		}
	],
	"bufferViews":[
		{
			"buffer":0,
			"byteLength":10824,
			"byteOffset":0,
			"target":34962
		},
		{
			"buffer":0,
			"byteLength":10824,
			"byteOffset":10824,
			"target":34962
		},
		{
			"buffer":0,
			"byteLength":7216,
			"byteOffset":21648,
			"target":34962
		},
		{
			"buffer":0,
			"byteLength":14432,
			"byteOffset":28864,
			"target":34962
		},
		{
			"buffer":0,
			"byteLength":3608,
			"byteOffset":43296,
			"target":34962
		},
		{
			"buffer":0,
			"byteLength":14432,
			"byteOffset":46904,
			"target":34962
		},
		{
			"buffer":0,
			"byteLength":3216,
			"byteOffset":61336,
			"target":34963
		},
		{
			"buffer":0,
			"byteLength":20292,
			"byteOffset":64552,
			"target":34962
		},
		{
			"buffer":0,
			"byteLength":20292,
			"byteOffset":84844,
			"target":34962
		},
		{
			"buffer":0,
			"byteLength":13528,
			"byteOffset":105136,
			"target":34962
		},
		{
			"buffer":0,
			"byteLength":27056,
			"byteOffset":118664,
			"target":34962
		},
		{
			"buffer":0,
			"byteLength":6764,
			"byteOffset":145720,
			"target":34962
		},
		{
			"buffer":0,
			"byteLength":27056,
			"byteOffset":152484,
			"target":34962
		},
		{
			"buffer":0,
			"byteLength":8388,
			"byteOffset":179540,
			"target":34963
		},
		{
			"buffer":0,
			"byteLength":192,
			"byteOffset":187928
		},
		{
			"buffer":0,
			"byteLength":8,
			"byteOffset":188120
		},
		{
			"buffer":0,
			"byteLength":24,
			"byteOffset":188128
		},
		{
			"buffer":0,
			"byteLength":32,
			"byteOffset":188152
		},
		{
			"buffer":0,
			"byteLength":24,
			"byteOffset":188184
		},
		{
			"buffer":0,
			"byteLength":24,
			"byteOffset":188208
		},
		{
			"buffer":0,
			"byteLength":124,
			"byteOffset":188232
		},
		{
			"buffer":0,
			"byteLength":496,
			"byteOffset":188356
		},
		{
			"buffer":0,
			"byteLength":24,
			"byteOffset":188852
		},
		{
			"buffer":0,
			"byteLength":24,
			"byteOffset":188876
		},
		{
			"buffer":0,
			"byteLength":32,
			"byteOffset":188900
		},
		{
			"buffer":0,
			"byteLength":24,
			"byteOffset":188932
		},
		{
			"buffer":0,
			"byteLength":24,
			"byteOffset":188956
		},
		{
			"buffer":0,
			"byteLength":32,
			"byteOffset":188980
		},
		{
			"buffer":0,
			"byteLength":24,
			"byteOffset":189012
		},
		{
			"buffer":0,
			"byteLength":24,
			"byteOffset":189036
		},
		{
			"buffer":0,
			"byteLength":32,
			"byteOffset":189060
		},
		{
			"buffer":0,
			"byteLength":24,
			"byteOffset":189092
		},
		{
			"buffer":0,
			"byteLength":24,
			"byteOffset":189116
		},
		{
			"buffer":0,
			"byteLength":32,
			"byteOffset":189140
		},
		{
			"buffer":0,
			"byteLength":24,
			"byteOffset":189172
		},
		{
			"buffer":0,
			"byteLength":24,
			"byteOffset":189196
		},
		{
			"buffer":0,
			"byteLength":32,
			"byteOffset":189220
		},
		{
			"buffer":0,
			"byteLength":24,
			"byteOffset":189252
		},
		{
			"buffer":0,
			"byteLength":24,
			"byteOffset":189276
		},
		{
			"buffer":0,
			"byteLength":496,
			"byteOffset":189300
		},
		{
			"buffer":0,
			"byteLength":24,
			"byteOffset":189796
		},
		{
			"buffer":0,
			"byteLength":24,
			"byteOffset":189820
		},
		{
			"buffer":0,
			"byteLength":32,
			"byteOffset":189844
		},
		{
			"buffer":0,
			"byteLength":24,
			"byteOffset":189876
		},
		{
			"buffer":0,
			"byteLength":24,
			"byteOffset":189900
		},
		{
			"buffer":0,
			"byteLength":32,
			"byteOffset":189924
		},
		{
			"buffer":0,
			"byteLength":24,
			"byteOffset":189956
		},
		{
			"buffer":0,
			"byteLength":24,
			"byteOffset":189980
		},
		{
			"buffer":0,
			"byteLength":496,
			"byteOffset":190004
		},
		{
			"buffer":0,
			"byteLength":24,
			"byteOffset":190500
		},
		{
			"buffer":0,
			"byteLength":24,
			"byteOffset":190524
		},
		{
			"buffer":0,
			"byteLength":32,
			"byteOffset":190548
		},
		{
			"buffer":0,
			"byteLength":372,
			"byteOffset":190580
		},
		{
			"buffer":0,
			"byteLength":24,
			"byteOffset":190952
		},
		{
			"buffer":0,
			"byteLength":32,
			"byteOffset":190976
		},
		{
			"buffer":0,
			"byteLength":24,
			"byteOffset":191008
		},
		{
			"buffer":0,
			"byteLength":372,
			"byteOffset":191032
		},
		{
			"buffer":0,
			"byteLength":32,
			"byteOffset":191404
		},
		{
			"buffer":0,
			"byteLength":24,
			"byteOffset":191436
		},
		{
			"buffer":0,
			"byteLength":24,
			"byteOffset":191460
		},
		{
			"buffer":0,
			"byteLength":32,
			"byteOffset":191484
		},
		{
			"buffer":0,
			"byteLength":24,
			"byteOffset":191516
		},
		{
			"buffer":0,
			"byteLength":24,
			"byteOffset":191540
		},
		{
			"buffer":0,
			"byteLength":32,
			"byteOffset":191564
		},
		{
			"buffer":0,
			"byteLength":24,
			"byteOffset":191596
		},
		{
			"buffer":0,
			"byteLength":372,
			"byteOffset":191620
		},
		{
			"buffer":0,
			"byteLength":32,
			"byteOffset":191992
		},
		{
			"buffer":0,
			"byteLength":24,
			"byteOffset":192024
		},
		{
			"buffer":0,
			"byteLength":24,
			"byteOffset":192048
		},
		{
			"buffer":0,
			"byteLength":32,
			"byteOffset":192072
		},
		{
			"buffer":0,
			"byteLength":24,
			"byteOffset":192104
		}
	],
	"samplers":[
		{
			"magFilter":9729,
			"minFilter":9987
		}
	],
	"buffers":[
		{
			"byteLength":192128,
			"uri":"vehicle.heart.01.bin"
		}
	]
}
