{
	"asset":{
		"generator":"Khronos glTF Blender I/O v4.1.63",
		"version":"2.0"
	},
	"extensionsUsed":[
		"KHR_materials_emissive_strength"
	],
	"scene":0,
	"scenes":[
		{
			"name":"Scene",
			"nodes":[
				4
			]
		}
	],
	"nodes":[
		{
			"name":"Bone.001",
			"rotation":[
				0,
				1.1920927533992653e-07,
				0,
				1
			],
			"translation":[
				0,
				0.21503335237503052,
				-0.15129007399082184
			]
		},
		{
			"name":"Bone.002",
			"rotation":[
				0.8441776037216187,
				-4.7300162009378255e-07,
				-4.2647769760151277e-07,
				0.536063551902771
			],
			"translation":[
				1.3492757489075302e-07,
				0.6537389159202576,
				1.280400276184082
			]
		},
		{
			"children":[
				0,
				1
			],
			"name":"Bone"
		},
		{
			"mesh":0,
			"name":"dinoCart2",
			"skin":0
		},
		{
			"children":[
				3,
				2
			],
			"name":"dinoArm"
		}
	],
	"animations":[
		{
			"channels":[
				{
					"sampler":0,
					"target":{
						"node":2,
						"path":"translation"
					}
				},
				{
					"sampler":1,
					"target":{
						"node":2,
						"path":"rotation"
					}
				},
				{
					"sampler":2,
					"target":{
						"node":2,
						"path":"scale"
					}
				},
				{
					"sampler":3,
					"target":{
						"node":0,
						"path":"translation"
					}
				},
				{
					"sampler":4,
					"target":{
						"node":0,
						"path":"rotation"
					}
				},
				{
					"sampler":5,
					"target":{
						"node":0,
						"path":"scale"
					}
				},
				{
					"sampler":6,
					"target":{
						"node":1,
						"path":"translation"
					}
				},
				{
					"sampler":7,
					"target":{
						"node":1,
						"path":"rotation"
					}
				},
				{
					"sampler":8,
					"target":{
						"node":1,
						"path":"scale"
					}
				}
			],
			"name":"bugArmAction",
			"samplers":[
				{
					"input":13,
					"interpolation":"STEP",
					"output":14
				},
				{
					"input":13,
					"interpolation":"STEP",
					"output":15
				},
				{
					"input":13,
					"interpolation":"STEP",
					"output":16
				},
				{
					"input":13,
					"interpolation":"STEP",
					"output":17
				},
				{
					"input":18,
					"interpolation":"LINEAR",
					"output":19
				},
				{
					"input":13,
					"interpolation":"STEP",
					"output":20
				},
				{
					"input":13,
					"interpolation":"STEP",
					"output":21
				},
				{
					"input":13,
					"interpolation":"STEP",
					"output":22
				},
				{
					"input":13,
					"interpolation":"STEP",
					"output":23
				}
			]
		},
		{
			"channels":[
				{
					"sampler":0,
					"target":{
						"node":2,
						"path":"translation"
					}
				},
				{
					"sampler":1,
					"target":{
						"node":2,
						"path":"rotation"
					}
				},
				{
					"sampler":2,
					"target":{
						"node":2,
						"path":"scale"
					}
				},
				{
					"sampler":3,
					"target":{
						"node":0,
						"path":"translation"
					}
				},
				{
					"sampler":4,
					"target":{
						"node":0,
						"path":"rotation"
					}
				},
				{
					"sampler":5,
					"target":{
						"node":0,
						"path":"scale"
					}
				},
				{
					"sampler":6,
					"target":{
						"node":1,
						"path":"translation"
					}
				},
				{
					"sampler":7,
					"target":{
						"node":1,
						"path":"rotation"
					}
				},
				{
					"sampler":8,
					"target":{
						"node":1,
						"path":"scale"
					}
				}
			],
			"name":"Bumper_Hit_React_Armature.001",
			"samplers":[
				{
					"input":13,
					"interpolation":"STEP",
					"output":24
				},
				{
					"input":13,
					"interpolation":"STEP",
					"output":25
				},
				{
					"input":13,
					"interpolation":"STEP",
					"output":26
				},
				{
					"input":13,
					"interpolation":"STEP",
					"output":27
				},
				{
					"input":13,
					"interpolation":"STEP",
					"output":28
				},
				{
					"input":13,
					"interpolation":"STEP",
					"output":29
				},
				{
					"input":13,
					"interpolation":"STEP",
					"output":30
				},
				{
					"input":13,
					"interpolation":"STEP",
					"output":31
				},
				{
					"input":13,
					"interpolation":"STEP",
					"output":32
				}
			]
		},
		{
			"channels":[
				{
					"sampler":0,
					"target":{
						"node":2,
						"path":"translation"
					}
				},
				{
					"sampler":1,
					"target":{
						"node":2,
						"path":"rotation"
					}
				},
				{
					"sampler":2,
					"target":{
						"node":2,
						"path":"scale"
					}
				},
				{
					"sampler":3,
					"target":{
						"node":0,
						"path":"translation"
					}
				},
				{
					"sampler":4,
					"target":{
						"node":0,
						"path":"rotation"
					}
				},
				{
					"sampler":5,
					"target":{
						"node":0,
						"path":"scale"
					}
				},
				{
					"sampler":6,
					"target":{
						"node":1,
						"path":"translation"
					}
				},
				{
					"sampler":7,
					"target":{
						"node":1,
						"path":"rotation"
					}
				},
				{
					"sampler":8,
					"target":{
						"node":1,
						"path":"scale"
					}
				}
			],
			"name":"dinoArmAction",
			"samplers":[
				{
					"input":13,
					"interpolation":"STEP",
					"output":33
				},
				{
					"input":13,
					"interpolation":"STEP",
					"output":34
				},
				{
					"input":13,
					"interpolation":"STEP",
					"output":35
				},
				{
					"input":13,
					"interpolation":"STEP",
					"output":36
				},
				{
					"input":18,
					"interpolation":"LINEAR",
					"output":37
				},
				{
					"input":13,
					"interpolation":"STEP",
					"output":38
				},
				{
					"input":13,
					"interpolation":"STEP",
					"output":39
				},
				{
					"input":18,
					"interpolation":"LINEAR",
					"output":40
				},
				{
					"input":13,
					"interpolation":"STEP",
					"output":41
				}
			]
		},
		{
			"channels":[
				{
					"sampler":0,
					"target":{
						"node":2,
						"path":"translation"
					}
				},
				{
					"sampler":1,
					"target":{
						"node":2,
						"path":"rotation"
					}
				},
				{
					"sampler":2,
					"target":{
						"node":2,
						"path":"scale"
					}
				},
				{
					"sampler":3,
					"target":{
						"node":0,
						"path":"translation"
					}
				},
				{
					"sampler":4,
					"target":{
						"node":0,
						"path":"rotation"
					}
				},
				{
					"sampler":5,
					"target":{
						"node":0,
						"path":"scale"
					}
				},
				{
					"sampler":6,
					"target":{
						"node":1,
						"path":"translation"
					}
				},
				{
					"sampler":7,
					"target":{
						"node":1,
						"path":"rotation"
					}
				},
				{
					"sampler":8,
					"target":{
						"node":1,
						"path":"scale"
					}
				}
			],
			"name":"heartArmAction",
			"samplers":[
				{
					"input":13,
					"interpolation":"STEP",
					"output":42
				},
				{
					"input":13,
					"interpolation":"STEP",
					"output":43
				},
				{
					"input":13,
					"interpolation":"STEP",
					"output":44
				},
				{
					"input":13,
					"interpolation":"STEP",
					"output":45
				},
				{
					"input":18,
					"interpolation":"LINEAR",
					"output":46
				},
				{
					"input":13,
					"interpolation":"STEP",
					"output":47
				},
				{
					"input":13,
					"interpolation":"STEP",
					"output":48
				},
				{
					"input":13,
					"interpolation":"STEP",
					"output":49
				},
				{
					"input":18,
					"interpolation":"LINEAR",
					"output":50
				}
			]
		},
		{
			"channels":[
				{
					"sampler":0,
					"target":{
						"node":2,
						"path":"translation"
					}
				},
				{
					"sampler":1,
					"target":{
						"node":2,
						"path":"rotation"
					}
				},
				{
					"sampler":2,
					"target":{
						"node":2,
						"path":"scale"
					}
				},
				{
					"sampler":3,
					"target":{
						"node":0,
						"path":"translation"
					}
				},
				{
					"sampler":4,
					"target":{
						"node":0,
						"path":"rotation"
					}
				},
				{
					"sampler":5,
					"target":{
						"node":0,
						"path":"scale"
					}
				},
				{
					"sampler":6,
					"target":{
						"node":1,
						"path":"translation"
					}
				},
				{
					"sampler":7,
					"target":{
						"node":1,
						"path":"rotation"
					}
				},
				{
					"sampler":8,
					"target":{
						"node":1,
						"path":"scale"
					}
				}
			],
			"name":"ladybugArmAction",
			"samplers":[
				{
					"input":13,
					"interpolation":"STEP",
					"output":51
				},
				{
					"input":13,
					"interpolation":"STEP",
					"output":52
				},
				{
					"input":13,
					"interpolation":"STEP",
					"output":53
				},
				{
					"input":18,
					"interpolation":"LINEAR",
					"output":54
				},
				{
					"input":13,
					"interpolation":"STEP",
					"output":55
				},
				{
					"input":13,
					"interpolation":"STEP",
					"output":56
				},
				{
					"input":13,
					"interpolation":"STEP",
					"output":57
				},
				{
					"input":13,
					"interpolation":"STEP",
					"output":58
				},
				{
					"input":13,
					"interpolation":"STEP",
					"output":59
				}
			]
		},
		{
			"channels":[
				{
					"sampler":0,
					"target":{
						"node":2,
						"path":"translation"
					}
				},
				{
					"sampler":1,
					"target":{
						"node":2,
						"path":"rotation"
					}
				},
				{
					"sampler":2,
					"target":{
						"node":2,
						"path":"scale"
					}
				},
				{
					"sampler":3,
					"target":{
						"node":0,
						"path":"translation"
					}
				},
				{
					"sampler":4,
					"target":{
						"node":0,
						"path":"rotation"
					}
				},
				{
					"sampler":5,
					"target":{
						"node":0,
						"path":"scale"
					}
				},
				{
					"sampler":6,
					"target":{
						"node":1,
						"path":"translation"
					}
				},
				{
					"sampler":7,
					"target":{
						"node":1,
						"path":"rotation"
					}
				},
				{
					"sampler":8,
					"target":{
						"node":1,
						"path":"scale"
					}
				}
			],
			"name":"turtleArmAction",
			"samplers":[
				{
					"input":13,
					"interpolation":"STEP",
					"output":60
				},
				{
					"input":13,
					"interpolation":"STEP",
					"output":61
				},
				{
					"input":13,
					"interpolation":"STEP",
					"output":62
				},
				{
					"input":18,
					"interpolation":"LINEAR",
					"output":63
				},
				{
					"input":13,
					"interpolation":"STEP",
					"output":64
				},
				{
					"input":13,
					"interpolation":"STEP",
					"output":65
				},
				{
					"input":13,
					"interpolation":"STEP",
					"output":66
				},
				{
					"input":18,
					"interpolation":"LINEAR",
					"output":67
				},
				{
					"input":13,
					"interpolation":"STEP",
					"output":68
				}
			]
		}
	],
	"materials":[
		{
			"name":"DCL.AvatarWearables",
			"pbrMetallicRoughness":{
				"baseColorTexture":{
					"index":0
				},
				"metallicFactor":0,
				"roughnessFactor":0.5
			}
		},
		{
			"emissiveFactor":[
				1,
				1,
				1
			],
			"emissiveTexture":{
				"index":1
			},
			"extensions":{
				"KHR_materials_emissive_strength":{
					"emissiveStrength":5
				}
			},
			"name":"DCL.AvatarWearables_Emissive",
			"pbrMetallicRoughness":{
				"baseColorTexture":{
					"index":2
				},
				"metallicFactor":0,
				"roughnessFactor":0.5
			}
		}
	],
	"meshes":[
		{
			"name":"Cone.013",
			"primitives":[
				{
					"attributes":{
						"POSITION":0,
						"NORMAL":1,
						"TEXCOORD_0":2,
						"JOINTS_0":3,
						"WEIGHTS_0":4
					},
					"indices":5,
					"material":0
				},
				{
					"attributes":{
						"POSITION":6,
						"NORMAL":7,
						"TEXCOORD_0":8,
						"JOINTS_0":9,
						"WEIGHTS_0":10
					},
					"indices":11,
					"material":1
				}
			]
		}
	],
	"textures":[
		{
			"sampler":0,
			"source":0
		},
		{
			"sampler":0,
			"source":0
		},
		{
			"sampler":0,
			"source":0
		}
	],
	"images":[
		{
			"mimeType":"image/png",
			"name":"AvatarWearables_TX",
			"uri":"tex/AvatarWearables_TX.png"
		}
	],
	"skins":[
		{
			"inverseBindMatrices":12,
			"joints":[
				2,
				0,
				1
			],
			"name":"dinoArm"
		}
	],
	"accessors":[
		{
			"bufferView":0,
			"componentType":5126,
			"count":1158,
			"max":[
				1.0556529760360718,
				1.987369179725647,
				1.6156787872314453
			],
			"min":[
				-1.0556529760360718,
				-0.005579829216003418,
				-0.6873411536216736
			],
			"type":"VEC3"
		},
		{
			"bufferView":1,
			"componentType":5126,
			"count":1158,
			"type":"VEC3"
		},
		{
			"bufferView":2,
			"componentType":5126,
			"count":1158,
			"type":"VEC2"
		},
		{
			"bufferView":3,
			"componentType":5121,
			"count":1158,
			"type":"VEC4"
		},
		{
			"bufferView":4,
			"componentType":5126,
			"count":1158,
			"type":"VEC4"
		},
		{
			"bufferView":5,
			"componentType":5123,
			"count":3396,
			"type":"SCALAR"
		},
		{
			"bufferView":6,
			"componentType":5126,
			"count":573,
			"max":[
				1.0244460105895996,
				1.9575012922286987,
				1.2890920639038086
			],
			"min":[
				-1.0244460105895996,
				0.05919218063354492,
				-0.6562106013298035
			],
			"type":"VEC3"
		},
		{
			"bufferView":7,
			"componentType":5126,
			"count":573,
			"type":"VEC3"
		},
		{
			"bufferView":8,
			"componentType":5126,
			"count":573,
			"type":"VEC2"
		},
		{
			"bufferView":9,
			"componentType":5121,
			"count":573,
			"type":"VEC4"
		},
		{
			"bufferView":10,
			"componentType":5126,
			"count":573,
			"type":"VEC4"
		},
		{
			"bufferView":11,
			"componentType":5123,
			"count":1692,
			"type":"SCALAR"
		},
		{
			"bufferView":12,
			"componentType":5126,
			"count":3,
			"type":"MAT4"
		},
		{
			"bufferView":13,
			"componentType":5126,
			"count":2,
			"max":[
				0.5
			],
			"min":[
				0
			],
			"type":"SCALAR"
		},
		{
			"bufferView":14,
			"componentType":5126,
			"count":2,
			"type":"VEC3"
		},
		{
			"bufferView":15,
			"componentType":5126,
			"count":2,
			"type":"VEC4"
		},
		{
			"bufferView":16,
			"componentType":5126,
			"count":2,
			"type":"VEC3"
		},
		{
			"bufferView":17,
			"componentType":5126,
			"count":2,
			"type":"VEC3"
		},
		{
			"bufferView":18,
			"componentType":5126,
			"count":31,
			"max":[
				0.5
			],
			"min":[
				0
			],
			"type":"SCALAR"
		},
		{
			"bufferView":19,
			"componentType":5126,
			"count":31,
			"type":"VEC4"
		},
		{
			"bufferView":20,
			"componentType":5126,
			"count":2,
			"type":"VEC3"
		},
		{
			"bufferView":21,
			"componentType":5126,
			"count":2,
			"type":"VEC3"
		},
		{
			"bufferView":22,
			"componentType":5126,
			"count":2,
			"type":"VEC4"
		},
		{
			"bufferView":23,
			"componentType":5126,
			"count":2,
			"type":"VEC3"
		},
		{
			"bufferView":24,
			"componentType":5126,
			"count":2,
			"type":"VEC3"
		},
		{
			"bufferView":25,
			"componentType":5126,
			"count":2,
			"type":"VEC4"
		},
		{
			"bufferView":26,
			"componentType":5126,
			"count":2,
			"type":"VEC3"
		},
		{
			"bufferView":27,
			"componentType":5126,
			"count":2,
			"type":"VEC3"
		},
		{
			"bufferView":28,
			"componentType":5126,
			"count":2,
			"type":"VEC4"
		},
		{
			"bufferView":29,
			"componentType":5126,
			"count":2,
			"type":"VEC3"
		},
		{
			"bufferView":30,
			"componentType":5126,
			"count":2,
			"type":"VEC3"
		},
		{
			"bufferView":31,
			"componentType":5126,
			"count":2,
			"type":"VEC4"
		},
		{
			"bufferView":32,
			"componentType":5126,
			"count":2,
			"type":"VEC3"
		},
		{
			"bufferView":33,
			"componentType":5126,
			"count":2,
			"type":"VEC3"
		},
		{
			"bufferView":34,
			"componentType":5126,
			"count":2,
			"type":"VEC4"
		},
		{
			"bufferView":35,
			"componentType":5126,
			"count":2,
			"type":"VEC3"
		},
		{
			"bufferView":36,
			"componentType":5126,
			"count":2,
			"type":"VEC3"
		},
		{
			"bufferView":37,
			"componentType":5126,
			"count":31,
			"type":"VEC4"
		},
		{
			"bufferView":38,
			"componentType":5126,
			"count":2,
			"type":"VEC3"
		},
		{
			"bufferView":39,
			"componentType":5126,
			"count":2,
			"type":"VEC3"
		},
		{
			"bufferView":40,
			"componentType":5126,
			"count":31,
			"type":"VEC4"
		},
		{
			"bufferView":41,
			"componentType":5126,
			"count":2,
			"type":"VEC3"
		},
		{
			"bufferView":42,
			"componentType":5126,
			"count":2,
			"type":"VEC3"
		},
		{
			"bufferView":43,
			"componentType":5126,
			"count":2,
			"type":"VEC4"
		},
		{
			"bufferView":44,
			"componentType":5126,
			"count":2,
			"type":"VEC3"
		},
		{
			"bufferView":45,
			"componentType":5126,
			"count":2,
			"type":"VEC3"
		},
		{
			"bufferView":46,
			"componentType":5126,
			"count":31,
			"type":"VEC4"
		},
		{
			"bufferView":47,
			"componentType":5126,
			"count":2,
			"type":"VEC3"
		},
		{
			"bufferView":48,
			"componentType":5126,
			"count":2,
			"type":"VEC3"
		},
		{
			"bufferView":49,
			"componentType":5126,
			"count":2,
			"type":"VEC4"
		},
		{
			"bufferView":50,
			"componentType":5126,
			"count":31,
			"type":"VEC3"
		},
		{
			"bufferView":51,
			"componentType":5126,
			"count":2,
			"type":"VEC3"
		},
		{
			"bufferView":52,
			"componentType":5126,
			"count":2,
			"type":"VEC4"
		},
		{
			"bufferView":53,
			"componentType":5126,
			"count":2,
			"type":"VEC3"
		},
		{
			"bufferView":54,
			"componentType":5126,
			"count":31,
			"type":"VEC3"
		},
		{
			"bufferView":55,
			"componentType":5126,
			"count":2,
			"type":"VEC4"
		},
		{
			"bufferView":56,
			"componentType":5126,
			"count":2,
			"type":"VEC3"
		},
		{
			"bufferView":57,
			"componentType":5126,
			"count":2,
			"type":"VEC3"
		},
		{
			"bufferView":58,
			"componentType":5126,
			"count":2,
			"type":"VEC4"
		},
		{
			"bufferView":59,
			"componentType":5126,
			"count":2,
			"type":"VEC3"
		},
		{
			"bufferView":60,
			"componentType":5126,
			"count":2,
			"type":"VEC3"
		},
		{
			"bufferView":61,
			"componentType":5126,
			"count":2,
			"type":"VEC4"
		},
		{
			"bufferView":62,
			"componentType":5126,
			"count":2,
			"type":"VEC3"
		},
		{
			"bufferView":63,
			"componentType":5126,
			"count":31,
			"type":"VEC3"
		},
		{
			"bufferView":64,
			"componentType":5126,
			"count":2,
			"type":"VEC4"
		},
		{
			"bufferView":65,
			"componentType":5126,
			"count":2,
			"type":"VEC3"
		},
		{
			"bufferView":66,
			"componentType":5126,
			"count":2,
			"type":"VEC3"
		},
		{
			"bufferView":67,
			"componentType":5126,
			"count":31,
			"type":"VEC4"
		},
		{
			"bufferView":68,
			"componentType":5126,
			"count":2,
			"type":"VEC3"
		}
	],
	"bufferViews":[
		{
			"buffer":0,
			"byteLength":13896,
			"byteOffset":0,
			"target":34962
		},
		{
			"buffer":0,
			"byteLength":13896,
			"byteOffset":13896,
			"target":34962
		},
		{
			"buffer":0,
			"byteLength":9264,
			"byteOffset":27792,
			"target":34962
		},
		{
			"buffer":0,
			"byteLength":4632,
			"byteOffset":37056,
			"target":34962
		},
		{
			"buffer":0,
			"byteLength":18528,
			"byteOffset":41688,
			"target":34962
		},
		{
			"buffer":0,
			"byteLength":6792,
			"byteOffset":60216,
			"target":34963
		},
		{
			"buffer":0,
			"byteLength":6876,
			"byteOffset":67008,
			"target":34962
		},
		{
			"buffer":0,
			"byteLength":6876,
			"byteOffset":73884,
			"target":34962
		},
		{
			"buffer":0,
			"byteLength":4584,
			"byteOffset":80760,
			"target":34962
		},
		{
			"buffer":0,
			"byteLength":2292,
			"byteOffset":85344,
			"target":34962
		},
		{
			"buffer":0,
			"byteLength":9168,
			"byteOffset":87636,
			"target":34962
		},
		{
			"buffer":0,
			"byteLength":3384,
			"byteOffset":96804,
			"target":34963
		},
		{
			"buffer":0,
			"byteLength":192,
			"byteOffset":100188
		},
		{
			"buffer":0,
			"byteLength":8,
			"byteOffset":100380
		},
		{
			"buffer":0,
			"byteLength":24,
			"byteOffset":100388
		},
		{
			"buffer":0,
			"byteLength":32,
			"byteOffset":100412
		},
		{
			"buffer":0,
			"byteLength":24,
			"byteOffset":100444
		},
		{
			"buffer":0,
			"byteLength":24,
			"byteOffset":100468
		},
		{
			"buffer":0,
			"byteLength":124,
			"byteOffset":100492
		},
		{
			"buffer":0,
			"byteLength":496,
			"byteOffset":100616
		},
		{
			"buffer":0,
			"byteLength":24,
			"byteOffset":101112
		},
		{
			"buffer":0,
			"byteLength":24,
			"byteOffset":101136
		},
		{
			"buffer":0,
			"byteLength":32,
			"byteOffset":101160
		},
		{
			"buffer":0,
			"byteLength":24,
			"byteOffset":101192
		},
		{
			"buffer":0,
			"byteLength":24,
			"byteOffset":101216
		},
		{
			"buffer":0,
			"byteLength":32,
			"byteOffset":101240
		},
		{
			"buffer":0,
			"byteLength":24,
			"byteOffset":101272
		},
		{
			"buffer":0,
			"byteLength":24,
			"byteOffset":101296
		},
		{
			"buffer":0,
			"byteLength":32,
			"byteOffset":101320
		},
		{
			"buffer":0,
			"byteLength":24,
			"byteOffset":101352
		},
		{
			"buffer":0,
			"byteLength":24,
			"byteOffset":101376
		},
		{
			"buffer":0,
			"byteLength":32,
			"byteOffset":101400
		},
		{
			"buffer":0,
			"byteLength":24,
			"byteOffset":101432
		},
		{
			"buffer":0,
			"byteLength":24,
			"byteOffset":101456
		},
		{
			"buffer":0,
			"byteLength":32,
			"byteOffset":101480
		},
		{
			"buffer":0,
			"byteLength":24,
			"byteOffset":101512
		},
		{
			"buffer":0,
			"byteLength":24,
			"byteOffset":101536
		},
		{
			"buffer":0,
			"byteLength":496,
			"byteOffset":101560
		},
		{
			"buffer":0,
			"byteLength":24,
			"byteOffset":102056
		},
		{
			"buffer":0,
			"byteLength":24,
			"byteOffset":102080
		},
		{
			"buffer":0,
			"byteLength":496,
			"byteOffset":102104
		},
		{
			"buffer":0,
			"byteLength":24,
			"byteOffset":102600
		},
		{
			"buffer":0,
			"byteLength":24,
			"byteOffset":102624
		},
		{
			"buffer":0,
			"byteLength":32,
			"byteOffset":102648
		},
		{
			"buffer":0,
			"byteLength":24,
			"byteOffset":102680
		},
		{
			"buffer":0,
			"byteLength":24,
			"byteOffset":102704
		},
		{
			"buffer":0,
			"byteLength":496,
			"byteOffset":102728
		},
		{
			"buffer":0,
			"byteLength":24,
			"byteOffset":103224
		},
		{
			"buffer":0,
			"byteLength":24,
			"byteOffset":103248
		},
		{
			"buffer":0,
			"byteLength":32,
			"byteOffset":103272
		},
		{
			"buffer":0,
			"byteLength":372,
			"byteOffset":103304
		},
		{
			"buffer":0,
			"byteLength":24,
			"byteOffset":103676
		},
		{
			"buffer":0,
			"byteLength":32,
			"byteOffset":103700
		},
		{
			"buffer":0,
			"byteLength":24,
			"byteOffset":103732
		},
		{
			"buffer":0,
			"byteLength":372,
			"byteOffset":103756
		},
		{
			"buffer":0,
			"byteLength":32,
			"byteOffset":104128
		},
		{
			"buffer":0,
			"byteLength":24,
			"byteOffset":104160
		},
		{
			"buffer":0,
			"byteLength":24,
			"byteOffset":104184
		},
		{
			"buffer":0,
			"byteLength":32,
			"byteOffset":104208
		},
		{
			"buffer":0,
			"byteLength":24,
			"byteOffset":104240
		},
		{
			"buffer":0,
			"byteLength":24,
			"byteOffset":104264
		},
		{
			"buffer":0,
			"byteLength":32,
			"byteOffset":104288
		},
		{
			"buffer":0,
			"byteLength":24,
			"byteOffset":104320
		},
		{
			"buffer":0,
			"byteLength":372,
			"byteOffset":104344
		},
		{
			"buffer":0,
			"byteLength":32,
			"byteOffset":104716
		},
		{
			"buffer":0,
			"byteLength":24,
			"byteOffset":104748
		},
		{
			"buffer":0,
			"byteLength":24,
			"byteOffset":104772
		},
		{
			"buffer":0,
			"byteLength":496,
			"byteOffset":104796
		},
		{
			"buffer":0,
			"byteLength":24,
			"byteOffset":105292
		}
	],
	"samplers":[
		{
			"magFilter":9729,
			"minFilter":9987
		}
	],
	"buffers":[
		{
			"byteLength":105316,
			"uri":"vehicle.dino.02.bin"
		}
	]
}
