{
	"asset":{
		"generator":"Khronos glTF Blender I/O v4.1.63",
		"version":"2.0"
	},
	"scene":0,
	"scenes":[
		{
			"name":"Scene",
			"nodes":[
				4,
				5,
				6,
				7,
				8,
				9,
				10,
				11,
				12,
				13,
				14,
				15
			]
		}
	],
	"nodes":[
		{
			"mesh":0,
			"name":"hoverboat.fan.blades",
			"rotation":[
				0.7071067690849304,
				0,
				0,
				0.7071067690849304
			],
			"translation":[
				0,
				0.002769976854324341,
				-0.005437135696411133
			]
		},
		{
			"name":"hoverboat.fan.blades.pivot",
			"rotation":[
				0.5720613598823547,
				0.4156269431114197,
				-0.4156269431114197,
				0.5720614194869995
			],
			"translation":[
				0,
				0.002769976854324341,
				-0.005437135696411133
			]
		},
		{
			"children":[
				0,
				1
			],
			"name":"Bone.001",
			"rotation":[
				-0.7071067690849304,
				0,
				0,
				0.7071067690849304
			],
			"translation":[
				0,
				0.8548413515090942,
				-0.5249537825584412
			]
		},
		{
			"children":[
				2
			],
			"name":"Bone"
		},
		{
			"children":[
				3
			],
			"name":"hoverboat.armature",
			"translation":[
				0,
				0,
				0.05081513151526451
			]
		},
		{
			"mesh":1,
			"name":"hoverboat.dashboard",
			"translation":[
				0.4197472929954529,
				0.721288800239563,
				-0.2818796634674072
			]
		},
		{
			"mesh":2,
			"name":"hoverboat.seat",
			"scale":[
				0.23763178288936615,
				0.25,
				0.25
			],
			"translation":[
				0,
				0.19419628381729126,
				0
			]
		},
		{
			"mesh":3,
			"name":"hoverboat.steering.wheels",
			"rotation":[
				-0.42156368494033813,
				0,
				0,
				0.9067988395690918
			],
			"translation":[
				0,
				0.6512060165405273,
				0.6892130970954895
			]
		},
		{
			"mesh":4,
			"name":"hoverboat.steering.rod",
			"rotation":[
				-0.3813479542732239,
				0,
				0,
				0.924431562423706
			],
			"translation":[
				0,
				0.6512060165405273,
				0.6892130970954895
			]
		},
		{
			"mesh":5,
			"name":"hoverboat.skirt.body",
			"rotation":[
				0.7071068286895752,
				0,
				0,
				0.7071068286895752
			],
			"translation":[
				0,
				0,
				0.3558996319770813
			]
		},
		{
			"mesh":6,
			"name":"hoverboat.windshield",
			"rotation":[
				0.7071068286895752,
				0,
				0,
				0.7071068286895752
			],
			"translation":[
				0,
				0,
				0.3558996319770813
			]
		},
		{
			"mesh":7,
			"name":"hoverboat.fan.shroud.rim",
			"rotation":[
				0.7071068286895752,
				0,
				0,
				0.7071068286895752
			],
			"translation":[
				0,
				0,
				0.3558996319770813
			]
		},
		{
			"mesh":8,
			"name":"hoverboat..rudder",
			"scale":[
				0.02442808821797371,
				0.42748066782951355,
				0.10000002384185791
			],
			"translation":[
				0,
				0.8548392057418823,
				-0.6883804202079773
			]
		},
		{
			"mesh":9,
			"name":"hoverboat.fan.hub",
			"rotation":[
				0.7071068286895752,
				0,
				0,
				0.7071068286895752
			],
			"scale":[
				0.08136934787034988,
				0.22213292121887207,
				0.08136934787034988
			],
			"translation":[
				0,
				0.8548412322998047,
				-0.6013163328170776
			]
		},
		{
			"mesh":10,
			"name":"hoverboat.grill",
			"rotation":[
				0.7071068286895752,
				0,
				0,
				0.7071067690849304
			],
			"scale":[
				0.9692598581314087,
				0.9692598581314087,
				0.9692598581314087
			],
			"translation":[
				0,
				0.8643237948417664,
				-0.40072333812713623
			]
		},
		{
			"mesh":11,
			"name":"hoverboat_collider",
			"translation":[
				0,
				0.5,
				0.3149999976158142
			]
		}
	],
	"animations":[
		{
			"channels":[
				{
					"sampler":0,
					"target":{
						"node":3,
						"path":"translation"
					}
				},
				{
					"sampler":1,
					"target":{
						"node":3,
						"path":"rotation"
					}
				},
				{
					"sampler":2,
					"target":{
						"node":3,
						"path":"scale"
					}
				},
				{
					"sampler":3,
					"target":{
						"node":2,
						"path":"translation"
					}
				},
				{
					"sampler":4,
					"target":{
						"node":2,
						"path":"rotation"
					}
				},
				{
					"sampler":5,
					"target":{
						"node":2,
						"path":"scale"
					}
				}
			],
			"name":"Armature.001Action.001",
			"samplers":[
				{
					"input":57,
					"interpolation":"STEP",
					"output":58
				},
				{
					"input":57,
					"interpolation":"STEP",
					"output":59
				},
				{
					"input":57,
					"interpolation":"STEP",
					"output":60
				},
				{
					"input":57,
					"interpolation":"STEP",
					"output":61
				},
				{
					"input":62,
					"interpolation":"LINEAR",
					"output":63
				},
				{
					"input":57,
					"interpolation":"STEP",
					"output":64
				}
			]
		},
		{
			"channels":[
				{
					"sampler":0,
					"target":{
						"node":3,
						"path":"translation"
					}
				},
				{
					"sampler":1,
					"target":{
						"node":3,
						"path":"rotation"
					}
				},
				{
					"sampler":2,
					"target":{
						"node":3,
						"path":"scale"
					}
				},
				{
					"sampler":3,
					"target":{
						"node":2,
						"path":"translation"
					}
				},
				{
					"sampler":4,
					"target":{
						"node":2,
						"path":"rotation"
					}
				},
				{
					"sampler":5,
					"target":{
						"node":2,
						"path":"scale"
					}
				}
			],
			"name":"Bumper_Hit_React_Armature.001",
			"samplers":[
				{
					"input":65,
					"interpolation":"STEP",
					"output":66
				},
				{
					"input":65,
					"interpolation":"STEP",
					"output":67
				},
				{
					"input":65,
					"interpolation":"STEP",
					"output":68
				},
				{
					"input":65,
					"interpolation":"STEP",
					"output":69
				},
				{
					"input":65,
					"interpolation":"STEP",
					"output":70
				},
				{
					"input":65,
					"interpolation":"STEP",
					"output":71
				}
			]
		}
	],
	"materials":[
		{
			"name":"DCL.AvatarWearables",
			"pbrMetallicRoughness":{
				"baseColorTexture":{
					"index":0
				},
				"metallicFactor":0,
				"roughnessFactor":0.5
			}
		},
		{
			"alphaCutoff":0,
			"alphaMode":"MASK",
			"name":"glTF.grill",
			"normalTexture":{
				"index":1
			},
			"pbrMetallicRoughness":{
				"baseColorTexture":{
					"index":2
				}
			}
		},
		{
			"doubleSided":true,
			"name":"Hidden",
			"pbrMetallicRoughness":{}
		}
	],
	"meshes":[
		{
			"name":"Plane.001",
			"primitives":[
				{
					"attributes":{
						"POSITION":0,
						"NORMAL":1,
						"TEXCOORD_0":2,
						"TANGENT":3
					},
					"indices":4,
					"material":0
				}
			]
		},
		{
			"name":"Cube.010",
			"primitives":[
				{
					"attributes":{
						"POSITION":5,
						"NORMAL":6,
						"TEXCOORD_0":7,
						"TANGENT":8
					},
					"indices":9,
					"material":0
				}
			]
		},
		{
			"name":"Cube.011",
			"primitives":[
				{
					"attributes":{
						"POSITION":10,
						"NORMAL":11,
						"TEXCOORD_0":12,
						"TANGENT":13
					},
					"indices":14,
					"material":0
				}
			]
		},
		{
			"name":"Cylinder.013",
			"primitives":[
				{
					"attributes":{
						"POSITION":15,
						"NORMAL":16,
						"TEXCOORD_0":17
					},
					"indices":18,
					"material":0
				}
			]
		},
		{
			"name":"Cylinder.014",
			"primitives":[
				{
					"attributes":{
						"POSITION":19,
						"NORMAL":20,
						"TEXCOORD_0":21,
						"TANGENT":22
					},
					"indices":23,
					"material":0
				}
			]
		},
		{
			"name":"Cylinder.018",
			"primitives":[
				{
					"attributes":{
						"POSITION":24,
						"NORMAL":25,
						"TEXCOORD_0":26,
						"TANGENT":27
					},
					"indices":28,
					"material":0
				}
			]
		},
		{
			"name":"Cylinder.007",
			"primitives":[
				{
					"attributes":{
						"POSITION":29,
						"NORMAL":30,
						"TEXCOORD_0":31,
						"TANGENT":32
					},
					"indices":33,
					"material":0
				}
			]
		},
		{
			"name":"Cylinder.015",
			"primitives":[
				{
					"attributes":{
						"POSITION":34,
						"NORMAL":35,
						"TEXCOORD_0":36,
						"TANGENT":37
					},
					"indices":38,
					"material":0
				}
			]
		},
		{
			"name":"Cube.004",
			"primitives":[
				{
					"attributes":{
						"POSITION":39,
						"NORMAL":40,
						"TEXCOORD_0":41,
						"TANGENT":42
					},
					"indices":43,
					"material":0
				}
			]
		},
		{
			"name":"Cylinder.009",
			"primitives":[
				{
					"attributes":{
						"POSITION":44,
						"NORMAL":45,
						"TEXCOORD_0":46
					},
					"indices":47,
					"material":0
				}
			]
		},
		{
			"name":"Plane.002",
			"primitives":[
				{
					"attributes":{
						"POSITION":48,
						"NORMAL":49,
						"TEXCOORD_0":50
					},
					"indices":51,
					"material":1
				}
			]
		},
		{
			"name":"Cylinder.032",
			"primitives":[
				{
					"attributes":{
						"POSITION":52,
						"NORMAL":53,
						"TEXCOORD_0":54,
						"TANGENT":55
					},
					"indices":56,
					"material":2
				}
			]
		}
	],
	"textures":[
		{
			"sampler":0,
			"source":0
		},
		{
			"sampler":0,
			"source":1
		},
		{
			"sampler":0,
			"source":2
		}
	],
	"images":[
		{
			"mimeType":"image/png",
			"name":"AvatarWearables_TX",
			"uri":"tex/AvatarWearables_TX.png"
		},
		{
			"mimeType":"image/png",
			"name":"grill_nrm",
			"uri":"tex/grill_nrm.png"
		},
		{
			"mimeType":"image/png",
			"name":"grid_alpha",
			"uri":"tex/grid_alpha.png"
		}
	],
	"skins":[
		{
			"inverseBindMatrices":72,
			"joints":[
				3,
				2
			],
			"name":"hoverboat.armature"
		}
	],
	"accessors":[
		{
			"bufferView":0,
			"componentType":5126,
			"count":400,
			"max":[
				0.4153519868850708,
				0.4436924159526825,
				0.020329618826508522
			],
			"min":[
				-0.4396499693393707,
				-0.42570456862449646,
				-0.11052742600440979
			],
			"type":"VEC3"
		},
		{
			"bufferView":1,
			"componentType":5126,
			"count":400,
			"type":"VEC3"
		},
		{
			"bufferView":2,
			"componentType":5126,
			"count":400,
			"type":"VEC2"
		},
		{
			"bufferView":3,
			"componentType":5126,
			"count":400,
			"type":"VEC4"
		},
		{
			"bufferView":4,
			"componentType":5123,
			"count":1152,
			"type":"SCALAR"
		},
		{
			"bufferView":5,
			"componentType":5126,
			"count":68,
			"max":[
				-0.05793864279985428,
				-0.06960273534059525,
				1.3239842653274536
			],
			"min":[
				-0.7815559506416321,
				-0.21637089550495148,
				1.06466805934906
			],
			"type":"VEC3"
		},
		{
			"bufferView":6,
			"componentType":5126,
			"count":68,
			"type":"VEC3"
		},
		{
			"bufferView":7,
			"componentType":5126,
			"count":68,
			"type":"VEC2"
		},
		{
			"bufferView":8,
			"componentType":5126,
			"count":68,
			"type":"VEC4"
		},
		{
			"bufferView":9,
			"componentType":5123,
			"count":192,
			"type":"SCALAR"
		},
		{
			"bufferView":10,
			"componentType":5126,
			"count":134,
			"max":[
				1,
				2.5212244987487793,
				1.1443722248077393
			],
			"min":[
				-1,
				0.6291864514350891,
				-0.7782164216041565
			],
			"type":"VEC3"
		},
		{
			"bufferView":11,
			"componentType":5126,
			"count":134,
			"type":"VEC3"
		},
		{
			"bufferView":12,
			"componentType":5126,
			"count":134,
			"type":"VEC2"
		},
		{
			"bufferView":13,
			"componentType":5126,
			"count":134,
			"type":"VEC4"
		},
		{
			"bufferView":14,
			"componentType":5123,
			"count":186,
			"type":"SCALAR"
		},
		{
			"bufferView":15,
			"componentType":5126,
			"count":122,
			"max":[
				0.10000000149011612,
				0.008572390303015709,
				0.10000000149011612
			],
			"min":[
				-0.10000000149011612,
				-0.009999999776482582,
				-0.10000000149011612
			],
			"type":"VEC3"
		},
		{
			"bufferView":16,
			"componentType":5126,
			"count":122,
			"type":"VEC3"
		},
		{
			"bufferView":17,
			"componentType":5126,
			"count":122,
			"type":"VEC2"
		},
		{
			"bufferView":18,
			"componentType":5123,
			"count":420,
			"type":"SCALAR"
		},
		{
			"bufferView":19,
			"componentType":5126,
			"count":18,
			"max":[
				0.01820831187069416,
				-0.009999999776482582,
				0.02102513611316681
			],
			"min":[
				-0.018208304420113564,
				-0.4998655915260315,
				-0.010512566193938255
			],
			"type":"VEC3"
		},
		{
			"bufferView":20,
			"componentType":5126,
			"count":18,
			"type":"VEC3"
		},
		{
			"bufferView":21,
			"componentType":5126,
			"count":18,
			"type":"VEC2"
		},
		{
			"bufferView":22,
			"componentType":5126,
			"count":18,
			"type":"VEC4"
		},
		{
			"bufferView":23,
			"componentType":5123,
			"count":30,
			"type":"SCALAR"
		},
		{
			"bufferView":24,
			"componentType":5126,
			"count":1434,
			"max":[
				0.975409209728241,
				0.949500322341919,
				0.004084705375134945
			],
			"min":[
				-0.975409209728241,
				-1.0267835855484009,
				-1.477874517440796
			],
			"type":"VEC3"
		},
		{
			"bufferView":25,
			"componentType":5126,
			"count":1434,
			"type":"VEC3"
		},
		{
			"bufferView":26,
			"componentType":5126,
			"count":1434,
			"type":"VEC2"
		},
		{
			"bufferView":27,
			"componentType":5126,
			"count":1434,
			"type":"VEC4"
		},
		{
			"bufferView":28,
			"componentType":5123,
			"count":3204,
			"type":"SCALAR"
		},
		{
			"bufferView":29,
			"componentType":5126,
			"count":124,
			"max":[
				0.510949969291687,
				0.7591590881347656,
				-0.5343313217163086
			],
			"min":[
				-0.510949969291687,
				0.3114375174045563,
				-0.7077131271362305
			],
			"type":"VEC3"
		},
		{
			"bufferView":30,
			"componentType":5126,
			"count":124,
			"type":"VEC3"
		},
		{
			"bufferView":31,
			"componentType":5126,
			"count":124,
			"type":"VEC2"
		},
		{
			"bufferView":32,
			"componentType":5126,
			"count":124,
			"type":"VEC4"
		},
		{
			"bufferView":33,
			"componentType":5123,
			"count":192,
			"type":"SCALAR"
		},
		{
			"bufferView":34,
			"componentType":5126,
			"count":72,
			"max":[
				0.6239199638366699,
				-0.8058534264564514,
				-0.6019060015678406
			],
			"min":[
				-0.6239199638366699,
				-0.880853533744812,
				-1.4877263307571411
			],
			"type":"VEC3"
		},
		{
			"bufferView":35,
			"componentType":5126,
			"count":72,
			"type":"VEC3"
		},
		{
			"bufferView":36,
			"componentType":5126,
			"count":72,
			"type":"VEC2"
		},
		{
			"bufferView":37,
			"componentType":5126,
			"count":72,
			"type":"VEC4"
		},
		{
			"bufferView":38,
			"componentType":5123,
			"count":144,
			"type":"SCALAR"
		},
		{
			"bufferView":39,
			"componentType":5126,
			"count":40,
			"max":[
				1.5,
				1,
				0.9999999403953552
			],
			"min":[
				-1.5,
				-1,
				-0.9999994039535522
			],
			"type":"VEC3"
		},
		{
			"bufferView":40,
			"componentType":5126,
			"count":40,
			"type":"VEC3"
		},
		{
			"bufferView":41,
			"componentType":5126,
			"count":40,
			"type":"VEC2"
		},
		{
			"bufferView":42,
			"componentType":5126,
			"count":40,
			"type":"VEC4"
		},
		{
			"bufferView":43,
			"componentType":5123,
			"count":60,
			"type":"SCALAR"
		},
		{
			"bufferView":44,
			"componentType":5126,
			"count":285,
			"max":[
				1.3386932611465454,
				1.1360989809036255,
				1.338693618774414
			],
			"min":[
				-1.3386932611465454,
				0.05823516845703125,
				-1.3386929035186768
			],
			"type":"VEC3"
		},
		{
			"bufferView":45,
			"componentType":5126,
			"count":285,
			"type":"VEC3"
		},
		{
			"bufferView":46,
			"componentType":5126,
			"count":285,
			"type":"VEC2"
		},
		{
			"bufferView":47,
			"componentType":5123,
			"count":492,
			"type":"SCALAR"
		},
		{
			"bufferView":48,
			"componentType":5126,
			"count":12,
			"max":[
				0.4949021339416504,
				0.008036613464355469,
				0.5010347962379456
			],
			"min":[
				-0.4949021339416504,
				-0.14636339247226715,
				-0.48876941204071045
			],
			"type":"VEC3"
		},
		{
			"bufferView":49,
			"componentType":5126,
			"count":12,
			"type":"VEC3"
		},
		{
			"bufferView":50,
			"componentType":5126,
			"count":12,
			"type":"VEC2"
		},
		{
			"bufferView":51,
			"componentType":5123,
			"count":24,
			"type":"SCALAR"
		},
		{
			"bufferView":52,
			"componentType":5126,
			"count":22,
			"max":[
				0.4438789188861847,
				1.5,
				0.6432020664215088
			],
			"min":[
				-0.4438789188861847,
				-0.4915724992752075,
				-0.5466386675834656
			],
			"type":"VEC3"
		},
		{
			"bufferView":53,
			"componentType":5126,
			"count":22,
			"type":"VEC3"
		},
		{
			"bufferView":54,
			"componentType":5126,
			"count":22,
			"type":"VEC2"
		},
		{
			"bufferView":55,
			"componentType":5126,
			"count":22,
			"type":"VEC4"
		},
		{
			"bufferView":56,
			"componentType":5123,
			"count":36,
			"type":"SCALAR"
		},
		{
			"bufferView":57,
			"componentType":5126,
			"count":2,
			"max":[
				5
			],
			"min":[
				0.016666666666666666
			],
			"type":"SCALAR"
		},
		{
			"bufferView":58,
			"componentType":5126,
			"count":2,
			"type":"VEC3"
		},
		{
			"bufferView":59,
			"componentType":5126,
			"count":2,
			"type":"VEC4"
		},
		{
			"bufferView":60,
			"componentType":5126,
			"count":2,
			"type":"VEC3"
		},
		{
			"bufferView":61,
			"componentType":5126,
			"count":2,
			"type":"VEC3"
		},
		{
			"bufferView":62,
			"componentType":5126,
			"count":300,
			"max":[
				5
			],
			"min":[
				0.016666666666666666
			],
			"type":"SCALAR"
		},
		{
			"bufferView":63,
			"componentType":5126,
			"count":300,
			"type":"VEC4"
		},
		{
			"bufferView":64,
			"componentType":5126,
			"count":2,
			"type":"VEC3"
		},
		{
			"bufferView":65,
			"componentType":5126,
			"count":2,
			"max":[
				1
			],
			"min":[
				0.016666666666666666
			],
			"type":"SCALAR"
		},
		{
			"bufferView":66,
			"componentType":5126,
			"count":2,
			"type":"VEC3"
		},
		{
			"bufferView":67,
			"componentType":5126,
			"count":2,
			"type":"VEC4"
		},
		{
			"bufferView":68,
			"componentType":5126,
			"count":2,
			"type":"VEC3"
		},
		{
			"bufferView":69,
			"componentType":5126,
			"count":2,
			"type":"VEC3"
		},
		{
			"bufferView":70,
			"componentType":5126,
			"count":2,
			"type":"VEC4"
		},
		{
			"bufferView":71,
			"componentType":5126,
			"count":2,
			"type":"VEC3"
		},
		{
			"bufferView":72,
			"componentType":5126,
			"count":2,
			"type":"MAT4"
		}
	],
	"bufferViews":[
		{
			"buffer":0,
			"byteLength":4800,
			"byteOffset":0,
			"target":34962
		},
		{
			"buffer":0,
			"byteLength":4800,
			"byteOffset":4800,
			"target":34962
		},
		{
			"buffer":0,
			"byteLength":3200,
			"byteOffset":9600,
			"target":34962
		},
		{
			"buffer":0,
			"byteLength":6400,
			"byteOffset":12800,
			"target":34962
		},
		{
			"buffer":0,
			"byteLength":2304,
			"byteOffset":19200,
			"target":34963
		},
		{
			"buffer":0,
			"byteLength":816,
			"byteOffset":21504,
			"target":34962
		},
		{
			"buffer":0,
			"byteLength":816,
			"byteOffset":22320,
			"target":34962
		},
		{
			"buffer":0,
			"byteLength":544,
			"byteOffset":23136,
			"target":34962
		},
		{
			"buffer":0,
			"byteLength":1088,
			"byteOffset":23680,
			"target":34962
		},
		{
			"buffer":0,
			"byteLength":384,
			"byteOffset":24768,
			"target":34963
		},
		{
			"buffer":0,
			"byteLength":1608,
			"byteOffset":25152,
			"target":34962
		},
		{
			"buffer":0,
			"byteLength":1608,
			"byteOffset":26760,
			"target":34962
		},
		{
			"buffer":0,
			"byteLength":1072,
			"byteOffset":28368,
			"target":34962
		},
		{
			"buffer":0,
			"byteLength":2144,
			"byteOffset":29440,
			"target":34962
		},
		{
			"buffer":0,
			"byteLength":372,
			"byteOffset":31584,
			"target":34963
		},
		{
			"buffer":0,
			"byteLength":1464,
			"byteOffset":31956,
			"target":34962
		},
		{
			"buffer":0,
			"byteLength":1464,
			"byteOffset":33420,
			"target":34962
		},
		{
			"buffer":0,
			"byteLength":976,
			"byteOffset":34884,
			"target":34962
		},
		{
			"buffer":0,
			"byteLength":840,
			"byteOffset":35860,
			"target":34963
		},
		{
			"buffer":0,
			"byteLength":216,
			"byteOffset":36700,
			"target":34962
		},
		{
			"buffer":0,
			"byteLength":216,
			"byteOffset":36916,
			"target":34962
		},
		{
			"buffer":0,
			"byteLength":144,
			"byteOffset":37132,
			"target":34962
		},
		{
			"buffer":0,
			"byteLength":288,
			"byteOffset":37276,
			"target":34962
		},
		{
			"buffer":0,
			"byteLength":60,
			"byteOffset":37564,
			"target":34963
		},
		{
			"buffer":0,
			"byteLength":17208,
			"byteOffset":37624,
			"target":34962
		},
		{
			"buffer":0,
			"byteLength":17208,
			"byteOffset":54832,
			"target":34962
		},
		{
			"buffer":0,
			"byteLength":11472,
			"byteOffset":72040,
			"target":34962
		},
		{
			"buffer":0,
			"byteLength":22944,
			"byteOffset":83512,
			"target":34962
		},
		{
			"buffer":0,
			"byteLength":6408,
			"byteOffset":106456,
			"target":34963
		},
		{
			"buffer":0,
			"byteLength":1488,
			"byteOffset":112864,
			"target":34962
		},
		{
			"buffer":0,
			"byteLength":1488,
			"byteOffset":114352,
			"target":34962
		},
		{
			"buffer":0,
			"byteLength":992,
			"byteOffset":115840,
			"target":34962
		},
		{
			"buffer":0,
			"byteLength":1984,
			"byteOffset":116832,
			"target":34962
		},
		{
			"buffer":0,
			"byteLength":384,
			"byteOffset":118816,
			"target":34963
		},
		{
			"buffer":0,
			"byteLength":864,
			"byteOffset":119200,
			"target":34962
		},
		{
			"buffer":0,
			"byteLength":864,
			"byteOffset":120064,
			"target":34962
		},
		{
			"buffer":0,
			"byteLength":576,
			"byteOffset":120928,
			"target":34962
		},
		{
			"buffer":0,
			"byteLength":1152,
			"byteOffset":121504,
			"target":34962
		},
		{
			"buffer":0,
			"byteLength":288,
			"byteOffset":122656,
			"target":34963
		},
		{
			"buffer":0,
			"byteLength":480,
			"byteOffset":122944,
			"target":34962
		},
		{
			"buffer":0,
			"byteLength":480,
			"byteOffset":123424,
			"target":34962
		},
		{
			"buffer":0,
			"byteLength":320,
			"byteOffset":123904,
			"target":34962
		},
		{
			"buffer":0,
			"byteLength":640,
			"byteOffset":124224,
			"target":34962
		},
		{
			"buffer":0,
			"byteLength":120,
			"byteOffset":124864,
			"target":34963
		},
		{
			"buffer":0,
			"byteLength":3420,
			"byteOffset":124984,
			"target":34962
		},
		{
			"buffer":0,
			"byteLength":3420,
			"byteOffset":128404,
			"target":34962
		},
		{
			"buffer":0,
			"byteLength":2280,
			"byteOffset":131824,
			"target":34962
		},
		{
			"buffer":0,
			"byteLength":984,
			"byteOffset":134104,
			"target":34963
		},
		{
			"buffer":0,
			"byteLength":144,
			"byteOffset":135088,
			"target":34962
		},
		{
			"buffer":0,
			"byteLength":144,
			"byteOffset":135232,
			"target":34962
		},
		{
			"buffer":0,
			"byteLength":96,
			"byteOffset":135376,
			"target":34962
		},
		{
			"buffer":0,
			"byteLength":48,
			"byteOffset":135472,
			"target":34963
		},
		{
			"buffer":0,
			"byteLength":264,
			"byteOffset":135520,
			"target":34962
		},
		{
			"buffer":0,
			"byteLength":264,
			"byteOffset":135784,
			"target":34962
		},
		{
			"buffer":0,
			"byteLength":176,
			"byteOffset":136048,
			"target":34962
		},
		{
			"buffer":0,
			"byteLength":352,
			"byteOffset":136224,
			"target":34962
		},
		{
			"buffer":0,
			"byteLength":72,
			"byteOffset":136576,
			"target":34963
		},
		{
			"buffer":0,
			"byteLength":8,
			"byteOffset":136648
		},
		{
			"buffer":0,
			"byteLength":24,
			"byteOffset":136656
		},
		{
			"buffer":0,
			"byteLength":32,
			"byteOffset":136680
		},
		{
			"buffer":0,
			"byteLength":24,
			"byteOffset":136712
		},
		{
			"buffer":0,
			"byteLength":24,
			"byteOffset":136736
		},
		{
			"buffer":0,
			"byteLength":1200,
			"byteOffset":136760
		},
		{
			"buffer":0,
			"byteLength":4800,
			"byteOffset":137960
		},
		{
			"buffer":0,
			"byteLength":24,
			"byteOffset":142760
		},
		{
			"buffer":0,
			"byteLength":8,
			"byteOffset":142784
		},
		{
			"buffer":0,
			"byteLength":24,
			"byteOffset":142792
		},
		{
			"buffer":0,
			"byteLength":32,
			"byteOffset":142816
		},
		{
			"buffer":0,
			"byteLength":24,
			"byteOffset":142848
		},
		{
			"buffer":0,
			"byteLength":24,
			"byteOffset":142872
		},
		{
			"buffer":0,
			"byteLength":32,
			"byteOffset":142896
		},
		{
			"buffer":0,
			"byteLength":24,
			"byteOffset":142928
		},
		{
			"buffer":0,
			"byteLength":128,
			"byteOffset":142952
		}
	],
	"samplers":[
		{
			"magFilter":9729,
			"minFilter":9987
		}
	],
	"buffers":[
		{
			"byteLength":143080,
			"uri":"vehicle.hoverboat.01.bin"
		}
	]
}
