{
	"asset":{
		"generator":"Khronos glTF Blender I/O v4.0.44",
		"version":"2.0"
	},
	"extensionsUsed":[
		"KHR_materials_emissive_strength"
	],
	"scene":0,
	"scenes":[
		{
			"name":"Scene",
			"nodes":[
				0
			]
		}
	],
	"nodes":[
		{
			"mesh":0,
			"name":"cageCart2",
			"rotation":[
				0,
				-0.15643447637557983,
				0,
				0.987688422203064
			],
			"scale":[
				1.0912452936172485,
				1.0912450551986694,
				1.0912452936172485
			]
		}
	],
	"materials":[
		{
			"name":"DCL.AvatarWearables",
			"pbrMetallicRoughness":{
				"baseColorTexture":{
					"index":0
				},
				"metallicFactor":0,
				"roughnessFactor":0.5
			}
		},
		{
			"emissiveFactor":[
				1,
				1,
				1
			],
			"emissiveTexture":{
				"index":1
			},
			"extensions":{
				"KHR_materials_emissive_strength":{
					"emissiveStrength":5
				}
			},
			"name":"DCL.AvatarWearables_Emissive",
			"pbrMetallicRoughness":{
				"baseColorTexture":{
					"index":2
				},
				"metallicFactor":0,
				"roughnessFactor":0.5
			}
		}
	],
	"meshes":[
		{
			"name":"Icosphere.003",
			"primitives":[
				{
					"attributes":{
						"POSITION":0,
						"NORMAL":1,
						"TEXCOORD_0":2
					},
					"indices":3,
					"material":0
				},
				{
					"attributes":{
						"POSITION":4,
						"NORMAL":5,
						"TEXCOORD_0":6
					},
					"indices":7,
					"material":1
				}
			]
		}
	],
	"textures":[
		{
			"sampler":0,
			"source":0
		},
		{
			"sampler":0,
			"source":0
		},
		{
			"sampler":0,
			"source":0
		}
	],
	"images":[
		{
			"mimeType":"image/jpeg",
			"name":"AvatarWearables_TX",
			"uri":"tex/AvatarWearables_TX.jpg"
		}
	],
	"accessors":[
		{
			"bufferView":0,
			"componentType":5126,
			"count":2157,
			"max":[
				1.0540146827697754,
				1.651043176651001,
				1.2476118803024292
			],
			"min":[
				-0.8795742988586426,
				0,
				-0.698154628276825
			],
			"type":"VEC3"
		},
		{
			"bufferView":1,
			"componentType":5126,
			"count":2157,
			"type":"VEC3"
		},
		{
			"bufferView":2,
			"componentType":5126,
			"count":2157,
			"type":"VEC2"
		},
		{
			"bufferView":3,
			"componentType":5123,
			"count":4218,
			"type":"SCALAR"
		},
		{
			"bufferView":4,
			"componentType":5126,
			"count":894,
			"max":[
				1.0254344940185547,
				1.623627781867981,
				1.2198591232299805
			],
			"min":[
				-0.8509941101074219,
				0.05424278974533081,
				-0.6693154573440552
			],
			"type":"VEC3"
		},
		{
			"bufferView":5,
			"componentType":5126,
			"count":894,
			"type":"VEC3"
		},
		{
			"bufferView":6,
			"componentType":5126,
			"count":894,
			"type":"VEC2"
		},
		{
			"bufferView":7,
			"componentType":5123,
			"count":1656,
			"type":"SCALAR"
		}
	],
	"bufferViews":[
		{
			"buffer":0,
			"byteLength":25884,
			"byteOffset":0,
			"target":34962
		},
		{
			"buffer":0,
			"byteLength":25884,
			"byteOffset":25884,
			"target":34962
		},
		{
			"buffer":0,
			"byteLength":17256,
			"byteOffset":51768,
			"target":34962
		},
		{
			"buffer":0,
			"byteLength":8436,
			"byteOffset":69024,
			"target":34963
		},
		{
			"buffer":0,
			"byteLength":10728,
			"byteOffset":77460,
			"target":34962
		},
		{
			"buffer":0,
			"byteLength":10728,
			"byteOffset":88188,
			"target":34962
		},
		{
			"buffer":0,
			"byteLength":7152,
			"byteOffset":98916,
			"target":34962
		},
		{
			"buffer":0,
			"byteLength":3312,
			"byteOffset":106068,
			"target":34963
		}
	],
	"samplers":[
		{
			"magFilter":9729,
			"minFilter":9987
		}
	],
	"buffers":[
		{
			"byteLength":109380,
			"uri":"vehicle.cage.02.bin"
		}
	]
}
