{
	"asset":{
		"generator":"Khronos glTF Blender I/O v4.0.44",
		"version":"2.0"
	},
	"extensionsUsed":[
		"KHR_materials_emissive_strength"
	],
	"scene":0,
	"scenes":[
		{
			"name":"Scene",
			"nodes":[
				4
			]
		}
	],
	"nodes":[
		{
			"name":"Bone.001",
			"rotation":[
				0.7071067690849304,
				-2.837897170593351e-07,
				-2.837897170593351e-07,
				0.7071067690849304
			],
			"translation":[
				-1.4498725420253322e-07,
				0.7438942193984985,
				2.405432939529419
			]
		},
		{
			"name":"Bone.002",
			"rotation":[
				-0.7071067690849304,
				0,
				0,
				0.7071067690849304
			],
			"translation":[
				0,
				0.7761673927307129,
				-1.1530662775039673
			]
		},
		{
			"children":[
				0,
				1
			],
			"name":"Bone"
		},
		{
			"mesh":0,
			"name":"turtCart",
			"skin":0
		},
		{
			"children":[
				3,
				2
			],
			"name":"turtleArm",
			"scale":[
				0.5150421261787415,
				0.5150421261787415,
				0.5150421261787415
			]
		}
	],
	"animations":[
		{
			"channels":[
				{
					"sampler":0,
					"target":{
						"node":2,
						"path":"translation"
					}
				},
				{
					"sampler":1,
					"target":{
						"node":2,
						"path":"rotation"
					}
				},
				{
					"sampler":2,
					"target":{
						"node":2,
						"path":"scale"
					}
				},
				{
					"sampler":3,
					"target":{
						"node":0,
						"path":"translation"
					}
				},
				{
					"sampler":4,
					"target":{
						"node":0,
						"path":"rotation"
					}
				},
				{
					"sampler":5,
					"target":{
						"node":0,
						"path":"scale"
					}
				},
				{
					"sampler":6,
					"target":{
						"node":1,
						"path":"translation"
					}
				},
				{
					"sampler":7,
					"target":{
						"node":1,
						"path":"rotation"
					}
				},
				{
					"sampler":8,
					"target":{
						"node":1,
						"path":"scale"
					}
				}
			],
			"name":"turtleArmAction",
			"samplers":[
				{
					"input":13,
					"interpolation":"STEP",
					"output":14
				},
				{
					"input":13,
					"interpolation":"STEP",
					"output":15
				},
				{
					"input":13,
					"interpolation":"STEP",
					"output":16
				},
				{
					"input":17,
					"interpolation":"LINEAR",
					"output":18
				},
				{
					"input":13,
					"interpolation":"STEP",
					"output":19
				},
				{
					"input":13,
					"interpolation":"STEP",
					"output":20
				},
				{
					"input":13,
					"interpolation":"STEP",
					"output":21
				},
				{
					"input":17,
					"interpolation":"LINEAR",
					"output":22
				},
				{
					"input":13,
					"interpolation":"STEP",
					"output":23
				}
			]
		}
	],
	"materials":[
		{
			"name":"DCL.AvatarWearables",
			"pbrMetallicRoughness":{
				"baseColorTexture":{
					"index":0
				},
				"metallicFactor":0,
				"roughnessFactor":0.5
			}
		},
		{
			"emissiveFactor":[
				1,
				1,
				1
			],
			"emissiveTexture":{
				"index":1
			},
			"extensions":{
				"KHR_materials_emissive_strength":{
					"emissiveStrength":5
				}
			},
			"name":"DCL.AvatarWearables_Emissive",
			"pbrMetallicRoughness":{
				"baseColorTexture":{
					"index":2
				},
				"metallicFactor":0,
				"roughnessFactor":0.5
			}
		}
	],
	"meshes":[
		{
			"name":"Cylinder.008",
			"primitives":[
				{
					"attributes":{
						"POSITION":0,
						"NORMAL":1,
						"TEXCOORD_0":2,
						"JOINTS_0":3,
						"WEIGHTS_0":4
					},
					"indices":5,
					"material":0
				},
				{
					"attributes":{
						"POSITION":6,
						"NORMAL":7,
						"TEXCOORD_0":8,
						"JOINTS_0":9,
						"WEIGHTS_0":10
					},
					"indices":11,
					"material":1
				}
			]
		}
	],
	"textures":[
		{
			"sampler":0,
			"source":0
		},
		{
			"sampler":0,
			"source":0
		},
		{
			"sampler":0,
			"source":0
		}
	],
	"images":[
		{
			"mimeType":"image/jpeg",
			"name":"AvatarWearables_TX",
			"uri":"tex/AvatarWearables_TX.jpg"
		}
	],
	"skins":[
		{
			"inverseBindMatrices":12,
			"joints":[
				2,
				0,
				1
			],
			"name":"turtleArm"
		}
	],
	"accessors":[
		{
			"bufferView":0,
			"componentType":5126,
			"count":1665,
			"max":[
				1.0556528568267822,
				1.2363862991333008,
				1.5707812309265137
			],
			"min":[
				-1.0556528568267822,
				-1.4901160305669237e-09,
				-0.9310328364372253
			],
			"type":"VEC3"
		},
		{
			"bufferView":1,
			"componentType":5126,
			"count":1665,
			"type":"VEC3"
		},
		{
			"bufferView":2,
			"componentType":5126,
			"count":1665,
			"type":"VEC2"
		},
		{
			"bufferView":3,
			"componentType":5121,
			"count":1665,
			"type":"VEC4"
		},
		{
			"bufferView":4,
			"componentType":5126,
			"count":1665,
			"type":"VEC4"
		},
		{
			"bufferView":5,
			"componentType":5123,
			"count":4224,
			"type":"SCALAR"
		},
		{
			"bufferView":6,
			"componentType":5126,
			"count":619,
			"max":[
				1.025380253791809,
				1.2181862592697144,
				1.5756278038024902
			],
			"min":[
				-1.0253801345825195,
				0.059192195534706116,
				-0.7164573073387146
			],
			"type":"VEC3"
		},
		{
			"bufferView":7,
			"componentType":5126,
			"count":619,
			"type":"VEC3"
		},
		{
			"bufferView":8,
			"componentType":5126,
			"count":619,
			"type":"VEC2"
		},
		{
			"bufferView":9,
			"componentType":5121,
			"count":619,
			"type":"VEC4"
		},
		{
			"bufferView":10,
			"componentType":5126,
			"count":619,
			"type":"VEC4"
		},
		{
			"bufferView":11,
			"componentType":5123,
			"count":1800,
			"type":"SCALAR"
		},
		{
			"bufferView":12,
			"componentType":5126,
			"count":3,
			"type":"MAT4"
		},
		{
			"bufferView":13,
			"componentType":5126,
			"count":2,
			"max":[
				0.5
			],
			"min":[
				0
			],
			"type":"SCALAR"
		},
		{
			"bufferView":14,
			"componentType":5126,
			"count":2,
			"type":"VEC3"
		},
		{
			"bufferView":15,
			"componentType":5126,
			"count":2,
			"type":"VEC4"
		},
		{
			"bufferView":16,
			"componentType":5126,
			"count":2,
			"type":"VEC3"
		},
		{
			"bufferView":17,
			"componentType":5126,
			"count":31,
			"max":[
				0.5
			],
			"min":[
				0
			],
			"type":"SCALAR"
		},
		{
			"bufferView":18,
			"componentType":5126,
			"count":31,
			"type":"VEC3"
		},
		{
			"bufferView":19,
			"componentType":5126,
			"count":2,
			"type":"VEC4"
		},
		{
			"bufferView":20,
			"componentType":5126,
			"count":2,
			"type":"VEC3"
		},
		{
			"bufferView":21,
			"componentType":5126,
			"count":2,
			"type":"VEC3"
		},
		{
			"bufferView":22,
			"componentType":5126,
			"count":31,
			"type":"VEC4"
		},
		{
			"bufferView":23,
			"componentType":5126,
			"count":2,
			"type":"VEC3"
		}
	],
	"bufferViews":[
		{
			"buffer":0,
			"byteLength":19980,
			"byteOffset":0,
			"target":34962
		},
		{
			"buffer":0,
			"byteLength":19980,
			"byteOffset":19980,
			"target":34962
		},
		{
			"buffer":0,
			"byteLength":13320,
			"byteOffset":39960,
			"target":34962
		},
		{
			"buffer":0,
			"byteLength":6660,
			"byteOffset":53280,
			"target":34962
		},
		{
			"buffer":0,
			"byteLength":26640,
			"byteOffset":59940,
			"target":34962
		},
		{
			"buffer":0,
			"byteLength":8448,
			"byteOffset":86580,
			"target":34963
		},
		{
			"buffer":0,
			"byteLength":7428,
			"byteOffset":95028,
			"target":34962
		},
		{
			"buffer":0,
			"byteLength":7428,
			"byteOffset":102456,
			"target":34962
		},
		{
			"buffer":0,
			"byteLength":4952,
			"byteOffset":109884,
			"target":34962
		},
		{
			"buffer":0,
			"byteLength":2476,
			"byteOffset":114836,
			"target":34962
		},
		{
			"buffer":0,
			"byteLength":9904,
			"byteOffset":117312,
			"target":34962
		},
		{
			"buffer":0,
			"byteLength":3600,
			"byteOffset":127216,
			"target":34963
		},
		{
			"buffer":0,
			"byteLength":192,
			"byteOffset":130816
		},
		{
			"buffer":0,
			"byteLength":8,
			"byteOffset":131008
		},
		{
			"buffer":0,
			"byteLength":24,
			"byteOffset":131016
		},
		{
			"buffer":0,
			"byteLength":32,
			"byteOffset":131040
		},
		{
			"buffer":0,
			"byteLength":24,
			"byteOffset":131072
		},
		{
			"buffer":0,
			"byteLength":124,
			"byteOffset":131096
		},
		{
			"buffer":0,
			"byteLength":372,
			"byteOffset":131220
		},
		{
			"buffer":0,
			"byteLength":32,
			"byteOffset":131592
		},
		{
			"buffer":0,
			"byteLength":24,
			"byteOffset":131624
		},
		{
			"buffer":0,
			"byteLength":24,
			"byteOffset":131648
		},
		{
			"buffer":0,
			"byteLength":496,
			"byteOffset":131672
		},
		{
			"buffer":0,
			"byteLength":24,
			"byteOffset":132168
		}
	],
	"samplers":[
		{
			"magFilter":9729,
			"minFilter":9987
		}
	],
	"buffers":[
		{
			"byteLength":132192,
			"uri":"vehicle.turtle.01.bin"
		}
	]
}
