{
	"asset":{
		"generator":"Khronos glTF Blender I/O v4.0.44",
		"version":"2.0"
	},
	"extensionsUsed":[
		"KHR_materials_emissive_strength"
	],
	"scene":0,
	"scenes":[
		{
			"name":"Scene",
			"nodes":[
				3
			]
		}
	],
	"nodes":[
		{
			"name":"Bone.001",
			"rotation":[
				0.7071067094802856,
				-1.994959717421807e-07,
				-1.994959717421807e-07,
				0.7071068286895752
			],
			"scale":[
				1,
				0.9999999403953552,
				0.9999999403953552
			],
			"translation":[
				-1.1140466682491024e-07,
				0.3633701801300049,
				1.1521944999694824
			]
		},
		{
			"children":[
				0
			],
			"name":"Bone"
		},
		{
			"mesh":0,
			"name":"ladybugCart",
			"skin":0
		},
		{
			"children":[
				2,
				1
			],
			"name":"ladybugArm"
		}
	],
	"animations":[
		{
			"channels":[
				{
					"sampler":0,
					"target":{
						"node":1,
						"path":"translation"
					}
				},
				{
					"sampler":1,
					"target":{
						"node":1,
						"path":"rotation"
					}
				},
				{
					"sampler":2,
					"target":{
						"node":1,
						"path":"scale"
					}
				},
				{
					"sampler":3,
					"target":{
						"node":0,
						"path":"translation"
					}
				},
				{
					"sampler":4,
					"target":{
						"node":0,
						"path":"rotation"
					}
				},
				{
					"sampler":5,
					"target":{
						"node":0,
						"path":"scale"
					}
				}
			],
			"name":"ladybugArmAction",
			"samplers":[
				{
					"input":19,
					"interpolation":"STEP",
					"output":20
				},
				{
					"input":19,
					"interpolation":"STEP",
					"output":21
				},
				{
					"input":19,
					"interpolation":"STEP",
					"output":22
				},
				{
					"input":23,
					"interpolation":"LINEAR",
					"output":24
				},
				{
					"input":19,
					"interpolation":"STEP",
					"output":25
				},
				{
					"input":19,
					"interpolation":"STEP",
					"output":26
				}
			]
		}
	],
	"materials":[
		{
			"doubleSided":true,
			"name":"ladybug",
			"pbrMetallicRoughness":{
				"baseColorTexture":{
					"index":0
				},
				"metallicFactor":0,
				"roughnessFactor":0.5
			}
		},
		{
			"emissiveFactor":[
				1,
				1,
				1
			],
			"emissiveTexture":{
				"index":1
			},
			"extensions":{
				"KHR_materials_emissive_strength":{
					"emissiveStrength":5
				}
			},
			"name":"DCL.AvatarWearables_Emissive",
			"pbrMetallicRoughness":{
				"baseColorTexture":{
					"index":2
				},
				"metallicFactor":0,
				"roughnessFactor":0.5
			}
		},
		{
			"name":"DCL.AvatarWearables",
			"pbrMetallicRoughness":{
				"baseColorTexture":{
					"index":3
				},
				"metallicFactor":0,
				"roughnessFactor":0.5
			}
		}
	],
	"meshes":[
		{
			"name":"Sphere.021",
			"primitives":[
				{
					"attributes":{
						"POSITION":0,
						"NORMAL":1,
						"TEXCOORD_0":2,
						"JOINTS_0":3,
						"WEIGHTS_0":4
					},
					"indices":5,
					"material":0
				},
				{
					"attributes":{
						"POSITION":6,
						"NORMAL":7,
						"TEXCOORD_0":8,
						"JOINTS_0":9,
						"WEIGHTS_0":10
					},
					"indices":11,
					"material":1
				},
				{
					"attributes":{
						"POSITION":12,
						"NORMAL":13,
						"TEXCOORD_0":14,
						"JOINTS_0":15,
						"WEIGHTS_0":16
					},
					"indices":17,
					"material":2
				}
			]
		}
	],
	"textures":[
		{
			"sampler":0,
			"source":0
		},
		{
			"sampler":0,
			"source":1
		},
		{
			"sampler":0,
			"source":1
		},
		{
			"sampler":0,
			"source":1
		}
	],
	"images":[
		{
			"mimeType":"image/jpeg",
			"name":"ladyBug",
			"uri":"tex/ladyBug.jpg"
		},
		{
			"mimeType":"image/jpeg",
			"name":"AvatarWearables_TX",
			"uri":"tex/AvatarWearables_TX.jpg"
		}
	],
	"skins":[
		{
			"inverseBindMatrices":18,
			"joints":[
				1,
				0
			],
			"name":"ladybugArm"
		}
	],
	"accessors":[
		{
			"bufferView":0,
			"componentType":5126,
			"count":300,
			"max":[
				0.9661568403244019,
				0.9733403325080872,
				1.4642465114593506
			],
			"min":[
				-0.9661567807197571,
				0.14650480449199677,
				-0.6539354920387268
			],
			"type":"VEC3"
		},
		{
			"bufferView":1,
			"componentType":5126,
			"count":300,
			"type":"VEC3"
		},
		{
			"bufferView":2,
			"componentType":5126,
			"count":300,
			"type":"VEC2"
		},
		{
			"bufferView":3,
			"componentType":5121,
			"count":300,
			"type":"VEC4"
		},
		{
			"bufferView":4,
			"componentType":5126,
			"count":300,
			"type":"VEC4"
		},
		{
			"bufferView":5,
			"componentType":5123,
			"count":1074,
			"type":"SCALAR"
		},
		{
			"bufferView":6,
			"componentType":5126,
			"count":539,
			"max":[
				1.02444589138031,
				0.981583297252655,
				1.4956556558609009
			],
			"min":[
				-1.02444589138031,
				0.05919225513935089,
				-0.6562106609344482
			],
			"type":"VEC3"
		},
		{
			"bufferView":7,
			"componentType":5126,
			"count":539,
			"type":"VEC3"
		},
		{
			"bufferView":8,
			"componentType":5126,
			"count":539,
			"type":"VEC2"
		},
		{
			"bufferView":9,
			"componentType":5121,
			"count":539,
			"type":"VEC4"
		},
		{
			"bufferView":10,
			"componentType":5126,
			"count":539,
			"type":"VEC4"
		},
		{
			"bufferView":11,
			"componentType":5123,
			"count":1860,
			"type":"SCALAR"
		},
		{
			"bufferView":12,
			"componentType":5126,
			"count":877,
			"max":[
				1.0556528568267822,
				0.8245024681091309,
				1.3154990673065186
			],
			"min":[
				-1.0556528568267822,
				5.960464477539063e-08,
				-0.6873411536216736
			],
			"type":"VEC3"
		},
		{
			"bufferView":13,
			"componentType":5126,
			"count":877,
			"type":"VEC3"
		},
		{
			"bufferView":14,
			"componentType":5126,
			"count":877,
			"type":"VEC2"
		},
		{
			"bufferView":15,
			"componentType":5121,
			"count":877,
			"type":"VEC4"
		},
		{
			"bufferView":16,
			"componentType":5126,
			"count":877,
			"type":"VEC4"
		},
		{
			"bufferView":17,
			"componentType":5123,
			"count":2328,
			"type":"SCALAR"
		},
		{
			"bufferView":18,
			"componentType":5126,
			"count":2,
			"type":"MAT4"
		},
		{
			"bufferView":19,
			"componentType":5126,
			"count":2,
			"max":[
				0.5
			],
			"min":[
				0
			],
			"type":"SCALAR"
		},
		{
			"bufferView":20,
			"componentType":5126,
			"count":2,
			"type":"VEC3"
		},
		{
			"bufferView":21,
			"componentType":5126,
			"count":2,
			"type":"VEC4"
		},
		{
			"bufferView":22,
			"componentType":5126,
			"count":2,
			"type":"VEC3"
		},
		{
			"bufferView":23,
			"componentType":5126,
			"count":31,
			"max":[
				0.5
			],
			"min":[
				0
			],
			"type":"SCALAR"
		},
		{
			"bufferView":24,
			"componentType":5126,
			"count":31,
			"type":"VEC3"
		},
		{
			"bufferView":25,
			"componentType":5126,
			"count":2,
			"type":"VEC4"
		},
		{
			"bufferView":26,
			"componentType":5126,
			"count":2,
			"type":"VEC3"
		}
	],
	"bufferViews":[
		{
			"buffer":0,
			"byteLength":3600,
			"byteOffset":0,
			"target":34962
		},
		{
			"buffer":0,
			"byteLength":3600,
			"byteOffset":3600,
			"target":34962
		},
		{
			"buffer":0,
			"byteLength":2400,
			"byteOffset":7200,
			"target":34962
		},
		{
			"buffer":0,
			"byteLength":1200,
			"byteOffset":9600,
			"target":34962
		},
		{
			"buffer":0,
			"byteLength":4800,
			"byteOffset":10800,
			"target":34962
		},
		{
			"buffer":0,
			"byteLength":2148,
			"byteOffset":15600,
			"target":34963
		},
		{
			"buffer":0,
			"byteLength":6468,
			"byteOffset":17748,
			"target":34962
		},
		{
			"buffer":0,
			"byteLength":6468,
			"byteOffset":24216,
			"target":34962
		},
		{
			"buffer":0,
			"byteLength":4312,
			"byteOffset":30684,
			"target":34962
		},
		{
			"buffer":0,
			"byteLength":2156,
			"byteOffset":34996,
			"target":34962
		},
		{
			"buffer":0,
			"byteLength":8624,
			"byteOffset":37152,
			"target":34962
		},
		{
			"buffer":0,
			"byteLength":3720,
			"byteOffset":45776,
			"target":34963
		},
		{
			"buffer":0,
			"byteLength":10524,
			"byteOffset":49496,
			"target":34962
		},
		{
			"buffer":0,
			"byteLength":10524,
			"byteOffset":60020,
			"target":34962
		},
		{
			"buffer":0,
			"byteLength":7016,
			"byteOffset":70544,
			"target":34962
		},
		{
			"buffer":0,
			"byteLength":3508,
			"byteOffset":77560,
			"target":34962
		},
		{
			"buffer":0,
			"byteLength":14032,
			"byteOffset":81068,
			"target":34962
		},
		{
			"buffer":0,
			"byteLength":4656,
			"byteOffset":95100,
			"target":34963
		},
		{
			"buffer":0,
			"byteLength":128,
			"byteOffset":99756
		},
		{
			"buffer":0,
			"byteLength":8,
			"byteOffset":99884
		},
		{
			"buffer":0,
			"byteLength":24,
			"byteOffset":99892
		},
		{
			"buffer":0,
			"byteLength":32,
			"byteOffset":99916
		},
		{
			"buffer":0,
			"byteLength":24,
			"byteOffset":99948
		},
		{
			"buffer":0,
			"byteLength":124,
			"byteOffset":99972
		},
		{
			"buffer":0,
			"byteLength":372,
			"byteOffset":100096
		},
		{
			"buffer":0,
			"byteLength":32,
			"byteOffset":100468
		},
		{
			"buffer":0,
			"byteLength":24,
			"byteOffset":100500
		}
	],
	"samplers":[
		{
			"magFilter":9729,
			"minFilter":9987
		}
	],
	"buffers":[
		{
			"byteLength":100524,
			"uri":"vehicle.ladybug.01.bin"
		}
	]
}
