{
	"asset":{
		"generator":"Khronos glTF Blender I/O v4.0.44",
		"version":"2.0"
	},
	"extensionsUsed":[
		"KHR_materials_emissive_strength"
	],
	"scene":0,
	"scenes":[
		{
			"name":"Scene",
			"nodes":[
				4
			]
		}
	],
	"nodes":[
		{
			"name":"Bone.001",
			"scale":[
				1.0000001192092896,
				1.0000001192092896,
				1.0000001192092896
			],
			"translation":[
				0,
				1.6930880546569824,
				-0.374024897813797
			]
		},
		{
			"name":"Bone.002",
			"scale":[
				1.0000001192092896,
				1.0000001192092896,
				1.0000001192092896
			],
			"translation":[
				0,
				0.36566415429115295,
				1.7072230577468872
			]
		},
		{
			"children":[
				0,
				1
			],
			"name":"Bone",
			"scale":[
				1.0000001192092896,
				1.0000001192092896,
				1.0000001192092896
			]
		},
		{
			"mesh":0,
			"name":"heartCart2",
			"skin":0
		},
		{
			"children":[
				3,
				2
			],
			"name":"heartArm",
			"scale":[
				0.7493755221366882,
				0.7493755221366882,
				0.7493755221366882
			]
		}
	],
	"animations":[
		{
			"channels":[
				{
					"sampler":0,
					"target":{
						"node":0,
						"path":"rotation"
					}
				},
				{
					"sampler":1,
					"target":{
						"node":1,
						"path":"scale"
					}
				}
			],
			"name":"heartArmAction",
			"samplers":[
				{
					"input":15,
					"interpolation":"LINEAR",
					"output":16
				},
				{
					"input":17,
					"interpolation":"LINEAR",
					"output":18
				}
			]
		}
	],
	"materials":[
		{
			"emissiveFactor":[
				1,
				1,
				1
			],
			"emissiveTexture":{
				"index":0
			},
			"extensions":{
				"KHR_materials_emissive_strength":{
					"emissiveStrength":5
				}
			},
			"name":"DCL.AvatarWearables_Emissive",
			"pbrMetallicRoughness":{
				"baseColorTexture":{
					"index":1
				},
				"metallicFactor":0,
				"roughnessFactor":0.5
			}
		},
		{
			"doubleSided":true,
			"name":"zPrint2",
			"pbrMetallicRoughness":{
				"baseColorTexture":{
					"index":2
				},
				"metallicFactor":0,
				"roughnessFactor":0.5
			}
		}
	],
	"meshes":[
		{
			"name":"Cube.015",
			"primitives":[
				{
					"attributes":{
						"POSITION":0,
						"NORMAL":1,
						"TEXCOORD_0":2,
						"TANGENT":3,
						"JOINTS_0":4,
						"WEIGHTS_0":5
					},
					"indices":6,
					"material":0
				},
				{
					"attributes":{
						"POSITION":7,
						"NORMAL":8,
						"TEXCOORD_0":9,
						"TANGENT":10,
						"JOINTS_0":11,
						"WEIGHTS_0":12
					},
					"indices":13,
					"material":1
				}
			]
		}
	],
	"textures":[
		{
			"sampler":0,
			"source":0
		},
		{
			"sampler":0,
			"source":0
		},
		{
			"sampler":0,
			"source":1
		}
	],
	"images":[
		{
			"mimeType":"image/jpeg",
			"name":"AvatarWearables_TX",
			"uri":"tex/AvatarWearables_TX.jpg"
		},
		{
			"mimeType":"image/jpeg",
			"name":"ZebraPink02",
			"uri":"tex/ZebraPink02.jpg"
		}
	],
	"skins":[
		{
			"inverseBindMatrices":14,
			"joints":[
				2,
				0,
				1
			],
			"name":"heartArm"
		}
	],
	"accessors":[
		{
			"bufferView":0,
			"componentType":5126,
			"count":902,
			"max":[
				1.0244461297988892,
				1.6714729070663452,
				1.3452075719833374
			],
			"min":[
				-1.0244461297988892,
				0.05919221043586731,
				-0.656210720539093
			],
			"type":"VEC3"
		},
		{
			"bufferView":1,
			"componentType":5126,
			"count":902,
			"type":"VEC3"
		},
		{
			"bufferView":2,
			"componentType":5126,
			"count":902,
			"type":"VEC2"
		},
		{
			"bufferView":3,
			"componentType":5126,
			"count":902,
			"type":"VEC4"
		},
		{
			"bufferView":4,
			"componentType":5121,
			"count":902,
			"type":"VEC4"
		},
		{
			"bufferView":5,
			"componentType":5126,
			"count":902,
			"type":"VEC4"
		},
		{
			"bufferView":6,
			"componentType":5123,
			"count":1632,
			"type":"SCALAR"
		},
		{
			"bufferView":7,
			"componentType":5126,
			"count":1402,
			"max":[
				1.0556530952453613,
				1.5019760131835938,
				1.3154994249343872
			],
			"min":[
				-1.0556530952453613,
				0,
				-0.6873412132263184
			],
			"type":"VEC3"
		},
		{
			"bufferView":8,
			"componentType":5126,
			"count":1402,
			"type":"VEC3"
		},
		{
			"bufferView":9,
			"componentType":5126,
			"count":1402,
			"type":"VEC2"
		},
		{
			"bufferView":10,
			"componentType":5126,
			"count":1402,
			"type":"VEC4"
		},
		{
			"bufferView":11,
			"componentType":5121,
			"count":1402,
			"type":"VEC4"
		},
		{
			"bufferView":12,
			"componentType":5126,
			"count":1402,
			"type":"VEC4"
		},
		{
			"bufferView":13,
			"componentType":5123,
			"count":4194,
			"type":"SCALAR"
		},
		{
			"bufferView":14,
			"componentType":5126,
			"count":3,
			"type":"MAT4"
		},
		{
			"bufferView":15,
			"componentType":5126,
			"count":2,
			"max":[
				0.5
			],
			"min":[
				0
			],
			"type":"SCALAR"
		},
		{
			"bufferView":16,
			"componentType":5126,
			"count":2,
			"type":"VEC4"
		},
		{
			"bufferView":17,
			"componentType":5126,
			"count":3,
			"max":[
				0.5
			],
			"min":[
				0
			],
			"type":"SCALAR"
		},
		{
			"bufferView":18,
			"componentType":5126,
			"count":3,
			"type":"VEC3"
		}
	],
	"bufferViews":[
		{
			"buffer":0,
			"byteLength":10824,
			"byteOffset":0,
			"target":34962
		},
		{
			"buffer":0,
			"byteLength":10824,
			"byteOffset":10824,
			"target":34962
		},
		{
			"buffer":0,
			"byteLength":7216,
			"byteOffset":21648,
			"target":34962
		},
		{
			"buffer":0,
			"byteLength":14432,
			"byteOffset":28864,
			"target":34962
		},
		{
			"buffer":0,
			"byteLength":3608,
			"byteOffset":43296,
			"target":34962
		},
		{
			"buffer":0,
			"byteLength":14432,
			"byteOffset":46904,
			"target":34962
		},
		{
			"buffer":0,
			"byteLength":3264,
			"byteOffset":61336,
			"target":34963
		},
		{
			"buffer":0,
			"byteLength":16824,
			"byteOffset":64600,
			"target":34962
		},
		{
			"buffer":0,
			"byteLength":16824,
			"byteOffset":81424,
			"target":34962
		},
		{
			"buffer":0,
			"byteLength":11216,
			"byteOffset":98248,
			"target":34962
		},
		{
			"buffer":0,
			"byteLength":22432,
			"byteOffset":109464,
			"target":34962
		},
		{
			"buffer":0,
			"byteLength":5608,
			"byteOffset":131896,
			"target":34962
		},
		{
			"buffer":0,
			"byteLength":22432,
			"byteOffset":137504,
			"target":34962
		},
		{
			"buffer":0,
			"byteLength":8388,
			"byteOffset":159936,
			"target":34963
		},
		{
			"buffer":0,
			"byteLength":192,
			"byteOffset":168324
		},
		{
			"buffer":0,
			"byteLength":8,
			"byteOffset":168516
		},
		{
			"buffer":0,
			"byteLength":32,
			"byteOffset":168524
		},
		{
			"buffer":0,
			"byteLength":12,
			"byteOffset":168556
		},
		{
			"buffer":0,
			"byteLength":36,
			"byteOffset":168568
		}
	],
	"samplers":[
		{
			"magFilter":9729,
			"minFilter":9987
		}
	],
	"buffers":[
		{
			"byteLength":168604,
			"uri":"vehicle.heart.02.bin"
		}
	]
}
