{
	"asset":{
		"generator":"Khronos glTF Blender I/O v4.0.44",
		"version":"2.0"
	},
	"extensionsUsed":[
		"KHR_materials_emissive_strength"
	],
	"scene":0,
	"scenes":[
		{
			"name":"Scene",
			"nodes":[
				5
			]
		}
	],
	"nodes":[
		{
			"name":"Bone.001.L",
			"rotation":[
				-1.0858095755850172e-08,
				7.138781121796001e-09,
				-0.38784703612327576,
				0.9217237830162048
			],
			"scale":[
				0.9999999403953552,
				0.9999999403953552,
				0.9999999403953552
			],
			"translation":[
				0.12896879017353058,
				1.227410912513733,
				-0.44224026799201965
			]
		},
		{
			"name":"Bone.001.R",
			"rotation":[
				-1.0858095755850172e-08,
				-7.138781121796001e-09,
				0.38784703612327576,
				0.9217237830162048
			],
			"scale":[
				0.9999999403953552,
				0.9999999403953552,
				0.9999999403953552
			],
			"translation":[
				-0.12896879017353058,
				1.227410912513733,
				-0.44224026799201965
			]
		},
		{
			"name":"Bone.001",
			"rotation":[
				0.7071067690849304,
				-5.366708251131058e-07,
				-5.366708251131058e-07,
				0.7071067690849304
			],
			"scale":[
				0.9999999403953552,
				0.9999999403953552,
				0.9999999403953552
			],
			"translation":[
				-1.4199058284702915e-07,
				0.5642340183258057,
				1.857443928718567
			]
		},
		{
			"children":[
				0,
				1,
				2
			],
			"name":"Bone",
			"scale":[
				0.9999999403953552,
				0.9999999403953552,
				0.9999999403953552
			]
		},
		{
			"mesh":0,
			"name":"bugCart",
			"skin":0
		},
		{
			"children":[
				4,
				3
			],
			"name":"bugArm",
			"scale":[
				0.643610417842865,
				0.643610417842865,
				0.643610417842865
			]
		}
	],
	"animations":[
		{
			"channels":[
				{
					"sampler":0,
					"target":{
						"node":0,
						"path":"rotation"
					}
				},
				{
					"sampler":1,
					"target":{
						"node":1,
						"path":"rotation"
					}
				},
				{
					"sampler":2,
					"target":{
						"node":2,
						"path":"rotation"
					}
				}
			],
			"name":"bugArmAction",
			"samplers":[
				{
					"input":13,
					"interpolation":"LINEAR",
					"output":14
				},
				{
					"input":13,
					"interpolation":"LINEAR",
					"output":15
				},
				{
					"input":13,
					"interpolation":"LINEAR",
					"output":16
				}
			]
		},
		{
			"channels":[
				{
					"sampler":0,
					"target":{
						"node":2,
						"path":"rotation"
					}
				}
			],
			"name":"heartArmAction",
			"samplers":[
				{
					"input":17,
					"interpolation":"LINEAR",
					"output":18
				}
			]
		}
	],
	"materials":[
		{
			"name":"DCL.AvatarWearables",
			"pbrMetallicRoughness":{
				"baseColorTexture":{
					"index":0
				},
				"metallicFactor":0,
				"roughnessFactor":0.5
			}
		},
		{
			"emissiveFactor":[
				1,
				1,
				1
			],
			"emissiveTexture":{
				"index":1
			},
			"extensions":{
				"KHR_materials_emissive_strength":{
					"emissiveStrength":5
				}
			},
			"name":"DCL.AvatarWearables_Emissive",
			"pbrMetallicRoughness":{
				"baseColorTexture":{
					"index":2
				},
				"metallicFactor":0,
				"roughnessFactor":0.5
			}
		}
	],
	"meshes":[
		{
			"name":"Sphere.027",
			"primitives":[
				{
					"attributes":{
						"POSITION":0,
						"NORMAL":1,
						"TEXCOORD_0":2,
						"JOINTS_0":3,
						"WEIGHTS_0":4
					},
					"indices":5,
					"material":0
				},
				{
					"attributes":{
						"POSITION":6,
						"NORMAL":7,
						"TEXCOORD_0":8,
						"JOINTS_0":9,
						"WEIGHTS_0":10
					},
					"indices":11,
					"material":1
				}
			]
		}
	],
	"textures":[
		{
			"sampler":0,
			"source":0
		},
		{
			"sampler":0,
			"source":0
		},
		{
			"sampler":0,
			"source":0
		}
	],
	"images":[
		{
			"mimeType":"image/jpeg",
			"name":"AvatarWearables_TX",
			"uri":"tex/AvatarWearables_TX.jpg"
		}
	],
	"skins":[
		{
			"inverseBindMatrices":12,
			"joints":[
				3,
				0,
				1,
				2
			],
			"name":"bugArm"
		}
	],
	"accessors":[
		{
			"bufferView":0,
			"componentType":5126,
			"count":1331,
			"max":[
				1.0556528568267822,
				0.9733402729034424,
				1.464246392250061
			],
			"min":[
				-1.0556528568267822,
				5.9604641222676946e-08,
				-0.6873411536216736
			],
			"type":"VEC3"
		},
		{
			"bufferView":1,
			"componentType":5126,
			"count":1331,
			"type":"VEC3"
		},
		{
			"bufferView":2,
			"componentType":5126,
			"count":1331,
			"type":"VEC2"
		},
		{
			"bufferView":3,
			"componentType":5121,
			"count":1331,
			"type":"VEC4"
		},
		{
			"bufferView":4,
			"componentType":5126,
			"count":1331,
			"type":"VEC4"
		},
		{
			"bufferView":5,
			"componentType":5123,
			"count":3402,
			"type":"SCALAR"
		},
		{
			"bufferView":6,
			"componentType":5126,
			"count":770,
			"max":[
				1.02444589138031,
				1.5428258180618286,
				1.4956555366516113
			],
			"min":[
				-1.02444589138031,
				0.05919225141406059,
				-0.6562106013298035
			],
			"type":"VEC3"
		},
		{
			"bufferView":7,
			"componentType":5126,
			"count":770,
			"type":"VEC3"
		},
		{
			"bufferView":8,
			"componentType":5126,
			"count":770,
			"type":"VEC2"
		},
		{
			"bufferView":9,
			"componentType":5121,
			"count":770,
			"type":"VEC4"
		},
		{
			"bufferView":10,
			"componentType":5126,
			"count":770,
			"type":"VEC4"
		},
		{
			"bufferView":11,
			"componentType":5123,
			"count":2148,
			"type":"SCALAR"
		},
		{
			"bufferView":12,
			"componentType":5126,
			"count":4,
			"type":"MAT4"
		},
		{
			"bufferView":13,
			"componentType":5126,
			"count":3,
			"max":[
				0.5
			],
			"min":[
				0
			],
			"type":"SCALAR"
		},
		{
			"bufferView":14,
			"componentType":5126,
			"count":3,
			"type":"VEC4"
		},
		{
			"bufferView":15,
			"componentType":5126,
			"count":3,
			"type":"VEC4"
		},
		{
			"bufferView":16,
			"componentType":5126,
			"count":3,
			"type":"VEC4"
		},
		{
			"bufferView":17,
			"componentType":5126,
			"count":2,
			"max":[
				0.5
			],
			"min":[
				0
			],
			"type":"SCALAR"
		},
		{
			"bufferView":18,
			"componentType":5126,
			"count":2,
			"type":"VEC4"
		}
	],
	"bufferViews":[
		{
			"buffer":0,
			"byteLength":15972,
			"byteOffset":0,
			"target":34962
		},
		{
			"buffer":0,
			"byteLength":15972,
			"byteOffset":15972,
			"target":34962
		},
		{
			"buffer":0,
			"byteLength":10648,
			"byteOffset":31944,
			"target":34962
		},
		{
			"buffer":0,
			"byteLength":5324,
			"byteOffset":42592,
			"target":34962
		},
		{
			"buffer":0,
			"byteLength":21296,
			"byteOffset":47916,
			"target":34962
		},
		{
			"buffer":0,
			"byteLength":6804,
			"byteOffset":69212,
			"target":34963
		},
		{
			"buffer":0,
			"byteLength":9240,
			"byteOffset":76016,
			"target":34962
		},
		{
			"buffer":0,
			"byteLength":9240,
			"byteOffset":85256,
			"target":34962
		},
		{
			"buffer":0,
			"byteLength":6160,
			"byteOffset":94496,
			"target":34962
		},
		{
			"buffer":0,
			"byteLength":3080,
			"byteOffset":100656,
			"target":34962
		},
		{
			"buffer":0,
			"byteLength":12320,
			"byteOffset":103736,
			"target":34962
		},
		{
			"buffer":0,
			"byteLength":4296,
			"byteOffset":116056,
			"target":34963
		},
		{
			"buffer":0,
			"byteLength":256,
			"byteOffset":120352
		},
		{
			"buffer":0,
			"byteLength":12,
			"byteOffset":120608
		},
		{
			"buffer":0,
			"byteLength":48,
			"byteOffset":120620
		},
		{
			"buffer":0,
			"byteLength":48,
			"byteOffset":120668
		},
		{
			"buffer":0,
			"byteLength":48,
			"byteOffset":120716
		},
		{
			"buffer":0,
			"byteLength":8,
			"byteOffset":120764
		},
		{
			"buffer":0,
			"byteLength":32,
			"byteOffset":120772
		}
	],
	"samplers":[
		{
			"magFilter":9729,
			"minFilter":9987
		}
	],
	"buffers":[
		{
			"byteLength":120804,
			"uri":"vehicle.bee.01.bin"
		}
	]
}
