{
	"asset":{
		"generator":"Khronos glTF Blender I/O v4.0.44",
		"version":"2.0"
	},
	"extensionsUsed":[
		"KHR_materials_emissive_strength"
	],
	"scene":0,
	"scenes":[
		{
			"name":"Scene",
			"nodes":[
				4
			]
		}
	],
	"nodes":[
		{
			"name":"Bone.001",
			"rotation":[
				0,
				1.1920927533992653e-07,
				0,
				1
			],
			"translation":[
				0,
				0.21503335237503052,
				-0.15129007399082184
			]
		},
		{
			"name":"Bone.002",
			"rotation":[
				0.8441776037216187,
				-4.7300162009378255e-07,
				-4.2647769760151277e-07,
				0.536063551902771
			],
			"translation":[
				1.3492757489075302e-07,
				0.6537389159202576,
				1.280400276184082
			]
		},
		{
			"children":[
				0,
				1
			],
			"name":"Bone"
		},
		{
			"mesh":0,
			"name":"dinoCart",
			"skin":0
		},
		{
			"children":[
				3,
				2
			],
			"name":"dinoArm"
		}
	],
	"animations":[
		{
			"channels":[
				{
					"sampler":0,
					"target":{
						"node":2,
						"path":"translation"
					}
				},
				{
					"sampler":1,
					"target":{
						"node":2,
						"path":"rotation"
					}
				},
				{
					"sampler":2,
					"target":{
						"node":2,
						"path":"scale"
					}
				},
				{
					"sampler":3,
					"target":{
						"node":0,
						"path":"translation"
					}
				},
				{
					"sampler":4,
					"target":{
						"node":0,
						"path":"rotation"
					}
				},
				{
					"sampler":5,
					"target":{
						"node":0,
						"path":"scale"
					}
				},
				{
					"sampler":6,
					"target":{
						"node":1,
						"path":"translation"
					}
				},
				{
					"sampler":7,
					"target":{
						"node":1,
						"path":"rotation"
					}
				},
				{
					"sampler":8,
					"target":{
						"node":1,
						"path":"scale"
					}
				}
			],
			"name":"dinoArmAction",
			"samplers":[
				{
					"input":13,
					"interpolation":"STEP",
					"output":14
				},
				{
					"input":13,
					"interpolation":"STEP",
					"output":15
				},
				{
					"input":13,
					"interpolation":"STEP",
					"output":16
				},
				{
					"input":13,
					"interpolation":"STEP",
					"output":17
				},
				{
					"input":18,
					"interpolation":"LINEAR",
					"output":19
				},
				{
					"input":13,
					"interpolation":"STEP",
					"output":20
				},
				{
					"input":13,
					"interpolation":"STEP",
					"output":21
				},
				{
					"input":18,
					"interpolation":"LINEAR",
					"output":22
				},
				{
					"input":13,
					"interpolation":"STEP",
					"output":23
				}
			]
		}
	],
	"materials":[
		{
			"name":"DCL.AvatarWearables",
			"pbrMetallicRoughness":{
				"baseColorTexture":{
					"index":0
				},
				"metallicFactor":0,
				"roughnessFactor":0.5
			}
		},
		{
			"emissiveFactor":[
				1,
				1,
				1
			],
			"emissiveTexture":{
				"index":1
			},
			"extensions":{
				"KHR_materials_emissive_strength":{
					"emissiveStrength":5
				}
			},
			"name":"DCL.AvatarWearables_Emissive",
			"pbrMetallicRoughness":{
				"baseColorTexture":{
					"index":2
				},
				"metallicFactor":0,
				"roughnessFactor":0.5
			}
		}
	],
	"meshes":[
		{
			"name":"Cone.012",
			"primitives":[
				{
					"attributes":{
						"POSITION":0,
						"NORMAL":1,
						"TEXCOORD_0":2,
						"JOINTS_0":3,
						"WEIGHTS_0":4
					},
					"indices":5,
					"material":0
				},
				{
					"attributes":{
						"POSITION":6,
						"NORMAL":7,
						"TEXCOORD_0":8,
						"JOINTS_0":9,
						"WEIGHTS_0":10
					},
					"indices":11,
					"material":1
				}
			]
		}
	],
	"textures":[
		{
			"sampler":0,
			"source":0
		},
		{
			"sampler":0,
			"source":0
		},
		{
			"sampler":0,
			"source":0
		}
	],
	"images":[
		{
			"mimeType":"image/jpeg",
			"name":"AvatarWearables_TX",
			"uri":"tex/AvatarWearables_TX.jpg"
		}
	],
	"skins":[
		{
			"inverseBindMatrices":12,
			"joints":[
				2,
				0,
				1
			],
			"name":"dinoArm"
		}
	],
	"accessors":[
		{
			"bufferView":0,
			"componentType":5126,
			"count":1083,
			"max":[
				1.0556529760360718,
				1.987369179725647,
				1.6156787872314453
			],
			"min":[
				-1.0556529760360718,
				-0.005579829216003418,
				-0.6873411536216736
			],
			"type":"VEC3"
		},
		{
			"bufferView":1,
			"componentType":5126,
			"count":1083,
			"type":"VEC3"
		},
		{
			"bufferView":2,
			"componentType":5126,
			"count":1083,
			"type":"VEC2"
		},
		{
			"bufferView":3,
			"componentType":5121,
			"count":1083,
			"type":"VEC4"
		},
		{
			"bufferView":4,
			"componentType":5126,
			"count":1083,
			"type":"VEC4"
		},
		{
			"bufferView":5,
			"componentType":5123,
			"count":3396,
			"type":"SCALAR"
		},
		{
			"bufferView":6,
			"componentType":5126,
			"count":519,
			"max":[
				1.0244460105895996,
				1.9575012922286987,
				1.2890920639038086
			],
			"min":[
				-1.0244460105895996,
				0.05919218063354492,
				-0.6562106013298035
			],
			"type":"VEC3"
		},
		{
			"bufferView":7,
			"componentType":5126,
			"count":519,
			"type":"VEC3"
		},
		{
			"bufferView":8,
			"componentType":5126,
			"count":519,
			"type":"VEC2"
		},
		{
			"bufferView":9,
			"componentType":5121,
			"count":519,
			"type":"VEC4"
		},
		{
			"bufferView":10,
			"componentType":5126,
			"count":519,
			"type":"VEC4"
		},
		{
			"bufferView":11,
			"componentType":5123,
			"count":1692,
			"type":"SCALAR"
		},
		{
			"bufferView":12,
			"componentType":5126,
			"count":3,
			"type":"MAT4"
		},
		{
			"bufferView":13,
			"componentType":5126,
			"count":2,
			"max":[
				0.5
			],
			"min":[
				0
			],
			"type":"SCALAR"
		},
		{
			"bufferView":14,
			"componentType":5126,
			"count":2,
			"type":"VEC3"
		},
		{
			"bufferView":15,
			"componentType":5126,
			"count":2,
			"type":"VEC4"
		},
		{
			"bufferView":16,
			"componentType":5126,
			"count":2,
			"type":"VEC3"
		},
		{
			"bufferView":17,
			"componentType":5126,
			"count":2,
			"type":"VEC3"
		},
		{
			"bufferView":18,
			"componentType":5126,
			"count":31,
			"max":[
				0.5
			],
			"min":[
				0
			],
			"type":"SCALAR"
		},
		{
			"bufferView":19,
			"componentType":5126,
			"count":31,
			"type":"VEC4"
		},
		{
			"bufferView":20,
			"componentType":5126,
			"count":2,
			"type":"VEC3"
		},
		{
			"bufferView":21,
			"componentType":5126,
			"count":2,
			"type":"VEC3"
		},
		{
			"bufferView":22,
			"componentType":5126,
			"count":31,
			"type":"VEC4"
		},
		{
			"bufferView":23,
			"componentType":5126,
			"count":2,
			"type":"VEC3"
		}
	],
	"bufferViews":[
		{
			"buffer":0,
			"byteLength":12996,
			"byteOffset":0,
			"target":34962
		},
		{
			"buffer":0,
			"byteLength":12996,
			"byteOffset":12996,
			"target":34962
		},
		{
			"buffer":0,
			"byteLength":8664,
			"byteOffset":25992,
			"target":34962
		},
		{
			"buffer":0,
			"byteLength":4332,
			"byteOffset":34656,
			"target":34962
		},
		{
			"buffer":0,
			"byteLength":17328,
			"byteOffset":38988,
			"target":34962
		},
		{
			"buffer":0,
			"byteLength":6792,
			"byteOffset":56316,
			"target":34963
		},
		{
			"buffer":0,
			"byteLength":6228,
			"byteOffset":63108,
			"target":34962
		},
		{
			"buffer":0,
			"byteLength":6228,
			"byteOffset":69336,
			"target":34962
		},
		{
			"buffer":0,
			"byteLength":4152,
			"byteOffset":75564,
			"target":34962
		},
		{
			"buffer":0,
			"byteLength":2076,
			"byteOffset":79716,
			"target":34962
		},
		{
			"buffer":0,
			"byteLength":8304,
			"byteOffset":81792,
			"target":34962
		},
		{
			"buffer":0,
			"byteLength":3384,
			"byteOffset":90096,
			"target":34963
		},
		{
			"buffer":0,
			"byteLength":192,
			"byteOffset":93480
		},
		{
			"buffer":0,
			"byteLength":8,
			"byteOffset":93672
		},
		{
			"buffer":0,
			"byteLength":24,
			"byteOffset":93680
		},
		{
			"buffer":0,
			"byteLength":32,
			"byteOffset":93704
		},
		{
			"buffer":0,
			"byteLength":24,
			"byteOffset":93736
		},
		{
			"buffer":0,
			"byteLength":24,
			"byteOffset":93760
		},
		{
			"buffer":0,
			"byteLength":124,
			"byteOffset":93784
		},
		{
			"buffer":0,
			"byteLength":496,
			"byteOffset":93908
		},
		{
			"buffer":0,
			"byteLength":24,
			"byteOffset":94404
		},
		{
			"buffer":0,
			"byteLength":24,
			"byteOffset":94428
		},
		{
			"buffer":0,
			"byteLength":496,
			"byteOffset":94452
		},
		{
			"buffer":0,
			"byteLength":24,
			"byteOffset":94948
		}
	],
	"samplers":[
		{
			"magFilter":9729,
			"minFilter":9987
		}
	],
	"buffers":[
		{
			"byteLength":94972,
			"uri":"vehicle.dino.01.bin"
		}
	]
}
