{
	"asset":{
		"generator":"Khronos glTF Blender I/O v4.1.63",
		"version":"2.0"
	},
	"scene":0,
	"scenes":[
		{
			"name":"Scene",
			"nodes":[
				4,
				5
			]
		}
	],
	"nodes":[
		{
			"name":"Bone.001",
			"translation":[
				0,
				0.21503335237503052,
				-0.15129007399082184
			]
		},
		{
			"name":"Bone.002",
			"rotation":[
				0.8441776037216187,
				-5.53944857983879e-07,
				-5.53944857983879e-07,
				0.536063551902771
			],
			"translation":[
				1.3492757489075302e-07,
				0.6537389159202576,
				1.280400276184082
			]
		},
		{
			"children":[
				0,
				1
			],
			"name":"Bone"
		},
		{
			"mesh":0,
			"name":"dinoCart2",
			"skin":0
		},
		{
			"children":[
				3,
				2
			],
			"name":"dinoArm.02"
		},
		{
			"mesh":1,
			"name":"dino2_collider",
			"translation":[
				0,
				0,
				-0.20000000298023224
			]
		}
	],
	"animations":[
		{
			"channels":[
				{
					"sampler":0,
					"target":{
						"node":2,
						"path":"translation"
					}
				},
				{
					"sampler":1,
					"target":{
						"node":2,
						"path":"rotation"
					}
				},
				{
					"sampler":2,
					"target":{
						"node":2,
						"path":"scale"
					}
				},
				{
					"sampler":3,
					"target":{
						"node":0,
						"path":"translation"
					}
				},
				{
					"sampler":4,
					"target":{
						"node":0,
						"path":"rotation"
					}
				},
				{
					"sampler":5,
					"target":{
						"node":0,
						"path":"scale"
					}
				},
				{
					"sampler":6,
					"target":{
						"node":1,
						"path":"translation"
					}
				},
				{
					"sampler":7,
					"target":{
						"node":1,
						"path":"rotation"
					}
				},
				{
					"sampler":8,
					"target":{
						"node":1,
						"path":"scale"
					}
				}
			],
			"name":"dinoArm02Action",
			"samplers":[
				{
					"input":20,
					"interpolation":"STEP",
					"output":21
				},
				{
					"input":20,
					"interpolation":"STEP",
					"output":22
				},
				{
					"input":20,
					"interpolation":"STEP",
					"output":23
				},
				{
					"input":20,
					"interpolation":"STEP",
					"output":24
				},
				{
					"input":25,
					"interpolation":"LINEAR",
					"output":26
				},
				{
					"input":20,
					"interpolation":"STEP",
					"output":27
				},
				{
					"input":20,
					"interpolation":"STEP",
					"output":28
				},
				{
					"input":25,
					"interpolation":"LINEAR",
					"output":29
				},
				{
					"input":20,
					"interpolation":"STEP",
					"output":30
				}
			]
		}
	],
	"materials":[
		{
			"name":"DCL.AvatarWearables",
			"pbrMetallicRoughness":{
				"baseColorTexture":{
					"index":0
				},
				"metallicFactor":0,
				"roughnessFactor":0.5
			}
		},
		{
			"emissiveFactor":[
				1,
				1,
				1
			],
			"emissiveTexture":{
				"index":1
			},
			"name":"DCL.AvatarWearables_Emissive",
			"pbrMetallicRoughness":{
				"baseColorTexture":{
					"index":2
				},
				"metallicFactor":0,
				"roughnessFactor":0.5
			}
		}
	],
	"meshes":[
		{
			"name":"Cone.001",
			"primitives":[
				{
					"attributes":{
						"POSITION":0,
						"NORMAL":1,
						"TEXCOORD_0":2,
						"TANGENT":3,
						"JOINTS_0":4,
						"WEIGHTS_0":5
					},
					"indices":6,
					"material":0
				},
				{
					"attributes":{
						"POSITION":7,
						"NORMAL":8,
						"TEXCOORD_0":9,
						"TANGENT":10,
						"JOINTS_0":11,
						"WEIGHTS_0":12
					},
					"indices":13,
					"material":1
				}
			]
		},
		{
			"name":"Cylinder.039",
			"primitives":[
				{
					"attributes":{
						"POSITION":15,
						"NORMAL":16,
						"TEXCOORD_0":17,
						"TANGENT":18
					},
					"indices":19
				}
			]
		}
	],
	"textures":[
		{
			"sampler":0,
			"source":0
		},
		{
			"sampler":0,
			"source":0
		},
		{
			"sampler":0,
			"source":0
		}
	],
	"images":[
		{
			"mimeType":"image/png",
			"name":"AvatarWearables_TX",
			"uri":"tex/AvatarWearables_TX.png"
		}
	],
	"skins":[
		{
			"inverseBindMatrices":14,
			"joints":[
				2,
				0,
				1
			],
			"name":"dinoArm.02"
		}
	],
	"accessors":[
		{
			"bufferView":0,
			"componentType":5126,
			"count":1151,
			"max":[
				1.0556529760360718,
				1.987369179725647,
				1.6156787872314453
			],
			"min":[
				-1.0556529760360718,
				0,
				-0.6873411536216736
			],
			"type":"VEC3"
		},
		{
			"bufferView":1,
			"componentType":5126,
			"count":1151,
			"type":"VEC3"
		},
		{
			"bufferView":2,
			"componentType":5126,
			"count":1151,
			"type":"VEC2"
		},
		{
			"bufferView":3,
			"componentType":5126,
			"count":1151,
			"type":"VEC4"
		},
		{
			"bufferView":4,
			"componentType":5121,
			"count":1151,
			"type":"VEC4"
		},
		{
			"bufferView":5,
			"componentType":5126,
			"count":1151,
			"type":"VEC4"
		},
		{
			"bufferView":6,
			"componentType":5123,
			"count":3252,
			"type":"SCALAR"
		},
		{
			"bufferView":7,
			"componentType":5126,
			"count":600,
			"max":[
				1.0244460105895996,
				1.9575012922286987,
				1.2890920639038086
			],
			"min":[
				-1.0244460105895996,
				0.05919218063354492,
				-0.6562106013298035
			],
			"type":"VEC3"
		},
		{
			"bufferView":8,
			"componentType":5126,
			"count":600,
			"type":"VEC3"
		},
		{
			"bufferView":9,
			"componentType":5126,
			"count":600,
			"type":"VEC2"
		},
		{
			"bufferView":10,
			"componentType":5126,
			"count":600,
			"type":"VEC4"
		},
		{
			"bufferView":11,
			"componentType":5121,
			"count":600,
			"type":"VEC4"
		},
		{
			"bufferView":12,
			"componentType":5126,
			"count":600,
			"type":"VEC4"
		},
		{
			"bufferView":13,
			"componentType":5123,
			"count":1692,
			"type":"SCALAR"
		},
		{
			"bufferView":14,
			"componentType":5126,
			"count":3,
			"type":"MAT4"
		},
		{
			"bufferView":15,
			"componentType":5126,
			"count":24,
			"max":[
				0.3675413131713867,
				1.1999999284744263,
				0.7011935114860535
			],
			"min":[
				-0.3675413131713867,
				-0.6000000238418579,
				-0.11408743262290955
			],
			"type":"VEC3"
		},
		{
			"bufferView":16,
			"componentType":5126,
			"count":24,
			"type":"VEC3"
		},
		{
			"bufferView":17,
			"componentType":5126,
			"count":24,
			"type":"VEC2"
		},
		{
			"bufferView":18,
			"componentType":5126,
			"count":24,
			"type":"VEC4"
		},
		{
			"bufferView":19,
			"componentType":5123,
			"count":36,
			"type":"SCALAR"
		},
		{
			"bufferView":20,
			"componentType":5126,
			"count":2,
			"max":[
				2
			],
			"min":[
				0
			],
			"type":"SCALAR"
		},
		{
			"bufferView":21,
			"componentType":5126,
			"count":2,
			"type":"VEC3"
		},
		{
			"bufferView":22,
			"componentType":5126,
			"count":2,
			"type":"VEC4"
		},
		{
			"bufferView":23,
			"componentType":5126,
			"count":2,
			"type":"VEC3"
		},
		{
			"bufferView":24,
			"componentType":5126,
			"count":2,
			"type":"VEC3"
		},
		{
			"bufferView":25,
			"componentType":5126,
			"count":121,
			"max":[
				2
			],
			"min":[
				0
			],
			"type":"SCALAR"
		},
		{
			"bufferView":26,
			"componentType":5126,
			"count":121,
			"type":"VEC4"
		},
		{
			"bufferView":27,
			"componentType":5126,
			"count":2,
			"type":"VEC3"
		},
		{
			"bufferView":28,
			"componentType":5126,
			"count":2,
			"type":"VEC3"
		},
		{
			"bufferView":29,
			"componentType":5126,
			"count":121,
			"type":"VEC4"
		},
		{
			"bufferView":30,
			"componentType":5126,
			"count":2,
			"type":"VEC3"
		}
	],
	"bufferViews":[
		{
			"buffer":0,
			"byteLength":13812,
			"byteOffset":0,
			"target":34962
		},
		{
			"buffer":0,
			"byteLength":13812,
			"byteOffset":13812,
			"target":34962
		},
		{
			"buffer":0,
			"byteLength":9208,
			"byteOffset":27624,
			"target":34962
		},
		{
			"buffer":0,
			"byteLength":18416,
			"byteOffset":36832,
			"target":34962
		},
		{
			"buffer":0,
			"byteLength":4604,
			"byteOffset":55248,
			"target":34962
		},
		{
			"buffer":0,
			"byteLength":18416,
			"byteOffset":59852,
			"target":34962
		},
		{
			"buffer":0,
			"byteLength":6504,
			"byteOffset":78268,
			"target":34963
		},
		{
			"buffer":0,
			"byteLength":7200,
			"byteOffset":84772,
			"target":34962
		},
		{
			"buffer":0,
			"byteLength":7200,
			"byteOffset":91972,
			"target":34962
		},
		{
			"buffer":0,
			"byteLength":4800,
			"byteOffset":99172,
			"target":34962
		},
		{
			"buffer":0,
			"byteLength":9600,
			"byteOffset":103972,
			"target":34962
		},
		{
			"buffer":0,
			"byteLength":2400,
			"byteOffset":113572,
			"target":34962
		},
		{
			"buffer":0,
			"byteLength":9600,
			"byteOffset":115972,
			"target":34962
		},
		{
			"buffer":0,
			"byteLength":3384,
			"byteOffset":125572,
			"target":34963
		},
		{
			"buffer":0,
			"byteLength":192,
			"byteOffset":128956
		},
		{
			"buffer":0,
			"byteLength":288,
			"byteOffset":129148,
			"target":34962
		},
		{
			"buffer":0,
			"byteLength":288,
			"byteOffset":129436,
			"target":34962
		},
		{
			"buffer":0,
			"byteLength":192,
			"byteOffset":129724,
			"target":34962
		},
		{
			"buffer":0,
			"byteLength":384,
			"byteOffset":129916,
			"target":34962
		},
		{
			"buffer":0,
			"byteLength":72,
			"byteOffset":130300,
			"target":34963
		},
		{
			"buffer":0,
			"byteLength":8,
			"byteOffset":130372
		},
		{
			"buffer":0,
			"byteLength":24,
			"byteOffset":130380
		},
		{
			"buffer":0,
			"byteLength":32,
			"byteOffset":130404
		},
		{
			"buffer":0,
			"byteLength":24,
			"byteOffset":130436
		},
		{
			"buffer":0,
			"byteLength":24,
			"byteOffset":130460
		},
		{
			"buffer":0,
			"byteLength":484,
			"byteOffset":130484
		},
		{
			"buffer":0,
			"byteLength":1936,
			"byteOffset":130968
		},
		{
			"buffer":0,
			"byteLength":24,
			"byteOffset":132904
		},
		{
			"buffer":0,
			"byteLength":24,
			"byteOffset":132928
		},
		{
			"buffer":0,
			"byteLength":1936,
			"byteOffset":132952
		},
		{
			"buffer":0,
			"byteLength":24,
			"byteOffset":134888
		}
	],
	"samplers":[
		{
			"magFilter":9729,
			"minFilter":9987
		}
	],
	"buffers":[
		{
			"byteLength":134912,
			"uri":"vehicle.dino.02.bin"
		}
	]
}
